<mxfile host="app.diagrams.net" agent="Mozilla/5.0 (Windows NT 10.0; Win64; x64) AppleWebKit/537.36 (KHTML, like Gecko) Chrome/116.0.0.0 Safari/537.36" version="24.7.7">
  <diagram name="第 1 页" id="ogW1xhi9oLMj6ErI8FEl">
    <mxGraphModel dx="1850" dy="542" grid="1" gridSize="10" guides="1" tooltips="1" connect="1" arrows="1" fold="1" page="0" pageScale="1" pageWidth="827" pageHeight="1169" math="0" shadow="0">
      <root>
        <mxCell id="0" />
        <mxCell id="1" parent="0" />
        <mxCell id="1zJf-3JaiFk__ZrVRrUH-34" value="" style="rounded=0;whiteSpace=wrap;html=1;fillColor=none;" parent="1" vertex="1">
          <mxGeometry x="730" y="760" width="880" height="780" as="geometry" />
        </mxCell>
        <mxCell id="1zJf-3JaiFk__ZrVRrUH-19" value="" style="rounded=1;whiteSpace=wrap;html=1;fillColor=none;" parent="1" vertex="1">
          <mxGeometry x="740" y="800" width="860" height="340" as="geometry" />
        </mxCell>
        <mxCell id="1zJf-3JaiFk__ZrVRrUH-5" value="" style="rounded=0;whiteSpace=wrap;html=1;fillColor=none;" parent="1" vertex="1">
          <mxGeometry x="740" y="330" width="900" height="390" as="geometry" />
        </mxCell>
        <mxCell id="bp1fWxQ0l9jFslw9E3at-1" value="&lt;font style=&quot;font-size: 18px;&quot;&gt;传统召回算法&lt;/font&gt;" style="rounded=0;whiteSpace=wrap;html=1;" parent="1" vertex="1">
          <mxGeometry x="-170" y="190" width="250" height="40" as="geometry" />
        </mxCell>
        <mxCell id="bp1fWxQ0l9jFslw9E3at-2" value="&lt;font style=&quot;font-size: 18px;&quot;&gt;CF&lt;/font&gt;" style="rounded=0;whiteSpace=wrap;html=1;" parent="1" vertex="1">
          <mxGeometry x="-97.5" y="380" width="105" height="40" as="geometry" />
        </mxCell>
        <mxCell id="bp1fWxQ0l9jFslw9E3at-3" value="&lt;span style=&quot;font-size: 18px;&quot;&gt;SVD&lt;/span&gt;" style="rounded=0;whiteSpace=wrap;html=1;" parent="1" vertex="1">
          <mxGeometry x="-97.5" y="460" width="105" height="40" as="geometry" />
        </mxCell>
        <mxCell id="bp1fWxQ0l9jFslw9E3at-4" value="&lt;span style=&quot;font-size: 18px;&quot;&gt;UserCF&lt;/span&gt;" style="rounded=0;whiteSpace=wrap;html=1;" parent="1" vertex="1">
          <mxGeometry x="-160" y="290" width="105" height="40" as="geometry" />
        </mxCell>
        <mxCell id="bp1fWxQ0l9jFslw9E3at-5" value="&lt;span style=&quot;font-size: 18px;&quot;&gt;ItemCF&lt;/span&gt;" style="rounded=0;whiteSpace=wrap;html=1;" parent="1" vertex="1">
          <mxGeometry x="-35" y="290" width="105" height="40" as="geometry" />
        </mxCell>
        <mxCell id="bp1fWxQ0l9jFslw9E3at-6" value="" style="edgeStyle=segmentEdgeStyle;endArrow=classic;html=1;curved=0;rounded=0;endSize=8;startSize=8;entryX=0.5;entryY=1;entryDx=0;entryDy=0;" parent="1" source="bp1fWxQ0l9jFslw9E3at-2" target="bp1fWxQ0l9jFslw9E3at-5" edge="1">
          <mxGeometry width="50" height="50" relative="1" as="geometry">
            <mxPoint x="390" y="450" as="sourcePoint" />
            <mxPoint x="440" y="400" as="targetPoint" />
          </mxGeometry>
        </mxCell>
        <mxCell id="bp1fWxQ0l9jFslw9E3at-7" value="" style="edgeStyle=segmentEdgeStyle;endArrow=classic;html=1;curved=0;rounded=0;endSize=8;startSize=8;entryX=0.5;entryY=1;entryDx=0;entryDy=0;exitX=0;exitY=0.5;exitDx=0;exitDy=0;" parent="1" source="bp1fWxQ0l9jFslw9E3at-2" target="bp1fWxQ0l9jFslw9E3at-4" edge="1">
          <mxGeometry width="50" height="50" relative="1" as="geometry">
            <mxPoint x="18" y="410" as="sourcePoint" />
            <mxPoint x="28" y="340" as="targetPoint" />
          </mxGeometry>
        </mxCell>
        <mxCell id="bp1fWxQ0l9jFslw9E3at-8" value="" style="endArrow=classic;html=1;rounded=0;exitX=0.5;exitY=1;exitDx=0;exitDy=0;entryX=0.5;entryY=0;entryDx=0;entryDy=0;" parent="1" source="bp1fWxQ0l9jFslw9E3at-2" target="bp1fWxQ0l9jFslw9E3at-3" edge="1">
          <mxGeometry width="50" height="50" relative="1" as="geometry">
            <mxPoint x="390" y="450" as="sourcePoint" />
            <mxPoint x="440" y="400" as="targetPoint" />
          </mxGeometry>
        </mxCell>
        <mxCell id="bp1fWxQ0l9jFslw9E3at-9" value="" style="rounded=0;whiteSpace=wrap;html=1;fillColor=none;dashed=1;" parent="1" vertex="1">
          <mxGeometry x="-175" y="270" width="255" height="250" as="geometry" />
        </mxCell>
        <mxCell id="bp1fWxQ0l9jFslw9E3at-10" value="&lt;font style=&quot;font-size: 16px;&quot;&gt;人以群分，物以类聚&lt;/font&gt;" style="text;html=1;align=center;verticalAlign=middle;resizable=0;points=[];autosize=1;strokeColor=none;fillColor=none;" parent="1" vertex="1">
          <mxGeometry x="-132.5" y="240" width="170" height="30" as="geometry" />
        </mxCell>
        <mxCell id="bp1fWxQ0l9jFslw9E3at-11" value="" style="shape=flexArrow;endArrow=classic;html=1;rounded=0;" parent="1" source="bp1fWxQ0l9jFslw9E3at-9" edge="1">
          <mxGeometry width="50" height="50" relative="1" as="geometry">
            <mxPoint x="390" y="450" as="sourcePoint" />
            <mxPoint x="430" y="395" as="targetPoint" />
          </mxGeometry>
        </mxCell>
        <mxCell id="bp1fWxQ0l9jFslw9E3at-12" value="&lt;font style=&quot;font-size: 15px;&quot;&gt;CF和SVD这种传统召回算法可解释性强，&lt;/font&gt;&lt;div&gt;&lt;font style=&quot;font-size: 15px;&quot;&gt;但是没有加入&lt;/font&gt;&lt;/div&gt;&lt;div&gt;&lt;font style=&quot;font-size: 15px;&quot;&gt;推荐算法输入输出双方以及上下文的特征，&lt;/font&gt;&lt;/div&gt;&lt;div&gt;&lt;font style=&quot;font-size: 15px;&quot;&gt;没有考虑二者之间的关联性&lt;/font&gt;&lt;/div&gt;" style="text;html=1;align=center;verticalAlign=middle;resizable=0;points=[];autosize=1;strokeColor=none;fillColor=none;" parent="1" vertex="1">
          <mxGeometry x="100" y="310" width="310" height="90" as="geometry" />
        </mxCell>
        <mxCell id="bp1fWxQ0l9jFslw9E3at-13" value="&lt;font style=&quot;font-size: 15px;&quot;&gt;因此召回算法逐渐演变为embedding型召回&lt;/font&gt;" style="text;html=1;align=center;verticalAlign=middle;resizable=0;points=[];autosize=1;strokeColor=none;fillColor=none;" parent="1" vertex="1">
          <mxGeometry x="90" y="410" width="310" height="30" as="geometry" />
        </mxCell>
        <mxCell id="bp1fWxQ0l9jFslw9E3at-14" value="&lt;font style=&quot;font-size: 18px;&quot;&gt;embedding召回算法&lt;/font&gt;" style="rounded=0;whiteSpace=wrap;html=1;" parent="1" vertex="1">
          <mxGeometry x="430" y="375" width="250" height="40" as="geometry" />
        </mxCell>
        <mxCell id="bp1fWxQ0l9jFslw9E3at-15" value="&lt;font style=&quot;font-size: 16px;&quot;&gt;embedding:将一个对象通过某个语言模型表示为一个低维稠密向量，&lt;/font&gt;&lt;div&gt;&lt;font style=&quot;font-size: 16px;&quot;&gt;以便进行相似度计算&lt;/font&gt;&lt;div&gt;&lt;font style=&quot;font-size: 16px;&quot;&gt;&lt;br&gt;&lt;/font&gt;&lt;/div&gt;&lt;/div&gt;" style="text;html=1;align=center;verticalAlign=middle;resizable=0;points=[];autosize=1;strokeColor=none;fillColor=none;" parent="1" vertex="1">
          <mxGeometry x="710" y="190" width="510" height="70" as="geometry" />
        </mxCell>
        <mxCell id="bp1fWxQ0l9jFslw9E3at-18" value="&lt;span style=&quot;font-size: 16px;&quot;&gt;i2i召回/u2i召回：召回算法是基于item embedding还是user embedding检索&lt;/span&gt;&lt;div&gt;&lt;span style=&quot;font-size: 16px;&quot;&gt;i2i:以物品为中心，根据物品之间的相似性和关联性进行推荐&lt;/span&gt;&lt;/div&gt;&lt;div&gt;&lt;span style=&quot;font-size: 16px;&quot;&gt;u2i:以用户为中心，根据用户的属性进行物品推荐&lt;br&gt;&lt;/span&gt;&lt;div&gt;&lt;div&gt;&lt;font style=&quot;font-size: 16px;&quot;&gt;&lt;br&gt;&lt;/font&gt;&lt;/div&gt;&lt;/div&gt;&lt;/div&gt;" style="text;html=1;align=center;verticalAlign=middle;resizable=0;points=[];autosize=1;strokeColor=none;fillColor=none;" parent="1" vertex="1">
          <mxGeometry x="160" y="530" width="550" height="90" as="geometry" />
        </mxCell>
        <mxCell id="bp1fWxQ0l9jFslw9E3at-20" value="&lt;font style=&quot;font-size: 20px;&quot;&gt;&amp;nbsp;i2i:生成item embedding，然后基于相似度计算召回用户感兴趣的item&lt;/font&gt;" style="rounded=0;whiteSpace=wrap;html=1;" parent="1" vertex="1">
          <mxGeometry x="430" y="915" width="250" height="90" as="geometry" />
        </mxCell>
        <mxCell id="bp1fWxQ0l9jFslw9E3at-21" value="内容语义i2i召回：根据实际语义进行推荐，比如做了工厂排产项目，推荐运筹优化岗位；&lt;div&gt;做过生物人体力学仿真建模，推荐机器人或者拓扑优化岗位&lt;/div&gt;" style="text;html=1;align=center;verticalAlign=middle;resizable=0;points=[];autosize=1;strokeColor=none;fillColor=none;" parent="1" vertex="1">
          <mxGeometry x="960" y="330" width="490" height="40" as="geometry" />
        </mxCell>
        <mxCell id="bp1fWxQ0l9jFslw9E3at-23" value="Word2vec&lt;div&gt;经典词向量方法&lt;/div&gt;" style="whiteSpace=wrap;html=1;" parent="1" vertex="1">
          <mxGeometry x="820" y="400" width="120" height="60" as="geometry" />
        </mxCell>
        <mxCell id="bp1fWxQ0l9jFslw9E3at-24" value="FastText" style="whiteSpace=wrap;html=1;" parent="1" vertex="1">
          <mxGeometry x="1110" y="400" width="120" height="60" as="geometry" />
        </mxCell>
        <mxCell id="bp1fWxQ0l9jFslw9E3at-28" value="" style="edgeStyle=orthogonalEdgeStyle;rounded=0;orthogonalLoop=1;jettySize=auto;html=1;" parent="1" source="bp1fWxQ0l9jFslw9E3at-25" target="bp1fWxQ0l9jFslw9E3at-23" edge="1">
          <mxGeometry relative="1" as="geometry" />
        </mxCell>
        <mxCell id="bp1fWxQ0l9jFslw9E3at-25" value="skip-gram&lt;div&gt;阅读理解式&lt;/div&gt;" style="whiteSpace=wrap;html=1;" parent="1" vertex="1">
          <mxGeometry x="790" y="500" width="80" height="30" as="geometry" />
        </mxCell>
        <mxCell id="bp1fWxQ0l9jFslw9E3at-27" value="" style="edgeStyle=orthogonalEdgeStyle;rounded=0;orthogonalLoop=1;jettySize=auto;html=1;" parent="1" source="bp1fWxQ0l9jFslw9E3at-26" target="bp1fWxQ0l9jFslw9E3at-23" edge="1">
          <mxGeometry relative="1" as="geometry" />
        </mxCell>
        <mxCell id="bp1fWxQ0l9jFslw9E3at-26" value="&lt;div&gt;CBOW&lt;/div&gt;&lt;div&gt;完形填空式&lt;/div&gt;" style="whiteSpace=wrap;html=1;" parent="1" vertex="1">
          <mxGeometry x="880" y="500" width="80" height="30" as="geometry" />
        </mxCell>
        <mxCell id="bp1fWxQ0l9jFslw9E3at-30" value="" style="shape=table;startSize=0;container=1;collapsible=0;childLayout=tableLayout;fontSize=16;" parent="1" vertex="1">
          <mxGeometry x="980" y="480" width="380" height="159.99999999999977" as="geometry" />
        </mxCell>
        <mxCell id="bp1fWxQ0l9jFslw9E3at-31" value="" style="shape=tableRow;horizontal=0;startSize=0;swimlaneHead=0;swimlaneBody=0;strokeColor=inherit;top=0;left=0;bottom=0;right=0;collapsible=0;dropTarget=0;fillColor=none;points=[[0,0.5],[1,0.5]];portConstraint=eastwest;fontSize=16;" parent="bp1fWxQ0l9jFslw9E3at-30" vertex="1">
          <mxGeometry width="380" height="38" as="geometry" />
        </mxCell>
        <mxCell id="bp1fWxQ0l9jFslw9E3at-32" value="" style="shape=partialRectangle;html=1;whiteSpace=wrap;connectable=0;strokeColor=inherit;overflow=hidden;fillColor=none;top=0;left=0;bottom=0;right=0;pointerEvents=1;fontSize=16;" parent="bp1fWxQ0l9jFslw9E3at-31" vertex="1">
          <mxGeometry width="127" height="38" as="geometry">
            <mxRectangle width="127" height="38" as="alternateBounds" />
          </mxGeometry>
        </mxCell>
        <mxCell id="bp1fWxQ0l9jFslw9E3at-33" value="FastText" style="shape=partialRectangle;html=1;whiteSpace=wrap;connectable=0;strokeColor=inherit;overflow=hidden;fillColor=none;top=0;left=0;bottom=0;right=0;pointerEvents=1;fontSize=16;" parent="bp1fWxQ0l9jFslw9E3at-31" vertex="1">
          <mxGeometry x="127" width="126" height="38" as="geometry">
            <mxRectangle width="126" height="38" as="alternateBounds" />
          </mxGeometry>
        </mxCell>
        <mxCell id="bp1fWxQ0l9jFslw9E3at-34" value="CBOW" style="shape=partialRectangle;html=1;whiteSpace=wrap;connectable=0;strokeColor=inherit;overflow=hidden;fillColor=none;top=0;left=0;bottom=0;right=0;pointerEvents=1;fontSize=16;" parent="bp1fWxQ0l9jFslw9E3at-31" vertex="1">
          <mxGeometry x="253" width="127" height="38" as="geometry">
            <mxRectangle width="127" height="38" as="alternateBounds" />
          </mxGeometry>
        </mxCell>
        <mxCell id="bp1fWxQ0l9jFslw9E3at-35" value="" style="shape=tableRow;horizontal=0;startSize=0;swimlaneHead=0;swimlaneBody=0;strokeColor=inherit;top=0;left=0;bottom=0;right=0;collapsible=0;dropTarget=0;fillColor=none;points=[[0,0.5],[1,0.5]];portConstraint=eastwest;fontSize=16;" parent="bp1fWxQ0l9jFslw9E3at-30" vertex="1">
          <mxGeometry y="38" width="380" height="42" as="geometry" />
        </mxCell>
        <mxCell id="bp1fWxQ0l9jFslw9E3at-36" value="输入层" style="shape=partialRectangle;html=1;whiteSpace=wrap;connectable=0;strokeColor=inherit;overflow=hidden;fillColor=none;top=0;left=0;bottom=0;right=0;pointerEvents=1;fontSize=16;" parent="bp1fWxQ0l9jFslw9E3at-35" vertex="1">
          <mxGeometry width="127" height="42" as="geometry">
            <mxRectangle width="127" height="42" as="alternateBounds" />
          </mxGeometry>
        </mxCell>
        <mxCell id="bp1fWxQ0l9jFslw9E3at-37" value="文本所有词，词缀" style="shape=partialRectangle;html=1;whiteSpace=wrap;connectable=0;strokeColor=inherit;overflow=hidden;fillColor=none;top=0;left=0;bottom=0;right=0;pointerEvents=1;fontSize=16;" parent="bp1fWxQ0l9jFslw9E3at-35" vertex="1">
          <mxGeometry x="127" width="126" height="42" as="geometry">
            <mxRectangle width="126" height="42" as="alternateBounds" />
          </mxGeometry>
        </mxCell>
        <mxCell id="bp1fWxQ0l9jFslw9E3at-38" value="中心词的上下文" style="shape=partialRectangle;html=1;whiteSpace=wrap;connectable=0;strokeColor=inherit;overflow=hidden;fillColor=none;top=0;left=0;bottom=0;right=0;pointerEvents=1;fontSize=16;" parent="bp1fWxQ0l9jFslw9E3at-35" vertex="1">
          <mxGeometry x="253" width="127" height="42" as="geometry">
            <mxRectangle width="127" height="42" as="alternateBounds" />
          </mxGeometry>
        </mxCell>
        <mxCell id="bp1fWxQ0l9jFslw9E3at-39" value="" style="shape=tableRow;horizontal=0;startSize=0;swimlaneHead=0;swimlaneBody=0;strokeColor=inherit;top=0;left=0;bottom=0;right=0;collapsible=0;dropTarget=0;fillColor=none;points=[[0,0.5],[1,0.5]];portConstraint=eastwest;fontSize=16;" parent="bp1fWxQ0l9jFslw9E3at-30" vertex="1">
          <mxGeometry y="80" width="380" height="42" as="geometry" />
        </mxCell>
        <mxCell id="bp1fWxQ0l9jFslw9E3at-40" value="中间层" style="shape=partialRectangle;html=1;whiteSpace=wrap;connectable=0;strokeColor=inherit;overflow=hidden;fillColor=none;top=0;left=0;bottom=0;right=0;pointerEvents=1;fontSize=16;" parent="bp1fWxQ0l9jFslw9E3at-39" vertex="1">
          <mxGeometry width="127" height="42" as="geometry">
            <mxRectangle width="127" height="42" as="alternateBounds" />
          </mxGeometry>
        </mxCell>
        <mxCell id="bp1fWxQ0l9jFslw9E3at-41" value="词的embedding加权平均" style="shape=partialRectangle;html=1;whiteSpace=wrap;connectable=0;strokeColor=inherit;overflow=hidden;fillColor=none;top=0;left=0;bottom=0;right=0;pointerEvents=1;fontSize=16;" parent="bp1fWxQ0l9jFslw9E3at-39" vertex="1">
          <mxGeometry x="127" width="126" height="42" as="geometry">
            <mxRectangle width="126" height="42" as="alternateBounds" />
          </mxGeometry>
        </mxCell>
        <mxCell id="bp1fWxQ0l9jFslw9E3at-42" value="词的embedding加权平均" style="shape=partialRectangle;html=1;whiteSpace=wrap;connectable=0;strokeColor=inherit;overflow=hidden;fillColor=none;top=0;left=0;bottom=0;right=0;pointerEvents=1;fontSize=16;" parent="bp1fWxQ0l9jFslw9E3at-39" vertex="1">
          <mxGeometry x="253" width="127" height="42" as="geometry">
            <mxRectangle width="127" height="42" as="alternateBounds" />
          </mxGeometry>
        </mxCell>
        <mxCell id="bp1fWxQ0l9jFslw9E3at-43" value="" style="shape=tableRow;horizontal=0;startSize=0;swimlaneHead=0;swimlaneBody=0;strokeColor=inherit;top=0;left=0;bottom=0;right=0;collapsible=0;dropTarget=0;fillColor=none;points=[[0,0.5],[1,0.5]];portConstraint=eastwest;fontSize=16;" parent="bp1fWxQ0l9jFslw9E3at-30" vertex="1">
          <mxGeometry y="122" width="380" height="38" as="geometry" />
        </mxCell>
        <mxCell id="bp1fWxQ0l9jFslw9E3at-44" value="输出层" style="shape=partialRectangle;html=1;whiteSpace=wrap;connectable=0;strokeColor=inherit;overflow=hidden;fillColor=none;top=0;left=0;bottom=0;right=0;pointerEvents=1;fontSize=16;" parent="bp1fWxQ0l9jFslw9E3at-43" vertex="1">
          <mxGeometry width="127" height="38" as="geometry">
            <mxRectangle width="127" height="38" as="alternateBounds" />
          </mxGeometry>
        </mxCell>
        <mxCell id="bp1fWxQ0l9jFslw9E3at-45" value="文本类别" style="shape=partialRectangle;html=1;whiteSpace=wrap;connectable=0;strokeColor=inherit;overflow=hidden;fillColor=none;top=0;left=0;bottom=0;right=0;pointerEvents=1;fontSize=16;" parent="bp1fWxQ0l9jFslw9E3at-43" vertex="1">
          <mxGeometry x="127" width="126" height="38" as="geometry">
            <mxRectangle width="126" height="38" as="alternateBounds" />
          </mxGeometry>
        </mxCell>
        <mxCell id="bp1fWxQ0l9jFslw9E3at-46" value="中心词" style="shape=partialRectangle;html=1;whiteSpace=wrap;connectable=0;strokeColor=inherit;overflow=hidden;fillColor=none;top=0;left=0;bottom=0;right=0;pointerEvents=1;fontSize=16;" parent="bp1fWxQ0l9jFslw9E3at-43" vertex="1">
          <mxGeometry x="253" width="127" height="38" as="geometry">
            <mxRectangle width="127" height="38" as="alternateBounds" />
          </mxGeometry>
        </mxCell>
        <mxCell id="bp1fWxQ0l9jFslw9E3at-47" value="得益于词缀n-gram共享，低频词的特征生成会更好" style="text;html=1;align=center;verticalAlign=middle;resizable=0;points=[];autosize=1;strokeColor=none;fillColor=none;" parent="1" vertex="1">
          <mxGeometry x="1040" y="640" width="290" height="30" as="geometry" />
        </mxCell>
        <mxCell id="bp1fWxQ0l9jFslw9E3at-48" value="Bert&lt;div&gt;动态词向量&lt;/div&gt;" style="whiteSpace=wrap;html=1;" parent="1" vertex="1">
          <mxGeometry x="1480" y="400" width="120" height="60" as="geometry" />
        </mxCell>
        <mxCell id="1zJf-3JaiFk__ZrVRrUH-2" value="缺点：只考虑序列关系，没有考虑数据与对象之间呈现的更多是复杂的图关系，&lt;div&gt;&lt;br&gt;&lt;/div&gt;" style="text;html=1;align=center;verticalAlign=middle;resizable=0;points=[];autosize=1;strokeColor=none;fillColor=none;" parent="1" vertex="1">
          <mxGeometry x="1040" y="700" width="440" height="40" as="geometry" />
        </mxCell>
        <mxCell id="1zJf-3JaiFk__ZrVRrUH-4" value="图表征i2i召回：对图结构中的节点进行embedding化，&lt;div&gt;最终生成的embedding节点包含图的全局结构信息，邻居节点的局部相似度信息&lt;/div&gt;" style="text;html=1;align=center;verticalAlign=middle;resizable=0;points=[];autosize=1;strokeColor=none;fillColor=none;" parent="1" vertex="1">
          <mxGeometry x="995" y="760" width="440" height="40" as="geometry" />
        </mxCell>
        <mxCell id="1zJf-3JaiFk__ZrVRrUH-6" value="wordEmbedding&lt;div&gt;&lt;br&gt;&lt;/div&gt;" style="text;html=1;align=center;verticalAlign=middle;resizable=0;points=[];autosize=1;strokeColor=none;fillColor=none;" parent="1" vertex="1">
          <mxGeometry x="1510" y="340" width="110" height="40" as="geometry" />
        </mxCell>
        <mxCell id="1zJf-3JaiFk__ZrVRrUH-7" value="DeepWalk&lt;div&gt;随机游走图表征&lt;/div&gt;" style="whiteSpace=wrap;html=1;" parent="1" vertex="1">
          <mxGeometry x="820" y="800" width="120" height="60" as="geometry" />
        </mxCell>
        <mxCell id="1zJf-3JaiFk__ZrVRrUH-9" value="将行为序列转化为行为图，&lt;div&gt;通过随机游走算法得到相似度&lt;/div&gt;" style="text;html=1;align=center;verticalAlign=middle;resizable=0;points=[];autosize=1;strokeColor=none;fillColor=none;" parent="1" vertex="1">
          <mxGeometry x="850" y="870" width="180" height="40" as="geometry" />
        </mxCell>
        <mxCell id="1zJf-3JaiFk__ZrVRrUH-10" value="&lt;div&gt;EGES&lt;/div&gt;&lt;div&gt;阿里淘宝billion-scale&lt;/div&gt;" style="whiteSpace=wrap;html=1;" parent="1" vertex="1">
          <mxGeometry x="1190" y="800" width="120" height="60" as="geometry" />
        </mxCell>
        <mxCell id="1zJf-3JaiFk__ZrVRrUH-11" value="对于已有的item如商品，对其补充信息包含物品的类别等embedding,&lt;div&gt;融合形成最终的embedding&lt;/div&gt;" style="text;html=1;align=center;verticalAlign=middle;resizable=0;points=[];autosize=1;strokeColor=none;fillColor=none;" parent="1" vertex="1">
          <mxGeometry x="1055" y="875" width="380" height="40" as="geometry" />
        </mxCell>
        <mxCell id="1zJf-3JaiFk__ZrVRrUH-12" value="可以有效解决推荐系统的冷启动问题：由于缺乏足够的用户数据，&lt;div&gt;导致推荐算法难以做出个性化推荐&lt;/div&gt;" style="text;html=1;align=center;verticalAlign=middle;resizable=0;points=[];autosize=1;strokeColor=none;fillColor=none;" parent="1" vertex="1">
          <mxGeometry x="1060" y="930" width="370" height="40" as="geometry" />
        </mxCell>
        <mxCell id="1zJf-3JaiFk__ZrVRrUH-13" value="" style="endArrow=classic;html=1;rounded=0;exitX=1;exitY=0.5;exitDx=0;exitDy=0;entryX=0;entryY=0.5;entryDx=0;entryDy=0;" parent="1" source="1zJf-3JaiFk__ZrVRrUH-7" target="1zJf-3JaiFk__ZrVRrUH-10" edge="1">
          <mxGeometry width="50" height="50" relative="1" as="geometry">
            <mxPoint x="860" y="770" as="sourcePoint" />
            <mxPoint x="910" y="720" as="targetPoint" />
          </mxGeometry>
        </mxCell>
        <mxCell id="1zJf-3JaiFk__ZrVRrUH-14" value="在生成embedding的过程中补充item基础信息" style="text;html=1;align=center;verticalAlign=middle;resizable=0;points=[];autosize=1;strokeColor=none;fillColor=none;" parent="1" vertex="1">
          <mxGeometry x="930" y="830" width="260" height="30" as="geometry" />
        </mxCell>
        <mxCell id="1zJf-3JaiFk__ZrVRrUH-15" value="&lt;div&gt;Node2Vec&lt;/div&gt;" style="whiteSpace=wrap;html=1;" parent="1" vertex="1">
          <mxGeometry x="820" y="1010" width="120" height="60" as="geometry" />
        </mxCell>
        <mxCell id="1zJf-3JaiFk__ZrVRrUH-16" value="" style="endArrow=classic;html=1;rounded=0;exitX=0.25;exitY=1;exitDx=0;exitDy=0;entryX=0.25;entryY=0;entryDx=0;entryDy=0;" parent="1" source="1zJf-3JaiFk__ZrVRrUH-7" target="1zJf-3JaiFk__ZrVRrUH-15" edge="1">
          <mxGeometry width="50" height="50" relative="1" as="geometry">
            <mxPoint x="1290" y="1000" as="sourcePoint" />
            <mxPoint x="1340" y="950" as="targetPoint" />
          </mxGeometry>
        </mxCell>
        <mxCell id="1zJf-3JaiFk__ZrVRrUH-17" value="通过调整随机游走策略&lt;div&gt;使得节点embedding体现网络同质性或结构性&lt;/div&gt;" style="text;html=1;align=center;verticalAlign=middle;resizable=0;points=[];autosize=1;strokeColor=none;fillColor=none;" parent="1" vertex="1">
          <mxGeometry x="760" y="950" width="260" height="40" as="geometry" />
        </mxCell>
        <mxCell id="1zJf-3JaiFk__ZrVRrUH-18" value="同质性:距离相近的节点向量更接近，深度有限搜索，如新闻推荐场景中的同类别新闻，同类别岗位；&lt;div&gt;结构性：结构相似的节点向量更接近，广度优先搜索，一些热点新闻，相似能力结构的岗位/简历&lt;/div&gt;" style="text;html=1;align=center;verticalAlign=middle;resizable=0;points=[];autosize=1;strokeColor=none;fillColor=none;" parent="1" vertex="1">
          <mxGeometry x="770" y="1080" width="550" height="40" as="geometry" />
        </mxCell>
        <mxCell id="1zJf-3JaiFk__ZrVRrUH-20" value="" style="shape=flexArrow;endArrow=classic;html=1;rounded=0;" parent="1" edge="1">
          <mxGeometry width="50" height="50" relative="1" as="geometry">
            <mxPoint x="1410" y="1120" as="sourcePoint" />
            <mxPoint x="1410" y="1180" as="targetPoint" />
          </mxGeometry>
        </mxCell>
        <mxCell id="1zJf-3JaiFk__ZrVRrUH-21" value="捕捉图结构信息有限，考虑使用神经网络对深度图模型的拓扑空间特征进行提取" style="text;html=1;align=center;verticalAlign=middle;resizable=0;points=[];autosize=1;strokeColor=none;fillColor=none;" parent="1" vertex="1">
          <mxGeometry x="950" y="1180" width="440" height="30" as="geometry" />
        </mxCell>
        <mxCell id="1zJf-3JaiFk__ZrVRrUH-23" value="" style="edgeStyle=elbowEdgeStyle;elbow=vertical;endArrow=classic;html=1;curved=0;rounded=0;endSize=8;startSize=8;entryX=0.5;entryY=0;entryDx=0;entryDy=0;" parent="1" source="1zJf-3JaiFk__ZrVRrUH-21" target="1zJf-3JaiFk__ZrVRrUH-24" edge="1">
          <mxGeometry width="50" height="50" relative="1" as="geometry">
            <mxPoint x="940" y="1250" as="sourcePoint" />
            <mxPoint x="860" y="1260" as="targetPoint" />
          </mxGeometry>
        </mxCell>
        <mxCell id="1zJf-3JaiFk__ZrVRrUH-24" value="基于空间域(GraphSAGE)" style="whiteSpace=wrap;html=1;" parent="1" vertex="1">
          <mxGeometry x="810" y="1250" width="120" height="60" as="geometry" />
        </mxCell>
        <mxCell id="1zJf-3JaiFk__ZrVRrUH-25" value="基于谱域(GCN)" style="whiteSpace=wrap;html=1;" parent="1" vertex="1">
          <mxGeometry x="1240" y="1250" width="120" height="60" as="geometry" />
        </mxCell>
        <mxCell id="1zJf-3JaiFk__ZrVRrUH-26" value="" style="edgeStyle=elbowEdgeStyle;elbow=vertical;endArrow=classic;html=1;curved=0;rounded=0;endSize=8;startSize=8;entryX=0.5;entryY=0;entryDx=0;entryDy=0;exitX=0.498;exitY=0.889;exitDx=0;exitDy=0;exitPerimeter=0;" parent="1" source="1zJf-3JaiFk__ZrVRrUH-21" target="1zJf-3JaiFk__ZrVRrUH-25" edge="1">
          <mxGeometry width="50" height="50" relative="1" as="geometry">
            <mxPoint x="1180" y="1220" as="sourcePoint" />
            <mxPoint x="880" y="1260" as="targetPoint" />
            <Array as="points">
              <mxPoint x="1240" y="1230" />
            </Array>
          </mxGeometry>
        </mxCell>
        <mxCell id="1zJf-3JaiFk__ZrVRrUH-27" value="&lt;div&gt;问题&lt;/div&gt;1. 按照什么条件寻找节点的邻居&lt;div&gt;2. 按照什么方式处理包含不同数目邻居的特征&lt;/div&gt;" style="whiteSpace=wrap;html=1;" parent="1" vertex="1">
          <mxGeometry x="730" y="1320" width="270" height="50" as="geometry" />
        </mxCell>
        <mxCell id="1zJf-3JaiFk__ZrVRrUH-28" value="图神经网络的中心思想是：通过卷积操作聚合邻居embedding信息&lt;div&gt;由于邻居个数顺序不定，所以类似于图片傅里叶变换，先在频域上定义卷积卷积再转换到空间域&lt;/div&gt;" style="text;html=1;align=center;verticalAlign=middle;resizable=0;points=[];autosize=1;strokeColor=none;fillColor=none;" parent="1" vertex="1">
          <mxGeometry x="1060" y="1320" width="530" height="40" as="geometry" />
        </mxCell>
        <mxCell id="1zJf-3JaiFk__ZrVRrUH-29" value="&lt;div&gt;缺点---&amp;gt;导致不实用，无法落地&lt;/div&gt;1. 每次训练需要一次性载入所有拉普拉斯矩阵（图矩阵和邻接矩阵）&lt;div&gt;2. 新增节点时需要重新训练&lt;/div&gt;" style="whiteSpace=wrap;html=1;" parent="1" vertex="1">
          <mxGeometry x="1140" y="1370" width="390" height="60" as="geometry" />
        </mxCell>
        <mxCell id="1zJf-3JaiFk__ZrVRrUH-30" value="1. 对图中每个节点的邻居节点进行采样&lt;div&gt;2.根据聚合函数生成当前节点embedding&lt;/div&gt;&lt;div&gt;3.预测输出概率&lt;/div&gt;" style="whiteSpace=wrap;html=1;" parent="1" vertex="1">
          <mxGeometry x="730" y="1460" width="270" height="50" as="geometry" />
        </mxCell>
        <mxCell id="1zJf-3JaiFk__ZrVRrUH-31" value="" style="endArrow=classic;html=1;rounded=0;exitX=0.5;exitY=0;exitDx=0;exitDy=0;" parent="1" source="1zJf-3JaiFk__ZrVRrUH-30" target="1zJf-3JaiFk__ZrVRrUH-27" edge="1">
          <mxGeometry width="50" height="50" relative="1" as="geometry">
            <mxPoint x="1090" y="1370" as="sourcePoint" />
            <mxPoint x="1140" y="1320" as="targetPoint" />
          </mxGeometry>
        </mxCell>
        <mxCell id="1zJf-3JaiFk__ZrVRrUH-33" value="使用邻居节点信息表达目标节点，模型可拓展，实用性强" style="text;html=1;align=center;verticalAlign=middle;resizable=0;points=[];autosize=1;strokeColor=none;fillColor=none;" parent="1" vertex="1">
          <mxGeometry x="730" y="1398" width="320" height="30" as="geometry" />
        </mxCell>
        <mxCell id="1zJf-3JaiFk__ZrVRrUH-35" value="" style="shape=curlyBracket;whiteSpace=wrap;html=1;rounded=1;labelPosition=left;verticalLabelPosition=middle;align=right;verticalAlign=middle;" parent="1" vertex="1">
          <mxGeometry x="690" y="360" width="20" height="1180" as="geometry" />
        </mxCell>
        <mxCell id="1zJf-3JaiFk__ZrVRrUH-36" value="&lt;font style=&quot;font-size: 20px;&quot;&gt;&amp;nbsp;u2i:content-based生成user embedding然后直接用于召回&lt;/font&gt;" style="rounded=0;whiteSpace=wrap;html=1;" parent="1" vertex="1">
          <mxGeometry x="70" y="1000" width="250" height="90" as="geometry" />
        </mxCell>
        <mxCell id="1zJf-3JaiFk__ZrVRrUH-38" value="" style="shape=image;verticalLabelPosition=bottom;labelBackgroundColor=default;verticalAlign=top;aspect=fixed;imageAspect=0;image=data:image/png,iVBORw0KGgoAAAANSUhEUgAAA7wAAAMxCAYAAADIbb8xAAAAAXNSR0IArs4c6QAAAARnQU1BAACxjwv8YQUAAAAJcEhZcwAADsMAAA7DAcdvqGQAAP+lSURBVHhe7N0FYFPXHgbwL97i7u7u7i5jjCFzZb4xH9vYgAnz8eYuzJ1tzGC4M9zd3d3axt/5n9y0SZpCWwqk9Pvt3dfk3pubpEByv3vO+R/Tzn1H/RAmM8xmi1rMsNstgM8Dj9sDt8eHwA4hTBZYrDY4bBaYTMY6IiIiIiIiogzy+7zwOpPg8qnbssJsVXnTijiVN8/I61aZ1Q2nNyWxmiw2WG022C2BoGpWq1RoNekD2uMc6qBmWHxuuJxqiRJ2TSoYWywWFYqtxhoiIiIiIiKizJFGVLNKpsn8KoXK/yLDaASzxazCrQrHxn3h9/ng86ocazxWpVeVfh1xcKgdrfDC5PcgwemBxxfl6JKW7Q44VNg1qSOwdZeIiIiIiIjOlSk08fqlqVeFVhU4zxR6fSrq+k1mSENwcjT1e9VDPZJs9WPNcQ6rStOBVl69Xa31hR1VbVNB1+FwIE4FXauxL8MuERERERERnSvJl9Jaq6KmwQ+vzwuXx2vcT5sMybXabZAezMGH+3w+uN0efdtskYMH06vkXJNVt/ZazBZYrTbY1YNtVrkt62ScL5MuERHR+SJf0l6vV/8kIiLKEfySVlXelIZVY5X6IoRPBV79bXiGVl4dc81Gw6yxRpp2pWuzHDa0p7RuDtZNwtKSa7PpkGtTPyXwEhERUXQ7d+zQIfVcbVi/Dq2aNUDRAvFo06IR9u3dq3teERERXcp012UZbWuRxlhjpVojXZM9XhV8k9el5lcx16+SrTw22I6rSeBVP8ICr6b28vmlRdeiHpR6MxEREaU4ffoUrr+mL+bMnmmsyThpzR039m9cO6CPDr3StWvd2jXo0aUdZs6YxtBLREQ5gs0mw23Dx/LKzEFShOqMVNCVwsrBYbo6LKv/pCwVEy0REdE5GPv3X1i9aiV++uFbeDyB8UIZIWF2wvhxuOeOW7F9+zZ06tINC5auRt169bFjx3bcOfAmrFm9ytibiIjoEqXCqhdWWK0mWENTqs8NmXUoWk3lMObAUN2URl6fNPIy8BIREWVWQsJp/PzT9/r2hH/HYdvWLfp2esnjP3zvbdx1280oUqQIXnn9TXz17Y+oXLkKfv1jLB57/Cm9X++eXfD7r79kKlATERFlGyqwSkut1I4K7Z3sdavQK4k3dGUq0Teajpx0sZ8UERFRJiyYP1eHUbf6Ihbde/TCj6PH6Nvp8eP33+LhB+5Bs+Yt8cEno1C2bLmQ7liBrs5LlyzCzTdcjaTEJPw7aTqqVa9hbCUiIrr0mOCD3+uBy+WBO7lZ1wSz1abn3LVFLaLsh9nnRpIz5DFSmyounoGXiIgoM5ISE9H7sq5YvGiBsSbgr3GT0KZte+PemR06dBDTpkzGFX36whEXZ6xN7dixo5g5fRq69+ylpwkkIiK6pPlk3K4XThV6k0fvqgBrsUhR5UCtKSlvoaOvrnMhFZ3dcLq9RtdnKWBlgT3ewcBLRESUGb/+8hPuvuOWVAWl+va/Ch9+POqMAVbs37cXp06fNu4FSKGO4sWLI1eu3Pr+nt27kZiUqG8HxcfFo2SpUmEtwURERNmHP5BRRdiY23B+nxdelxMur5SfCgoGWbsemxsIvF6YVEBOcHlTjiv7mW2IyxXYj4iIiDLgxInj+PbrL1KFXTFj2lRs3LjBuJe2jz98Hx3bNEfTBrWSl+uuuhIrVyw39gBef/VFdGnfKnl762YN8NILzyR3oSYiIspOzPDKgFw4ExORmOg647hcs0W6JNtgDQvFEpY9cKnHS0+rRPmZ5IoIu4rJDLPNqoKwD5Ynnx7+nLGaiIiI0mHe3P/w3rtvwhMleMqXr3RB7nNlf2NNdM2at0BcfJyezkjG6hYrXgJj/h6P6jVq6oIdom37DnDEOTB71gwdrqWI1eNDhiJPnrx6OxERUXZgNvvgcbnh8XjhVotXp1O1mC0wq3CaVqclkwRX9Z1o1kE3tKU3Rap1JgssNhvs1kDVZrbwEhERZYC0rr7x+itITEgw1qQ25rfRmD/vP+NedNJtuW+/q1GqVGl9X+a/L1euPGzqSzood+48ansZ3dW5Zq3aGHj7nShUqLCxlYiIKMb5fPB73HC7PHqmAR12kwtR+fX8ur7k+5FMKuRK12QVeK1WOKRglSWtDtABJhnja7fBqvaTsCsYeImIiDJg1YrluhW3UeOmqN+gYVgRqYoVK6Fxk2Z6kWJUZ5tGqHSZMmjXoZO+vXfPHixZvFDfDiVFsVwuF3pe1htFixU31hIREWWOroLsV0HTq8Jn8qLuS6vrmfNkugWeI3Bsj8eFJKcbHhVsg9FWWm4tKsQGCi6nFXhTmFWQlf1tKvTqaYvSWKw2Cbvqpzkl5rJoFRERUSZJleXundpiqzH/7oeffIFrr79R306vVStXoEObZrpb8/U33Iz3PvpMnQgEzjgkMDepXxN79+7BwmVrdAswERFR5ki3YBUeTV7d4upye0OipgqJdmkdlXGv/uTvoYwznkPG2brV4kmusWyQFlszzGYr7HbpzpxFCfsM2MJLRER0EdWpWw/NW7TSt/+bMwv79u7Vt8UP332NHTu2Y+DtdzHsEhFRpkmLq8nrQlJSIhISXBFhV3jhcantp5PUPm74VA71ZzCLynPooCvPoY6ROuxKqLYjLlfcBQu7goGXiIjoIrvx5oH65779+7By5TJ925mUhGeGDkG+fPnxyGNP6HVEREQZJnPaetxIcnn1eFnpuhy9i6+0zso+XjidHvjTHFubms/r0YE5UT1Oxujq7tHJTLDYHHA47LBZpQCVtDJfmLArGHiJiIiySLRpitKjcZOmKFW6tJ5iQcb+ignjx+HkyRPo0q07ChQspNcRERFlhEkFWL/Pp1t0ZQxtGKmAbLXBag6d9kf4VEBWAdYbGVxTkxZdrwrTMgTH5VHP4fWlhGnj+A67DXY99lbdl6Cbua/KTGPgJSIiusgqVKyE6jVq6dt//fm7LlL177i/dYCW6Y1CC2MRERGll98nRaNUeA0JuzKG1mKxwmpVi80Om82iF0to8FVB2eP1qsBr3D8D3bqrwm7KvnJ8dTw5vn4Omwq66nkvXKNuGAZeIiKii8xut2PAVdfq21Kt+ZuvRmHG9KmoUKEiOnftptcTERFliN8Pr1ctYak10L3Y7nDollebSoNmq7odZ9fT/oSGQ7+01qrHnynz+kzqMRKgjTArYTowNZAdcXJ8y8WPmwy8REREWeTMpwVn1qdvPxQ0ui6/8NxwXbzqlZFv6vl6iYiIMkSFXYvJq37IdEPGOhV2zSrsShfmwHRAKXxSpUrCsCVwX1PH0IWrIneOYLVZdEuutBrb4+IRb1e3Q6YFutgYeImIiDJJpm3I/NQN4STY3nzr7fq2jN2tV78BunW/TN8nIiLKEPlqUmHXK6E1sEa+tGCxypRA0b63VAhWyTBVManQx6dJHdNmg91u0y29prME5AuNgZeIiChG9BtwNfLmzae7h/Xtf1WWhWkiIsqBJKmGtO7Kor9X0vhqUdk2fMyu2ldf2JUNZ+BXkdIkBaqkO7OxLpYw8BIREWWRzFZpDipevDjKlC2rQ2+Pnpcba4mIiDIhkHEN8v3k19MSRf2q8nvh9fkixvvK/l74vD5EzqibnTDwEhERxYj58+dhy5bNuLx3H1StVt1YS0REOZZ0KQ5ZzjZNUDLZzSTFpEIrL/vhcXt0gJXD6CMFj2tMLeQNy7tetb8LTqdLBWEZ56v2NTZlJwy8REREWSW9JyKKT66ke73GPeD06VN4+slHYbVYMeLl13TXMCIiysHUd4oUnvK4nHqe9iQVPD0+U/pCrwq6Xr8l0NU4tJXX64ZLHcelwq1uvXWr48qx3T51bGO3CDK1kTtJ7ZPkDrQAx2K/5TPgtykREdE5yOw4299G/4xhTz2Ogwf24/jxYxgy+BE9JdFd9wxKrtZMREQ5kM8Dr0eFXJcLCU63MR+uHz710+NK0nO1J+n1Z+lorL6fpEiV1RI6tlZadL0q9waCr9MTaDU+25Acqfbs93vgdqvXdrbnjTEMvERERBfBksUL8clH76N180Zo1awBfvj+G5QpUxYDb7/L2IOIiHIavwq7Oti6VSj1eODxhE4rpIKpL7De65VQLNvV/mfIqiazBVabDTarJSz46emKfKHHFia9v81hh90WmJfXElZxWUK3ek4VeMPH+sY2Bl4iIqKL6NChgzh44ACaNmuBL775QRetIiKinMcEH/wqULrcKlSeLVCqwOrxuNW+brglgOpWWmNbCF1B2WKGzW6F1WKBRRYVYlP1TZKuzxa1j1WFY7sdVrtNhV6LWgJz6ibvL1MdeVQgZ+AlIiKiM7n7vgfw2Rff4o2338cf/0zA6DF/o1HjpsZWIiLKWfwweVV49Uh4NVYJKTqVajG2KX6fCr6uJKgMmmYlZb9fRT6TFba4OMSpxaYCcORUuSYJuyrcSsg1qTArm33qMbIu3qF+BnbTdAEttU92ibwMvERERFnkbGOgQlWoUBH9r7pGd2Fu1bqtnoqIiIhyJvn6cKvUGlaQymSBPS4ecfHxiA8ucQ7EWU3hgVU9RgpbZbqKstkGu9Wig3AknwrLPhV/LRb1cox1+sXKol5Epp7vAmPgJSIiIiIiukhMJj/MZp/0FtY5MrBSuiJbYVEp0yT/BVt3zRaYrHbE2aywhqZevzcdBaUCz2PcNMgTqOcKbTaOoLel2hw4QNqPih0MvEREROfiDCcJRERE6WGSIlKhzaXqu8VsUeFWh11jncFktqowbNGFqCQQB+mCV+ogYccJI0eTsb4RLcFyjDS+ymRcsR63Kz+MdfKCTDKuNzmdxzYGXiIioiySkS7NREREAeq7Q31/SNtr8FtEoqmejz2ta6oq9FqkGFV44tVTGOlwGvVxEnQlQMvRQ8h3V5SvL11ES46pi1QZKxUJu+rFRX1MLGLgJSIiIiIiumgkfgZCaEoQPXualOBpsarga9wXfj2lkVsH29RUhPUF4l9Kq7F6HmOe3+RnlNsSgn1euF1uON3ekFejnlO3LmefGMnAS0REREREdDFFtroqMk/umXKvT6KuCr0OW8i0QbpVVgVVj/w0VkWQlmFTWNUrL1xOJ9wq2PpkILHHiaTERCQkueEKbdpVTBKwZRxx2v2mYw4DLxERURZhl2YiIsoo3ZgqLacqmQVjqB5ne8YCVAHSymu2yVjelMAsUwb5pFVWkl5kilZk/K/MrRsWBKXrstsFp9OFJKNadFjFaGGxwaYDrz/VuOJYxsBLRERERER00aj06JcxuzK+1lglgdfn0XPyRubOMOpxJpMVdqvMrZv8YPjUYz3qwVEfq/aT+XWl6FVoGJTxuj5jDHAok8kMq92hnsMWqBqdndKuwsBLRERERER0MakMaZauxiGh1e/zqtDqO1OvZrVNSktJgFXhNTnZSUqWYlPSrTn1o/3S9Kt2ttqtsBrz76bOsBLALWq7Crk2G2x2G6wq7Uooz24YeImIiLIIuzQTEVGmqK8PmYbIIq28xipZ6fXIVENn79oMeawpvJuy7hZt3I6kQ6/JqoKsA/EOmdM3ELZTFhWEHQ444uxw2Kwwq2OlDsXZAwMvERHROchuXbuIiCgGqe8Sr9+iW3llLG8yn1t3TfaesUiUeqxP5u2VFlhjlZDHnO06rDwvVPB1xCE+Pj5ksevwfdbHZwMMvERERERERBebCp8WqwVWS/jYWt3KKz2Iznh9VW2U/yVfhFX7Gy3D0efkDaEeE966ayzG5uyOgZeIiCiLsEszERGdE1Ngnltr6FhZvxcejxfus0wFJBE1MqRK5L1UgmtmMfASERERERHFgMDY2kBLb0pQ8weqJ3t8qacKCqHH7EZslmPk9EuxDLxERERZhC28RER0zsxWmCxW2CwhrbN+FXjdbri80lM59XeNnlJI5t9N/h5SjzQG9Jpy+FcTAy8REREREVEMkel/ZCqgsFmAVOj1uZKQ5PGFFbGSsAuPU09hJPP2JpMH5/T+zAoDLxERUSYFC3sQERGli4RWtwqtziQ4Pd40qy/7/Sb4zRbE2a2BaskGCbd+jwtulxNJSeo4anG6XOpYEZWc1XeTzLHL7ygGXiIioizDLs1ERBSVzwOf1w2X2wO3BF1Z3F71vaG+O6JlUh1UZZoiC+w2K6yWkIJUKvR6ZUxvcDGCc/I3kBS+stphU0HZzK8lBl4iIiIiIsqZTPDpoHherleqg8rxfT6vLjrldrnhVoHXE5gtSOVWCapq2xn6HftMKuxaLbBZJfSqAHzGBlsVis1mWCUgq0Xvesb9cwYGXiIiIiIiymFUwvWpqOn1wOuV6sem81DNWIVpnweupCQkuiTohjyDHhIjVZXVYgTgtPikpVdabO1WOKwmFXoDw2lSLxYVdO2wO+ywqmOrVaQw8BIREWURdmkmIop9ZpNKmCqIulUQPe30wOl06ZbWszSfZogeZ+t0IiHJHV5ISqgkarXHwxGnFptVxdn0fXeYzFaYbfGIi49HfNRFhWKLRb03fheFYuAlIiI6B3JVnYiIsgmvFHxyIUkFXbffmMbHGBPr8ZxbUNSttV4nXFKQyu2FWyXd0OugJrNFBd04xMU5YAtrqTV2SI/kx6S1qF2MXSmAgZeIiIiIiHIEn4RbXeQpMHY3QAVfFXhlyUzklXG60mLsccsYXQnOEcfXXY1tsNttsFrMsKjgKyFMwimdfwy8REREWYRdmomIsikdhAMFpTLySS6FpyQoS9h1SeCVVl1jmyRai9WqFlty0anQKYbowmDgJSIiIiKiHE66H/v0lEH+DIyB9XlU0HXKPLihlaeka7EKtxYb7I44OGwWmM2MXRcLf/NERERERERSLtnrgifQSTldZMogsyU8UlmkUnKcCrp2K0x+Vku+2Bh4iYiIsgi7NBMRxTbJtGEf1VLoSX4E7unWXY/bk/7Pc7O05Fr02FyT1Q6HwwG7Ta1TBwwWkaKLi4GXiIiIiIhyjLAoK12PzVIx2bgvXZv13LxGBeez8Ks4ZVaB126Tcboq+FqtRvVlYwe66Bh4iYiIsghbeImIshNJpSZYdOXkQEuv5jcqLctHenqCqwrNJosVtoiuzRQb+KdCRER0DqTLGhERZV8Wm023zFqM+8KvpynypXssL8UuBl4iIiIiIsqxfH7p0mxWoTf0AqYXXpluSDfzUnbGwEtERJRF2KWZiCh78ptlLK4NoZlXz7HrUYvJFF7oirIVBl4iIiIiIopNPg98Xjfcbpda5KdbF5PK8vxpMsNkMcNmVT+NVVLSWebZdbtc8OjnVq/F54OfI1myFQZeIiIiIiKKGX4VNKV1VboU+9Tidrnh0osr8FMFT49a71XhMyvH2EpNBouM5Q0pYCWvxSPPqwK3PLdbj+tl4s1OGHiJiIiyCLs0ExGdA2m5lUWFXY8zCUlJSUh0qXDrC/1s9cMr4VNtczpdapt+WJaQKYZksVkk/Borw6ggrp5L5vKl7MN05KSL385ERDHOrb7RXW6f/tJnpoodx44ewbV9u2HD+rX6/vARr2PgnYP0bYoNMrem1WKGwx6YdoSIYpfZpIKuCrgut0wJlL4vO5PZAqsjDlZz+lryvK4k9Z1qTDkkLbVmK+Ic0qqrwq7Po7a74FbftWEZO8hkhU3Pt2vmPLvZCAMvEVEMc6qQu37HSew77MTpJDkJ8MHHK8sx4/SpY3h72LXYs2ODvt//tuHodPlAfZtigDohlZArYTdvLivKFYtHhZK5VQDmmSpRbPHDbPbD65Tuyir0ZujKrkmFXhsccTZ1DHXvLA+NFnjjbSYVcH3wqpXShTqtr1mT1Q67zarCNT9DshMGXiKiGCQFOXbsS8TsFYfgZcCNWUmJp/DHVy/iyMHd+n6b7jeiXvPu+jbFpiIFHGhXvzDyxFvZQkMUM/ww+dxwOgPdl5PDickCq9Wse2qE8Uk4DYZWYYbN4QgvOJWG8MCryHOolCxjdVOOF520JlssFvV61OtV/5mtNv18/CyJbQy8REQxxqu+7JduOIYNO0/rrsxElLXi7GY0rVkQFUvm5okq0cWmW3NV2HQ54ZIWViOZmFQQNVutsEvglabbUCoce9weuNR3ZDDImG0O3fp6tg4cqQJvNKbAEAiTOrpUZY7evdkEqz1ehWwVfI1VFJv450NEFEPke1/C7uqtJxl2ic6TJJcP81cfxdGTLmMNEV0sJrOUifLCHRJ2JXDCYoVDBdhUYVcxW1UYlnlzjftCB9NzHvMj3aPNuuuyzW7Xz29LI0EH4rCSoe7XdDEw8BIRxZADR53YtOu0cY+IzhdpGZqx7BASnF5jDRFdFCov+lXSDY2qMj2Q1WqVVHkBqQBtsSEuVzzibeq236Pn/HV5ogVaFaHMVtjlB7uJxDwGXiKiGLJ4/VFdqIqIzr8Tpz1YvfWEcY+IYoNJBV7pxnyGIOmXcb4hY30VeYwE5bOxWFJXbDdLMao4Bxx2qwpH6qg+twq7KvB6w59DmCxWPV7YYZdWZobd7ICBl4goRuw/4sTBY+xiSXQh7TvkRCJbeYliiETMaK2qKfw+n24VTtnLpMNnelpbdeEpq1pkf+m6bAtUXpYgrAOsXHP2euALO34g6FqNbs4y1ZlMY0TZA/+kiIhixLZ97MpMdKGdSHAjIYmBl+hikpbZ0Kh6tsjr88p43dSBV4b+no3fZNGh1ybBVebUlbAr4Te4Xf7PItWYJQBLN2e13aoWFYxt8lNXada7UjbBwEtEFANkGqJjJz3GPSK6UDxeP04m8N8eUVaQqX380t1YL2cOrcmkVVaFS6t0Y5bgq3+aA9WWox1AHVhqU8n3Zgrjsca9szGZJcSqAKuSUGQ3aB2+LYGKz3YViK12B+KkC7N6QRyvmz0x8BIRxQCZ7N7DCXeJLooEJwMv0bmSsAuPE66kRCQmqp8u9e/KbFQyPgO/36TCqxXWuDjExccjPj5Oj6U1qUCbKl+qdRaTVz9XckVnibkWS+BmuhJ2+vhMVpjVcWWOXsreGHiJiGKAfJ3yK5Xo4jjnmUyIciizSQVPr1uF3CQ4XS44PX49l7wEUq9a70xU650yv24ac9mG0C2rYYuxIZSsk2Or4Bt6OBmTm9UFpEJfC2VvDLxERERERJQhMneu1+OFx+2Bxxu4rcOu3mqEXo9HLx63Gx7Z91x7MqmDez1SsMq4LwlYuj9b0gjIRAoDLxERERERZYAKtD4v3C4VZFWIPVsPJb9X5rR16dDrzWyXCj1m16efL3T8rq66LGNxjfvJ/F741GuU5wsf70s5DQMvERERERGln8+vwq4npEVXCekCLEugAJWxTRgtvk6XBNGMB1CTyQ+TCrGeiOeE2QyTZOjQQ0oTcHJXazdkentm3pyLgZeIiIiIiNLFBJ8KEB4dIpPbak0qdFodiIuLQ7wuPBWPuHgHcsXZAtWWk0l3ZA+SPCr8ZjT0yrhdrwrLIQ+TYG2VglUhz6Ffn189h3qBXrWvtC773G541RaG3pyJgZeIiCgLuF1J6mSKZ1NEdIlTn3M+FTxTPu+kJdcMm1Xmt1XBV7fsqkVihtmqgq9M/6PWG3tL66vf49KFpzKSeeXpvGFjgOV5LLBYA0cOFtByO11IdAZan4Oka7PH5YZfCluFBXDKCRh4iYgo03ZvW4N/f3kL0//5wlhz/m1c+R/Gj34X2zctVycxoSc/4Q7t24Edap/zTU76Vi6chLeHDsD2jcuMtRknx0lKOGncSz+/+h3MnfIzfvzoSf17cTkTjS3pt/S/sRgxqL1eNqjf79ns2LwCLz3UBS/c3xFLZv9jrCWinEBiZPiYWBVtZfoelSrCsqTuz2yG2WyB3a62S2GpwBb54NLjedN7kVBabVU8hke6JhvrpFXZbDHDImsk6ErxLLW4pDhWWJIOBHKL2lfPMJS+p6RLCAMvERFl2p7t6zHx1w9U6H3HWBNOTmYyu6Rl0ey/MEEFu18/e0ZPexHN9LFfYuQTl+PXUc/j9Ikjxtpw3777CD595XasWDDRWJM5B/ZswbfvPKJ+F+vw3XuP4fTJo8aW9Dt5/DB++vgpvPlUP+zettZYmz5SCXXL2oVYMO03rF40BV5P9N9JWk4cPYBJv3+Iowd3o3CxMqhSu4WxJTq3y4m/vn0Vh/Zu060p5avWM7YQUU4R9hmtg21ImI3g80swVYFXpg4K2Um6J0cWoEqLns1XClCF7qqOJa9DV4BWi9OpQm9EAS1pcbZYrOq51aJCt3pEYAPlKKYjJ138kyciushcHh8mLjiAw8ddxprsYeGMMfjhg8dhj8uN174Jb02VFtjfvxyR4QAmajRoh8uvG2zcCyetkBLOOvS+HX1uespYG27OxO/x+xcj9MnOtXe/jCbt+xpbUjxzZwsVNA+h1/WD0eXKe4y1GScnXJN+k9D/tr7f67rHAsfTJ4Hps3j23/jpwyfVyZ8bJcpUwX3PfIO8+YsaW8/M5/Xgx4+GYNHMP1CmYm312G8RnzufsfXspFVYXr/8rjr2vgMVqjcytoSTd1O9fhvMnfST/nOV912naRe06HR1mu/VarWhWt3WanP6fxcXQ+PqBVCnUvp/Z0Q5mlQ/diUhyWPER92t2AaHCpRn/Jfuk2Aqc/Ua9xWTxQarzQZbaOtvKn6YJBx7XOo5U2JL8HMl2gXS4DaLzaG7WmfxFL2UzTDwEhHFgEsx8K5fMQefvXpHpgJvoza9cdODbxn3UhzYvQWvPNJN335gxE+oVKOJblmVLrlCgqYjPjeOHtqDj1+8Vbe+Fi1ZAY+8MgbxufLqfYKG39Ecp04cxuU3PI7Ofe421qaQbrsrF0wy7p2ZhM7pY79QP70oVLQ06rfoqU8Az6Zll2v1/kmJp/Db589h0aw/9PqipSrhzic/Ua+9or5/JpkNvNIyvHbpTHzxv3vT/Wd0x5DP8OfXL+Hg3m3GmrN746f1uktjLGPgJcoAFXhlDG6iK9iaag4E3nj1medT4VSvS02PsZUqzUkq+Brr9GNV4HXEpf1Ys9kHr8sDlzP0cWcgAdzugN2sjifFtBh2czwGXiKiGHApB16H2tZ9wAMoULiksSVtE397T3fpTSvwjh/9DiaMfg8Fi5TC0Hen6JOsJXP+wbfvPKy3P//pXOQrUFTSHGaM+wp/qHAm2ve6FVfePFQu++v7YtjtTXD65DFcceMQdLziDmNtirmTf8Ivnw4z7p0fdw/9EjXqt9W3E04dx+9fPI/Fs//SrRMVVZi/++lRsDty6e1pyWzg3bhqLr5791GcOHYQFas3RtU6LbB83ngc3LcdDVr2RPFSlY09A7zqedavmK3HRcufadMO/RAXnweLZ/2Fo4d261b0IsXKGXun6Nr/Pn3SGcsYeInST8bTQgXe0y4ZgxtYI12WbY44WGTqIL1XaoFuySq8up26pTYQQEyQeXStDgdskWOADVJxWcbnOt3q+Yx1UamgK92mZZHPUJkWiUhwDC8REaWbFFU6deJI8iItk0K6lIWuDx3HarM7UK1eK9Rr3u2sS558hY1HpSbFmFbOD4y3la60Z2xBVSc6bXvcrFt3hXQZ3rNzg74dFCx4JSdqZ1OveXc0bHV58lKrUUcdEivXbKbC4WVh20KXGvXboUK1RnpcbLTtOpwbcuXJjytvHaa7FMvvc+v6xRjzVSCwZyUpcrVX/S5kzLCE3ZJlq+GGB95A2543I3e+QjpAHzm4G62734BuA+7XS+e+9+D0qWPJRbmatOuLvrcMQ4fLb0dcrjz69Uqrr4Tg4GOCS6yHXaIcSX0OSCutdDF268Wjx9Omi8qRJotZhYhgoPSrw/l1EaozJVKJwn4Jouqz22oOdmGWmg0SgtVj02TUdjDuhZOjmGG129V3jTquCrsWs3ptDLsUgt9CRESUbjJOVboKB5dpf32m13tcSWHrv37zAb0+K+1TIe340QPqhMae3Cp6JhJku/a7T/204vSJo7oFNJS0WIr0dD2+7t5XcfPDbycv9Vv0UK9lvy6add19r4VtC10q1WyCY4f36lAYbXup8jWMZwjIowJnv4HDkTd/ETRVofLy66OPYz4Xq5dMxYfP34gjB3ahUNEyuPrul1C4WGl9sWHA7c+hULGy2LZ+Cf767lXjEep35XHDLNOKqPBap0ln9Lr+MT3mV0K6vP/gYyb8+r7xCCKKNbrSsRR+0sWivHC53HCqRX66pPCTCqyyTab+OWNLqgRXaZVVKSI5SKjQKhfL5JGBVt80yAUwszUQeJPzsnqMfqwSNadKK3DItEZB6ljy+S6f4RJ27bZA2CWKxL8VRESUbseP7NfjYoOL3BdyhT50vXSLzWrbNizTrYxyJT9X3gLG2jOrWrcVipWqpF/fgqmj9Vy5QcFxq1abQ/88E5+0QKgTsuCScPqEDowyVliOE7otdElQr1cCrxTHirY9mrKV6mLwyL91EM2dt6CxNutI13J57mKlK2PQ8z/oVvpxP7+tlrewdO44VKrRWHdVzlugqF4ny+Q/PlahPS8qVGuI3CqMT/3rs+RtUuW6ZsP2iM+dXwdgaU2XOS+JKIaozzCT36s+A11wJiWpoOtCSP0nvd0rRaHUtqQktU2HXt0JORW/X633SfVjlTmTU6gKrT5pJZZbZ2exhHY5ltbbwJy80R7rM1nVvmYdsAMkLJtU0LXC5nAgzqG2ywPT88SUI3EMLxFRDMguY3j3796CUyq8BUkr4I5NK1QIjcM9T6fMxSsnIs6kRD2GV1ot7xn2FUqUqWpsTZu0Dss40cgxvBKg3njySuzZvla3lsrY1wpVG+ptUcfwGqQbnIS1nZtXoFmHAajduKNupZTiUo9dV13vc6N6nsbq+SKFjuHte+twXXU6SEL9ri2rYFPvu3bjTrqVIZrdW1er39lmHVyrR2mVvuH+kedc0CkzY3h3bVkNs/ozKlWuOsZ8OQIz//3G2HLu6jbrpluvpSU+u+AYXrqkqaAr89QmuVWoDZuf9gxMMneuXU/lY4r6GL8eW5vkDHSFTt5DhVNHvHqclEVO86kCj3WqxyZPI6QCrNWRCzJzULRGXjO8KpDL83nhs9jg0K25smdISzFRGhh4iYhiQHYsWiUtg0Nva6ID15mKVskY3uadrkbe/GmPzw2aN/kXHNq/PVXgXTF/Ar58Y5C+nZHAK6R1V86opEtckBSIGnpbY3379sc/1mOCI4UG3kZtrsCS2X/p21npfz+u03NEnovMFq0KCgZe+Z1LxerMmjPhB0z542MGXqIYIq260o05yeVWYddYmS4qSMr8tTabCqHRE6XuIu1x62JSnuRQbApUSD7LVEAWkxfORJcOvIGXJY+LV4+Tll+9IoxJuj2b/OrzTv00ujdznC6lFwMvEVEMyI6BVwLW9+8Hxpiez2mJnImn8d6z12H3tjX6fkYDbzRSYOnlhwIhd9Cz3+miUpFCA++dT32Oowf36Nti/YpZesoiCZY9rnoQljTC3bK547Bp9TwULlYWHa+401ibolXXa/HW0/11a3Gkph3647p7X9HFtT547gacPHbQ2BJOvsSly7T8nqw2O/IXKq67/0VjUdvl9xo6djgYeOs27YrOfe811mbcopljMHv8twy8RDHCZFJR0hir61JBMZn6fJALbRbdDziF9IiRaYOSd5WqxzJlkDS7ppEWTH4PPG4JvSmtvCazVY+ptejCVtFZzEbgVd99wcBrtsfBYZWCU3oFUZZh4CUiigHZLfC63U5dmGr14qn6vgTeIW/+GwhbRhfdYOC1Wm2o27w7cuc5+7jbFfMn6iluQgPvsnn/4vt3H4PHE/jdZEXg3bx2Id5XIVrIeNnS5Wvq26FCA+8rXy3VY1iDZv77tQqKL6j3WwJPvz1Rvf/oUwdJl+9pf32ux74+9OJoY224kY/3wp7t6417KZpJ4L3vVfi8Pjx/X1ucOHrA2JJ5EogfeP4nlKtSz1iTEngDhV/ijLUZJ9VePervBQMvUWwwwQuPLkjlNUKlImFXqiTL9D2RydLvhdflhDNkyiCzxQZ7vB1mFYaj5dDg3LoulwfukFZeGTJhU583epxvlKRhMXmQlOhO6dKsHnOmFl6ic8HAS0QUA7Jb4N23ayM+euGW5BAmFZGlFbN46coYcMcIHXyDgfdcxvBKi8MnLw3U6+Jz5YPLmaDnejzXwLtoxhh8/0Gg++5zH8/RrzdSegKvjM299p5XdLftaOZO+QXLVWA/U+A9cnCXDotCimr99sXz2LpucXLgVb8CrFs+S524OvU+kWR886zx32Lzmvm6WnLPqx+GI40ALt26K9VsilwhXZ6DgVemcKpUs5mxNuP27linx3Mz8BLFCG9guqHQ1l2zzQG7zaoCp7EihJ5f1+vGaadHf+7odVJRWX3m2sxpz68r43GlunOiPM5Yp9bq2gaOeBvMkrZDHmzSBbQ8ev/krtBnGcNLdC5YpZmIiDJsyex/wrrYSrdbqdi8atEUHRITT58wtpyblQsn6S7BokXnq1XYjde3z9W+PVv0T2mNzpPG2OJgG8eZSBXmb1TYHvW/e6Muq9TrPxuZGkgqSctStEQF2NVJXyipRlqzQTsVJLtGX5p2QcEiJfW+EmSlMFfU/dQiUwqFht1Q0q372ntezvRSr3kP40hEFAukurxcNExhgdVihvpflpIqyirdRoRVmabIDWeiE1KPPvgqJFRLy7MUuwovoKUCsrwupl06Dxh4iYgoQw7v34kZY7/QJ1I1VBATNns8el7ziB4XtmbJNB16JQyeq9MnjugpdKQSci0V5LLKtnWL9M8iJcqnWTRKpu8IMqVRSVlaMEqWq667REdbcucrZOwZ++TigowVzuwiLeJEFMNMMqZWJcq0ruWpz3S/zxeyPTD9T7q6GEtXaZsdNot6jLFKDiQV8d3OJLiczsCUR05XcstuytOoVyVjimVNct9roqzDwEtEROkm42jH/fSmOnlJ1N2X6zXrptfLSVHrbtcnFz2Sbrw7N6/Ut89F43Z9ULZSHfS5+Wk59TLWZpQfm9cuSO42LNWld20NFMCS7r1pke7TQTLmLVTx0lX0e2/ari/uHfY1Bj33Q9TlyluGomHry1GtXhvjkbFLTkwTTh/L9OJWfyeIKLb55WM0jY9SCaDhra7qU9esgqwp7e7MQTLdm8kiY4OtsIcVngqEXo8Uw9I/1ZI8blfIOGELbPoxErCN1URZiIGXiIjSbfPqBVizdLo+CWrT4yZYbSljV6XgUc+rH0LbnrdgwB0vJM87K9PmHNq3A/t2bjzr4gwJmcJuj8e1976KwsXLGmsy5tjhffjhgyfx/XuDVSg7rtft2bZWF1cSVeukrs4cFJxvWIqvWNQJ2fEj+3DkwC69FC1RXofwrv3u0y3ZJ47sj7qUr1Ifl183GM079NePy4rCU+dL/RY98PjIsZle2vUaaByJiGKBvkgYmiD9geAaGmmD9LQ/Kux6ZdofY13gsRm71Giy2nVBLJmWKDBP7hkEC2hJ4M3qftZEIVi0iogoBmSHolXShfntof11YSLpCnzv8K+xec1CFSgfD5uWyONxqxMdCzasmpsl0xIFbV6zAJ+/fre65T9r0SppzV0y529M/+cLFaQ3IG+BIrj/uR91UJ005iP8+/NbcMTnwWOv/qneSzn92EhfjLxXd/MtWLQ0nnprAt4ZdhUOH9hpbM2cspXq6nly0+JKSsAXbwzC+uWzkotWyQnnmWTVPLzy2FqNMt9tfOuGJdi48j+waBVRbJBiUi4pWqW+XwIrAlMMWfRg2XBmeNVntUePrU3uVWy2wmKzIc6a8TAqx5OW3bDjRTCrzwhbeoIx0Tni5RQiIkoX6bbsVIFMrvq37naDLrYUjUxDJC3AQXJbqhlL6Dzbcq4hSUK5vMafP34KP330FPbuWK9fb568hXULtEynJC3Usp8EvLxpFKwSe3dt0D/lfard9cmbbgFRAT4p4ZReXM4kPeZN1kdffHAmJiTvL88fq2Se48ljPsr0smlVoLgYEcUGH1SYtDkQHx8fWBwy9270U3/5vJLig6Hh1Kz2TWv/s5HnVk8OR/C5oywOqRbNsEsXAAMvERGlW8vO16BO405o3f0GY83ZSYvr/c//gBGfzjvrUrlWxqfFkWl5guZP+xX/e6I3Fs36U4VUnwrRRXHZtY/hgRE/okDhEnp6H2mhFoWKlUlzOiFn4mldnEuUqVALdodDTyv03Mez8fBLv6JE2Wp6W7GSFXVrs6yPXIZ/MB19bhmKXHny633z5i+Czn2khTrzpIBXljO6PFaq0QTXD3pdV8MuX7UBGrXure+faWl/+W2oVLMJajRsh4ateunjEFEW8Pt1C63bFZirNkP9ioPUv225UBm6pEUuAuqCVcmkarKMrz2XQJr6+cMXYzei84yBl4iI0q1J+74q6IyELWTs7sV20JhiSIz/+W0c2rdd35bQ9sjLv6uQeZeeQ/fUiSP47r3BuguwWLlgIvbt3qxvR9q3e1PyyV+5KvXU/5vgiM+tj1OqfE3c9NCbOsjLfMQ/fjhEd+OWbaHL0v/G6rl6T588qucivl+FbrlYkFmH9+/AO0MHJI8/ziqXXfsonv/kP9z+xKdo3LYP3G4Xtm1YqsdTy/0zLbnzFsDmtQuxd8cGXHPPy/o4Mi+x1RJe5IuI0kdP2+P3qn/nge7IgWJPPgR7JZ8P8pwSeCVXJ5OKzmap6syRj5T9MfASEVG65c5TIEPjQ883CbHL508w7kkrhU8H0cuuG6zHGMv8tNKS4HYl4Z8fRsKVdFp3sc6VO7+eK/jzV+/URawi7dgUGI9ssdpRuXZzfTtUybLV0XfgcD2+9+DerXjpgU6Y8scnSDh1HOtXzMEnL9+G30Y9p59XWq3vGPK5bg3OTJPGyWOHMO3vz/Hu8Guwc8sq9Z6PGlsyZ7d6v39+8zL++PpFvch45ql/fYoJv76j729dt0j/Hvfv2pS8T1rL6kVT9YWBhJPHMO6nN/RxJv72Hv745qXkfbauX2I8MxGdlQRPj1uFXRecbq+eS1eGU/jCKhtnMfUcXp8X3pAnMFnMgVbYyCdV/979sq/8VHdluAdRrGPgJSKibGv98tk6mAXJNEP3P/+jbtV1xOU21gL/Tf5JF3US1eq0wsDHP9TjhY8e2oNfVTA9efyw3ibkZHObEdKKliyvw3EkORGs36KnnpKoXOV6eqojCY4jH78cX70xCOuWzdQVrHtc/RBuf+ITlNetxBm3Y/MqfPzyQPzz/es4ceygCuuWsOmSMuPAni2YOe5rzBj7VdQl2EIu+0XbHrpsXb9Y7+tMOh11uyx6HDURpYuMo5Wpe0JzpARMXUNAfe6cj4ApF618UnPAuC90627E+FppBZYeMi6ZTzfJFZhLl92SKRuwPPn08OeM20REdJHI3Iebd59GojNlPGp2sGf7Ol3JWFpCuxpz8AbJGNgls//SwVJaOeVkSbr3nmlZPm88jh3ei5LlqqN+8x7GkQKOHtytKzKLJu2uRIHCJVG8TCUdWo8d2YdWXa/DNXe/hPwFi+lAKmS+YKnU/Nd3r+mTRula3P+2Z1GlVnMVbF26srAcNzHhBKrXba3ehxXHjxzAhN/eR1LCSdRp0gV1mnZRx4t+fVhacOPi82D14qnq/fl08JW5ikWtRh3Qssu1yKueM3Ie37RIwa0F03/V0ynJIsH0pARd9fzV67XBzQ+9iVLlaxh7B8jzrlo0Wf9Z5FPvvWn7fmmOTRZyIaBU+erJ7y241GrcUb8fqUQtj+9763A9VVHoPpGL/J4lGMs45f63Px91n0o1mqrfe0Hj2WNTqSJxKFYwdrrpU85lsQTGt/o9KQWkZH5bqZZskdvnIWDKRT5pQU7p0WxRnwFWWCMLSnldei5dt7GjTGFksVpSBWOiWMNpiYiIYkB2mJYomoUzxqSalihIuvbKtETSepAnvwp96RjXeer4YV3JOCPTEknr4v7dm1G2Yp2w6tBSeGr0589gxfzxKsg5dTC9/YmPdfiWAHn65DF88vJA7Ny8Uj+uQ6/bcfn1g3XYnaQW2eeGB/6nizeFSlRBeO3SGfq4e7av1wFdgqKIV8Ev8VRgvl85Zt58hXUwl/HEMi+xjAc+U2Xo/So8fvDs9ThpzAEspPDWFTcNQe1GHaN2Jz/XaYmCpODX39+/htMnjuqgevvjHxtb0jblj4/xzw//Q4EiJfHsh7OMtdkPpyWiWKGiru427HW7kOQz62l7zEb3YnNWp12/X4VVH1xJbrg9XiPwqudQn9VxKvBKBWUZ36s+ZJDklir1kS3B6jXZ7Ombc5foImKXZiIiOq/k9EhaBaQV4WyLtAJnlLRYSrfi0LArgfTNp/pi8aw/ddjNo4LnVXe9iCq1W+ggK6TgkoRqafWVE7l5U3/GjH+/xpQxH+vXIdMkVajWSLecrlkyDeN/eQfvPnMNnrmjuZ73V1qjD+3bpp4/F8pWqoOr7nwBL3w2XwXOb1CjQVvd0nzq5BHs2LwCs8Z/g89fuxPP3NUCLwxqj09fuR2/ffGcHpMbau6kH5PDrkyjJC3REmCbtO2T5WOnZQzzgT1bdQv9hyNuwk8qNEvYLVSsLLpEtNYT0YXhl8irgq206Npl2h5LYN7cYNj1e1w6dKa0xp4DOaSMD5YgG1ijmdVzmmXwrs8Dd3LxLBm3G97tWaXlQOsusy7FOAZeIiI6r2QO3qtV2Lz76S/OupSpVNt41LlZMudvHeZE8TJVcOuj76FBy576fqiiJSug5zWPwGqzo0GrXsb5n1u3pvS77Rl4VFj++MVb8Nlrd2HCr+9h67rFusuyxWLVLcX9Bj6Lu9TrlnHD0qVa1let0wp3PPGpboW+YdD/0Njofq2pIH3k4G4dyOdPHZ1qfLC0bOcvVFyF2/y6KNZdT49CCfX6z4d56vk/HHEjvnrjfmxcNVdfMKherzUGDv5AX0AgoovEZIbfbIU12F1YBVIZkiHV4KVqs7TG+rMi8ar0KhcjfWEXGk26MrP0HHG73XC51BJWIlq6XJv1MA2L+ty0WdTtrG55JspiHMNLRBQDsusY3oN7t+nCRdKVt13PW4y1AccP78P65bN062rb7jeiRNmqunvumRYpQiWtoqUr1ELtxh2NIwWcOHoA65fNhN0Rj4atLtctqGkpX6U+tqxfpLv4DnzsA/3cwZbdSMVKV0bVuq3QtsdNqFCtoe4KXbhYGXTtNwi58xVUAXWPLuQkwb1q3ZboePkd6KvCcPvLbtVdlOV1RI7RNZst+n3LWOR6zbqhfa+BKlBfhqIlKiAudz51MulFm+43oW7TLsYjAmQMbv5CxdD7hsd1a7QE6LOR1uhNq+fhyKHdKFS0jJ4PVwpmnY3dEYelc8bq1pxipSqh941Potf1g1FABe7gGOiz2bVltVpWqT+7YjrwZ1ccw0sxSf3blijq93l0F2eXO1BJ2ecPhE7p1JLef6tRqeN7ZdojlWcDkVeOpQ7qly7OUrk5NAgLI+xabHDE22FVz53l3ayJzgOO4SUiigHZdQyvy5mExNPH9UmXhLVQMq5VQqpUFo4WCqM5rvaXx0k34bz5ixhrA2S9FHKS55IWU2mVPRPZV7otS9fgjJAu0EmJJ5OfXwpRHdq3A0VKlNPjgLOC15gLOD2B9uz8OHn8iB7LLMWm8qnwmZ6TYAnK+mJFrrwoWrLiWX+f0cg46NMnj+jfccEipYy12Q/H8FLMUf8+LfAg0ekJVENW90OZrSpw2mywZbKvpp7vVwXp00meiBbetJhhdajnlO7Ocld9xDDqUnbBwEtEFAOya+AluhQw8FKsMJmk+7IPbpdHh1yPdGeOdqZussBqtcEeZ5Um34yHT78XfrcTie6IcbmRdPdlFXRVyrWo/zPJPERMupTNZPK6EBERERERhZLuxzL+VYJqZphUuvXL4z1euL1phF3h9+meItL1OLPO2LJrBGqH3QabCroynlhqNjPsUnbEwEtERERElFkqOEoXYa/PC5/HqGrszWQlZQm8vvDHBopEWdViCSkQJd2cffDIdEHymEz01zSHVLZPYdLj+qW7tMUmhbMC0xMRZWcMvEREREREmaTnqvW44ExK0vPV6srHUlHZK7E04yTgyjj8wKLCrkxRFBcHh90Bm0WdvCdnXp9uDZZCVhlteZVjS4i2qoMFHirPJVWhrXDEx8FuV6E3aiAmyn74N5mIiIiIKBPMJmmL9cHpkpbWwDqhx996PBlOvD6TFSarHfHx8caiwqcKpiYZp6uSqc1u0/PyJudbFXpdLo+emzcj/CoC+GCB3SZz/Kr3oZ7DpkJ1XJwNZnUomYaX6FLBwEtEFAPk5CX5BIaILihOrUKZ5ZciTup02qbHuAZJq6kJNpUk/ZImM/rXK7l1N7joVbIBfhlba5HpgPSeikqm0sor3aAjQqqEcZ/XDVeSE0lOFzxqe9guJhUDLMHWY2ntlefJ6Islin0MvEREMUDGSJlTzmCI6AJy2Hk6RJkTqI+sPr+lhVSCqDH+1S4BUiVIs0RMSZl+H0zSBVk/KvOkZdZskblwJVIH+XSRKylCpfO34ve44JaxxHo8sQrEarvsEzm9kRSnknnDzdKN2lhFdKnhJzwRUQyQsJs3V1bMyUpEGSEXm/hvj86FX4VFn7S82gJhVwo9yaJbZyXk+gLjet0eqd6sQqnxuMySgGq1WENaedVr0JWdpWuzhF+3vu10ugOVngN7qNB7hqrPRJcwBl4iohhRtli8cYuILpTc8RbkirMY94gyR4dbixSVshhVjVWyVOHT5FdB1+VS4VMtLrnt0VWYz4WMvZVWXpkuKIVPF8pyJibp53J5w4N14PXxtJ9yJv7NJyKKEWWLx+uTbyK6cIrmtyN3HFt4KevoQlY+D1xJSTidGNrKGljvga7rfE5MZunWbEHo39zA9ERRwrRJhXB7HOJUQOYUQ5QTMfASEcUIKZzTpEZBXZCEiM4/qVBbp3J+oyAQURbwunSLbpJTBVsVPmVcbShdvdnp1l2Lg+NtM+1sj9fdrO2Ii7MHpjNi2KUcioGXiCiGSLfmMuzaTHTeSchtVacQCuSxGWuIMkfG6Zr9KuC63XB7vHDJXLy+tApU+eGXVl5v+DRGGaEf7/Go5/FFaSmWUGuG1a5Crl3GE0sXa5l6iGGXci4GXiKiGCLdzZrVLIhyxXOx1YnoPJF/Ww2qFuDFJTonJpmsVoVdn9enqyG7XC64POp+aJA1Bboeh82dq2KqVE2WqYTSnXlVOpaO0F6fFz4Ju1KQSiozG5s19VxmixUWq02HXbst8LxEOZ3pyElXJq8vERHR+eLx+rFs4zGs3nrSWENEWcFhM6Nt/cIoWSQ+rMotUUaZTCq0utwq6KqfxrqgwHy2alHh02G1wOzzwO12wZ2cUE2w2OywyvRFxpoz8qtn8LqRoJ4rdctwYK5es3ou6cJslSBORMkYeImIYti+w0nYuOsUDh9341SSB14VhOnCWLlwEpIST8PhiIddlrhcgZ/JS+C+nGAKGZvnTDqNxNMn9JKgfx5HwqnjOHH0AI4f2a+XUyeP4PbHP0KefIX14+j8s1vNyJfbimIFHaheLo+6zW7MdO68bmdgntvIj2UpEmW1wiEDZ4NhVHd59iDRHRKNzVYVem26mNSZmFWc9nm9SHK6kforwASzzQGbVQVoI2TrH0SUjIGXiCjG+XwqSLl9erxWotMLt0w3wU/u8+7v377BM0MegkXmu9TdBNUSvG0sZrUuPj43Bj30OH789gvs2rENbo+cBLuSF6/HpcNwUM/Lr8Qrb32lvoF5Vnq+ya/YYTcj3m7RoVduE2UVrytJdytOCaHSamtTnxUq8Kp75pDuxDLOV+bIdTnV50PI/tIqa7Pb1f7+ND8SpOqzdGN2JrnhMdYFukpb9dREUrFZcJwuUXQMvERERFEkJiSgeZO62LVzp7EmNRmb1/+qa/DxZ19hzG+j8ciD9+HEiePG1tSsKiBPnTkPderWM9YQUXbl88qcuiqM6nuBsCkXxvSct/peBBV6/R4XklwhY2+lNdhmh0OCaxp5VY8VVs8j437lcYET90DQtXJuXaKz4r8SIiKiKMwqzNaqVde4F12jxk3x/Auv6Nu9+/TFB5+MQq5cufX9tPz80/dYvWplWKsvEWU/ureHCqs2vdj0Iq2sabWzSqA126x66rnkfXTRKw+86vMgcgqjIL/fBL8KxmYZn5v8fHIcnsYTpQdbeImIiAxJiYnYvWc3xo/9G+++8yYOHthvbAknLTi1atfB3/9ORoECBY21Ad9/+xWeHPwIEhJOG2tSk66Ordu0w0233IZmLVqieLHicMTFGVuJ6JKlQq3fk6SHqYR2hTbb4mC3BcfhElFWYuAlIqIcT4LuOBVy//zjNyxcMA/79+07Ywts2XLl8PV3v6BBw0bGmhROpxPfffMlnn7yMbjdbmNtdBJ8S5cpo47TGF26dsdll1+BwoWLGFuJ6FJkNnngSnTD7Q12hxZWOOLtuvU3/XMVEVF6MPASEVGOJGH05MkT+OP3X/H6qy/hwP59xpYUMuY2d+48elxuMABLl+Vffv8LrVq31ffT8vGH7+G54U/puTlFvnz5Uax4cezZvRuJiQlRA3VcfDyuuvo6PPDQoyhZqpR+rsD0JkR0qZAxuX63Cy63F+7kSXulldcOuxS84nxZRFmKgZeIiHKUU6dOYvq0qbrb8rRpk7F3zx5jSwrpXixdji/r1Rtt23XANf2vwLZtW1GwYCGMfPNd9BtwtbFn2qTo1Ttv/Q8jX3tJh9thz47A3ffej6VLFmP2zBmYMnkili1dDK83cgbPQNCW8cEtWrZG1+490LxFK72OiC4RPplmzqtCrwcpmdeiKzZbrWYW2SHKQgy8RESUI0iL7s8/fofXXnkBu3ftMtaGk9bUy3v3wbMvvIJKlSoba4HnnxmqwutIPD38OTz2+FMZanV95cXn8e47b2Dz9r2pClptWL8Or748An//OSZq8A2S1t4nhgzDtdfdyLG+RJcKr1t/LrmSB/MGpimy2m2wsZGXKMsw8BIR0SVLCkfNn/sfJk0cj7H//ImdO3YYW1JIgGzSpBk6d+2G3lf0ReUqVY0tKebP+w+zZk7Hw48+keGW1tOnT2HKpIm44sp+xprUpJV58qTxmDljGubNnZNmIC9SpCg6dOqM9h07o2WrNqhQoWLYXJ9ElH2Y/YFW3kSnJ2XYrlkqP9vgsKQ9TRERZQwDLxERXXKkCNVvv/6Md99+Azt37tD3I8kUIj179cYjjz2JqtWqIT4+V5ott8HWV5l3NzOkS3N6WoWltUe6XE/4dxw+fP9trFq5wtgSTl67jC1u3aYtBj34CJo1b8ngS5QN+aVrs8sJl/qICZyQm2Cx2mB32GHSnxt6JRGdAwZeIiK6JEh1ZBkTK62pv/7yox5zG0mCYp169dG+fSdcc90NqFa9Roa6J19IPp8PixbOx9i//8Lc/2Zj7ZrVurU4krx+mSKpb/+r9Jjfuur95c2bz9hKRLHMBB/8XjeSnDIXr7HOYoXNEQerSQXewCoiOgcMvERElK15PB4VcH/Cxx++ix3bt+P48WOpKiBL0O3e4zLdGlqlarVsNfWPBN9jx45i+7ZtuqL0D999jcOHDxlbw0kl6BIlS6Jvv6tw6213oHiJksYWIopFJpMPJp8HCYkSeI02XrMFFnsc7BYJxER0rhh4iYgo25Euyps2bdTjXr/4/BPs2rnT2JLCbrejYqXK6NCxM24ZeAdq1KxlbMnepJX3n7/+1F22169bo997tCmOZKxxz8suR/+rrtWt2mXLltPBn4hih7TwwudGYlJIC28w8JrVbSZeonPGwEtERNmGzGn71x+/4+efvsfKFctx8MD+VGFPuvj26NkLN95yG+rXb6hbPC/F8a0y3nf7tq1YvWolvv/ua0ydPFG3BkeS4FumTFnd1fnKflehW4+eevwvEcUAn0f9z40kty+5cJXu0qwCr9XMLs1EWYGBl4iIYpqMzT2wfz/+Hfc33nvnjagVjKU1t2ixYujQoTMeHvwkKleuYmzJOaTS8ycfvY9xY//C/n37dPGraC2/cgHg+htu0XMJly5TBvnzFzC2ENGFFLVKM8wwW61wxNnVdp6iE2UFBl4iIopJMqWQFKD6Y8yvelqgPbt3G1tSSNBt16ETruw3AK1at0X58hVitgjVhXL06BHd+j1j2lR9kWD9urVRg68Utqpdp66e3qhP3/6oV7+BsYWIzh8/zGY/3Crk+rw+eP1q8aX8+zRZbLDZ7JDZz0w8QyfKEgy8REQUM6S14+TJE/jnrz/wxuuvYPv2bcaWFDI1UK5cudGxcxcMHf48qlarbmyhSPL7/G/OLLz1xutYvHCBvogQnGIpkgTewU8ORbv2HfQUTRzvSzHL74Xf54NH9+A3qXBogclsCs7rE7vUa/b7vFKXGR63Rwfd0JcsY3etEnYtZsjbIaKswcBLREQXXWJCAmbOnIZ/x/6DaVMnYeeOHcaWFI64OLRo0UrPndu5SzdUrlLV2EJnI2N7t2zehNmzZmDG9KmYNmUyTpw4bmwNV7ZcOd1a3rFTVxV+O+ou0EQXlV/mo/UHAqKctarA6/N44NJVnlRItFthkZCowq/JopYYO7OV1+5Xr93n8cLrdek5dyMFw65FJV1ZiCjrMPASEdFFI0Wofhv9M159+Xk9Njda0SVp0ZUphYY+MwLVa9S8JAtQXUjSvVmmcvr804/w1v9ew6FDB40t4aRruFxkuLJvfzz2+FO8wEAXjwq4siQluZMrGaemAq/FCke8TQfec4qM6t9ItKfJ7HAJs8kHj8utPu88iMy6+phqsdrjYbXIuyCirMbAS0REF5SE3Hlz5+jxuWP//gNbt25JNcZUKgs3btJMd1vuc2V/VKteI9Mnm5Q2Cb6zZkzDlCmTMPe/2VizaqUuEhZJxko3bNREV3iWMb8NGzbWYZjovPO64FV/T50q6UZ8TKRmktBrQ5zdKhky06SYlMutlkCf6QCTFTabBTZJpRlkVjHXLYHXLd2ZU0g1ZovNrqcfkhfMTzii84OBl4iILggJV7//+gtGvvaSrigs40kjSdDt1r2nHktapWpV5MmT19hC55O0rEtV582bNmHUpx9hzJhfdTfzSNK6LuOnS5UujYG334VbB97B4Evnjd/jgsfrVYsPIXWdzki6BtscMqWPum2syyif2wm3Rz1v2JOaYbPbdejN6HFlrl0Zu6tDrzRRq/BsV8cxW8z6Qp6ZF/OIzisGXiIiOm+SEhOxevVKTJ40Ab/8+L1uzY0kxZFq1qqtqy1fe92N+jZbcy+ufXv36grPE8f/i5Url+kLFNEqPct8vldc2Rc9e12h5/ktV648/+woS+iwK6FTwq6xTkiglWEOZum37Depv28+eNxeeJP/fqoAaXPAYZPCT5n7u+h1JenAG9592gyrBF67NXPTBYUW2jKZYTGr18exukQXBAMvERFlOakE/Mfvv+KLzz/BhvXrcOTI4aiBqXuPXrhn0AOopUJu4SJFOT43xkgr7779+zDvvzn4/LOPsHTxImNLOLloUbJkKdRv2Ai33X4XWrdtr1vriTLK7w+0hnrdbrilG7OxXgdZiwqKVqOwk2RFFXbVhw2cMjY2tOKxtKDabbBKAatMhF6fx6lDtDukhddktgWOaVXH45kzUbbCwEtERFlCWnNlGqGpkyfik4/ex44d240tKRwOB8qULaer/9597/16bC5lHzK/7zdfjdJTHe3Yvh2nT58ytoST4mLXXn8jOnTsggoVKyJfvvxs+b3ESVCVVtBz/WOWsOtxJsEV2qyrw650VXaosKvuqiAq3YTPVMjKZHXAbpXqzfLojDGb1GtQITplzK1ZPXdguiD+LSbKfhh4iYjonDiTkvDvuH8w+ucfsHTpYuzfty9Va6609nXs3BXXXX8TmjRtrseAsjU3+zqwfx82bFiv/9z/+H207vIcSQJuoUKF9TzJHTp1xjXX3Yjy5SsYW+lSoltlXU54zDbd3fhcptVJHXhTqi+b1Tqz+j9d8ViH0TMVspKALF2QLTCldwBwkDpoqkeov88Mu0TZEwMvERFlmNvtxsEDBzB50ni88+bIqGNzJeRKN+U2bdvh0cFD9NhcuvRIVedx//yV3H396NEjukBZJAlCnbp0w733PYBateugUOEi7Paczfl9Hni9nsC4VD3WVkKmDTapGJXJs0td4MnjRpKewsei/45IZWSzRR1SrZcxvR71hL6zjqNVAVUFZavNBrvu/0xEORUDLxERpZt0W546dTL+HPOrnsZm186dxpYU0m25VZt2ev5W+Vm5chVjC13KZLqpjRvWY+GCeZg4fhymT5+q/75EI62+jRo3QY+el6NLt+66+BVlLya/V4ddPbds8pmkCWarDVa7CqmZ7NtsUkFWClG53Sr4mswwyXhdtV7CtVxICR/XG6CDrfR19qsgrPZJfj16miIVmkM6k5hVcpbCV6wXRZRzMPASEdEZBaes+efvP/HGay9Hbc2V7slxcfHo0LETnhr2HGrXqWtsoZzq4IH9+PjD9/WY35MnT+hAHI1Mc3Tn3ffhtjvuRrHixfWcvxzvG/tkrlqpoux0e0KmDMr6VlWTLmIlAdgJl9dYKdTfER1e1dPokK0+gySEpx7/G85stevXZ+OICqIcg4GXiIiikm7Ls2ZM0+M0pRDVtm1bo47Nbd6iFXr07IUu3XroIlQMKxRKLpbMmT0Ts2bOwLQpk7B2zWpjSzgJvk2bt0C79h3QoUNn1KlXX1d/pthlktCrPieS3Cphqn/30harW3fVkuFxs1H5YZapfDxuJLrD0q4KrvI8DvWM0iIcWOvzeuB1qWDMwEtEIRh4iYgojHQb/HPMb3j+2af1fKxpjcfs0rUHnnn+Rd09lWMx6WzkYon8XVq5YhleeWmEDr/SeyCSXDCRv08y5vuhRx5H7z59+fcrRplNgS7ETqf6jLDH667Deu7bwP/OmRSo8kq1ZKcbKZ9CKlZLYLXbYFZnsMGwa/K54VWvJVHCd1pMKiTLY62Zm66IiLInBl4iItKVlhcvXogpkybirz9/x+ZNG40tKSR01G/QCJ06d8UVV/bTgYSVlikzJPxu2bwJEyf8i5nTp2HJkkW6C3Q0UtFbxvrKVFbNmrdEiZIljS10sZkg42n98ElrrnQvNgKonjLI50WSx6QLWGX2c0KmB3JLRWZXcHogdWxLIOxazSlVk6N3rw5lhtVhh0XG9KoHmTmAlyhHYeAlIsrBJHj88fuveOetkdi6ZYvufhrZbVlId+UnhgzVrbl58+Zj0KUsk5iQgEOHDmH8v//go/ff0V3no5FiaPkLFETHTp1x/4OPcpx4DNIVlqULsld+euHymmCXoGlRQdPYJyMkyLpUiJUpiAKfSiZY7DK/bkrRKR12veq51D7ekLQrLbgm9TllNltV0AUsNqsO5MkpmYhyDAZeIqIcRirnrlu3FtOmTsJ3X38ZtQiVFA6ScCutatffeAvDBV0QMm78vzmz8Puvv2DJ4oV6miNZF0nCTNNmLXBlvwFo0bK1+rtajZWeLzKpoiwVlt0ej1pU4DXWm60OPaZXV0rO4Bmn2S+tux449bxHwgSrQx1PAq8K114VrM1+adkND7vS2ixVm6Uas54XmCGXKEdj4CUiyiGkSu74cf/gyy8+w5pVK3Ho0MFUrbnSctuxc1fccdc9aNCgEYoULaZPGIkuJPl7eWD/Pmzfvg3ff/s1fhv9MxISThtbU0jwLVKkKCpUrIQ+V/bDVddej6Lq7yxdOPozxKfCp9uppwxKPYJWCllJN2QVUs858Ko/c6sddqspEHSdnlTPp1t1bXFQTxcYT0xEOR4DLxHRJczpdGLXzh2YPm0KPvnofWzauMHYkkKKuJQpUxYtWrXGvYMeQp269YwtRLFBpjX6+cfvdff7TZs24tDBA1ELXuXJkxeXX9EHV119HarXqIXiJUrwgs15JIWipBCZ0yOnkn4VfgPrI8m4Wwm99gyOnTXDA7cE3uQuzUIKTqkf6slSPZ3JEujybJaLdwy7RBTAwEtEdAmSIlSTJk3ALz9+h6VLF2P3rl3GlhQSdNu064Drrr9JTwdTrlx53WJGFKukO74E3vnz/tPhd8H8uVG7PMt4X2n1bdioMfr1vxodOnVhpecsFqzQLBWU3Wc7kzSZYbGqwOuw6emK0vsxExgTbBSu8p7pSYxpimxW3arLll0iCsXAS0R0iZCWlsOHDmLy5Il4963/YeOG9caWFNLaVahQYbRo2QqPPv4U6tVvwJBL2ZJ0pV23dg0+//QjTJwwDocPH9aBOJqSpUrhvkEP4Yor+6NwkcJ6zl86NyYJvFJQSoVR3cCrVwbGzuqadlK0KrQrshSPsttht6RUV04Xv1f9WUshLC+8LrUYqwMCQdeinlAKY+nuzMYWIqIgBl4iomxOWrimT52s586Vgj8y7jFybK60brVs1UYX+WnTtr0uSEV0qZDxvosWLcSsGdPwz99/RO3RIPLnL4DGTZuhXfsO6N6jl/53wIrjmefzevTct8mNrxarDrw2I/AmOd26mJTebFKB1GKDQ8byBrslp5NJl1f2wZ0kzxXSlVkdxGJz6IJYvGxHRGlh4CUiyoZk/GJiYgLGjxuLEc8Nxc4dOwIbQkjLrSMuDh06dMLTw5/n2FzKMf4d9w9Gvvoi1q5ZrS8IRRvvK0G3bfuOeOjhx3SlZ7vDwfCblSSYehLhdPtTArGKpVZHPGxSdMpYExR6kU5usVsyEWUVBl4iomxEKi3P/W82Jk74FxPHj8OWzZtStebKSbtM2dKtR090634ZatSsxcI9lOPIv4uVK5brVt8Zapk/9z9d/CqS/HupXKUqOnTsrANwm7btUKBAQWMrZZ4fMkduklPmyQ1OU6RCrNmGOId0Qw4PtFIAS+bcdfukm7JRiZmhl4iyAAMvEVE28fefYzDiuWHYuWO7brWKDLpCivOMePFV3VVT5tLl+FyiQLf/QwcP4puvRmHUZx/rKbmikUJuMp/vdTfchEcfH4LChYsYW3IYnwdeKRYVHJxrdFW2ZrAFXIpOed0uFWS9Ia286jjqsylwPLVSuj6r7dIiLC3xPr8JMn+uzcGuykSUNRh4iYhilBTgWbFiGaZOnoTff/slzSmFpKty+w6d0bf/Vfo2Qy5R2qSVd9bMGZjw71gsWjgfG9avg9cbXgpJSK+I9h07o3uPy9CseUvUql1H/3u7FJn8Ph1OXSrgyn8mFT7ld+LxGaeIJhVAJaSqBJrhTt9+Nzwujy5gFTzhlEArv1+zjM2NKG6lmcywxcXrscD8NCOic8XAS0QUY+REc9zYv/Hhe2/rKrQnThyP2porJ+OPPPYE6tarr4vxcPwhUfpJVfNjx47qcb6fffyBHvcbLfjKBaSCBQvpaY5uv/Me9O03AHHx8cbWbE4FXfls8Uuw9Xl0S2v0k0LpZmyD1WZVITRjETRD0xep55Hft8Vq1fP2yicaAy8RnSsGXiKiGOB0OvU0QjOnT8XXX42KOqWQdFGuWKkyWrVui1sG3qGnFCKirCGVnUf/8gOmTJqoW30PHjxgbAlXrHgJ9Lmyn275rVmrDoqXKJEtLzbJVD8Sct0ybvaMc9waTBY9l67DZlGh1FiXTib1PB63C0nJ8xdFI2FXpheywh5vU6/Nz7BLRFmCgZeI6CKSoDtp4nh8/eXnusCOTK8SSaYUatOuAwbefhcaN26KEiVLsjWX6Dw5ffoUdmzfjunTpuCH777GmtWrovawkLl8y5Qti+YtWuGWgbejQcPG2ebfpYRdv8sJlwqVMm1QeplVGLU54mCRbs8ZSKPpCbx6eiGZU1eOqxaGXSLKKgy8REQXmHSl3Llzh64e+/GH72H9urWpTqhlfFup0qV1teVB9z+MBo0a665+RHThSBElmdtagu+CeXOxZ+8ePbY+mvoNGuK2O+7W812XLl0G8blyGVtii9/nhc/jhtvj03PahpN5bW3q88cMi2yL6OZsMlthVYHXZk5H66t6vNnsg8vlgc+rnksXpDK2BUmLrtWui1eZ1WeeSf7jxxwRZTEGXiKiC0SC7pTJE/Dj999i6ZJF2LVzZ6qgKy0c0mX5uhtuRpNmzVG5chVjCxFdLDK2d++ePVi5crkudvXPX3/gyJHDxtZwxUuURM1atdGte09c2XeA7pERM/wq7Kr34nK5Q6omq5NBCZ42K8x+CbzSZdmkbvt0aPV4pduzD36zSX0+SRiWYlPGA9Mi4VY9jx8+9Vip0Bxxqqmez6qOI8FaF7DK4LhgIqKMYOAlIjqPJOQeVSfGU6dMxhsjX4laaVm6Qcq8n61at8Ejjz3J1lyiGJeYkIBffv4Bn378gR77K5Wfo3V7lgtYV/YboItdVa9RE3nz5tOB8WIwmfwq73rgUWHXGZJ2TTI2V4pR2W0wybjZ0I+e5FZaFXglpFqlFfYsJOzKlEYuF1L3YFZBWoVcs9mqw65MTUREdL4x8BIRnQfSIiQFqP76cwxmz5yOrVu36O6RoSTUtmjZGldc2Q/tO3TSc+derJNhIso4md93xfKlmD/3P4z/dyzmzZ2jL3JFkumMatSspf+9d+naHa3atNXz/Z6ZOj0L/E85966+Ui1Zwq50MU6pRR2YE9dml9bdLDod9Lr1eF1nWMHrQEEqWRy57Do0y4xEREQXAgMvEVEWkRYeOdmdMH4cnnn6CWzbttXYkkJCru623KYdXnplpJ7bk4guDXt279Y9OUb//CMSEk6nusgVJN2e77nvftx86+3Ily9/1Atd0rLqVeHU7fHDnIlCUZHMKua6JfC6vQi+KpPVDrt0UzbLZ5Ox8hyZfBJ43WEFqgJTGtlhVSmXvVeI6EJj4CUiOkfOpCQsWrQAE8f/i/H//hN1SiEJufUbNELX7j3Q87LeqF2nru7KTESXHpnSaPbMGZg2dTL+mz1TX/yKFn5l/uzWbdrqObXbtuuguz0Lv8elx716vVLoyaSDaVwmpgMKZfZ7VNh1w+lOjruwOhywWS16vtv0kG7RkHG5SR79+qR0lUmF9bDu0FIBWv0X+nZNZqOF17hPRHQhMfASEWWStOhKN8bXXh6B9evXweV0Rh3H17pNOzzz/IuoW7c+HHFxbOEgyiGkx0diYoKu9PzmyNewaOH8qJ8RcvErLi4ejRo3xpNPDkHTZq3gUQEysKcKi2YJlVLNWEJn5j4/TD6Xbt11eYJJ1AxbnAq8UjjKWHM2Jmkb9rmRqANvYF3yVEXSehtYRUQUUxh4iYgyQObNXb1qhW65+fWXn/SUQpHs6sRUWmratu+I/gOuQcNGjY0tRJRTSdCVOX2lwrME4GVLl+hiV6FyxcejZPGiKFehMtq076QCcBNUqVYdBQsVgcWuwqkKvObMXjBTgdft8sCVXLBKWnjjYFcpOj1HNEmLrt8Hr9sJpycljMt0Qgy8RBTLGHiJiNJBitNMmjgeH73/jj5pPXbsaKqWGmmlkdbc+x98BA3ViWqhQoXZbZmIUpGge+DAAfz+688Y9dknOLB/n7EFsFmtqFq5PHywwh6XW4XdQmjWojWuuvpqPU1ZZlt4zf5AwSpncgsvVIiWwJuOaYbUZ5207nq96vFOT/IYYGkllnl7HXE2FagZeIkoNjHwEhGlQbojyjRCs2ZOx9dffo61a1anCrlSbKZipcpo1qwFBt5xFxo1bsouy0SUbnIxTQrd/fH7aCxfthT79u5GpQrl4PWZ4TdbkJCUiF3bt8FiNqNl67a46prr0KhRE/2543A4jKOcnRke3cLrdMv8uAaLHQ6bFVbLmT+zZPyv2x3xWMVkkWJUNtjU4/mpR0SxioGXiCiCnIBOnTIRX3z+KVatXI69e/YYW1JI0G2lTj5lfs2G6uSzTNmyDLpElGlygW3Pnt1YvWolxv31OyZNnKTDrkxxlphwWu9TolgRxOfOh7g8eVGsSBH0H3A1Blx1LeLi4/X2M5EWWp9XQq8bKXWrzDqwSlG9aJlXLvDpAlo+HzxeP3yhF/zMKigbYTfT3ayJiC4ABl4iIkVC7t69ezBrxjR89MG7uttyJOmeXKJkSTRr3hL3DnoQjZs0Y5dlIjov5ELbTz9+iwlj/8KJ48dw6Mgx5M+XV4+XTXJ5cOrkcRw5dFAXwrvp5oG45tobULZ8eRQuXCTNi28mv0dPGSSVmoMnf1IQy2KRwGuC1W6BWcbpqpAtRbNkJwnJ3uQCWgb1GB2ULWb9OCKiWMbAS0Q5mrRgTJ08EaN/+REL5s3Fjh3bo04f0rJVG1x3w01o3qIVKlWuEnXeTCKirCJTAPlV0Dx54ji2b9mEBYsXY9qUydiwYYMOqTLwdsvG9TrACgm+tWrVRtNmLdCnb380adocNhVKQwWqLHvhdLpSWnk1FVpNZtgdNlgkFHu8cCcXtwqhwq3ZbIXJaoWdLbtElE0w8BJRjiNdB0+dOokZ06bipRee1eN0I0mgzZMnrw64Tz49nJWWieiCkWrIZrMfHul+7PLCa6wXG9avw48/fIdFixZj88a1OHXyRKraAqKmCr9333s/uve4DAUKFkoZ7+tXR/O6kagSr09acdNJWo319EhSkRnGnLtERNkAAy8R5Rgulwvz5s7B2L//1NMKbd60MdWJonRRlq7Kl/fug46du6JGzVp6fBsR0YUgYRcep54+yKuWtE7SDuw/gDUb1mPK+LEYP+4v7Nu719iSQkJq8RIldKtv+w6d0LVbT5QtVw4q6eppipIkTKfnLNBi09WjZbyuOirDLhFlKwy8RHTJky7K0m35mWFDsG7tGmNtOAm6clL48mtvsDWXiC4K3eVYLa4kl+5SfOYTNGlxDUwJ5HE5Mea30Xjrjdf0hbxowzKEBOAePXth6DMjUKNGdbXCDL/PC58ndH7eAJP6TLTYHLCYfOpxMlevdGdm0iWi7IeBl4guSU6nE8uWLsbkiRMw9p8/owZdGd9Wp249dO7SHT179UaDho30CSERUUaY4YXH41NRVX1+qKBozWQxOxm3K4WlkhLc8EiF5MBKmC02XUXZ5PfqglIp2VQ9l8MOm8ylq+7J597yZUswdfIkzJ41A0uWLEJSYmJg1wj16jfQn30dOnTQF/kc8bmMLQEScs0W69nn6CUiinEMvER0SZGTwSmTJ+B/r72iKy0nJiZEHd8mY3OfGvYsGjdpinh1osdqy0SUESYVR+U/n1dirg8ul0cFUWkVtcFus0j0zTAJvNLC606SYxmBV1parXZY1TY9H67HC1fIfLgyF67NblMhO2UuXPnMk6C7Z+8ejPr0I3z5xWdwJiUZW8PJlEZFihTBjTcPxG133K1uFzW2EBFdGhh4iSjbkyJUMnfl7JnT8fNP3+vbkSFXilBVq14Drdu0wzXX3aDH6RIRZYZ8vphVAJUpe1xJbniM9RKDpVXU5rAHWmSNtVnJ73HD7Q6tsmxSIVsFYrsVUasNqNcqRfrGjR2L8f/+jeVLl2Dbtq1RLwTmzp0HnTp3QY/LeuuLgRUrVU5V6ZmIKLth4CWibEuC7rQpk/DeO2/qLsuHDh00tqSQoNuiZWsMevARNGrUGEWLFWe3ZSI6J36PEx5vYOqeVLlRdwW2IU4F0PPxUSOtvB63B4nukNrNZqtuWY6zhvdU8fs86rW64FSJ3GS1yxocOXgAy5YtweeffqQvEsrnaCQJuYUKF9FDPm4ZeIeu9MzgS0TZFQMvEWUrcnK2dctmPT7t6y8/x8oVy1O1VEj35PLlK6B5y1b6ZE3mo+S8uUR0LsK6G/u8ajG6HEcRnL5H8mdWZ16TX6YT8sHlVKE7+QWYVOaVrs12PWWQ2e9WYdynqzz7pCiV7GdSr0ltt6kXJa9JPjdliqPRP/+I6dOmYMvmTTh27Kg+WqQyZcvi2utuQpdu3VG5SlUUVmGYiCi7YOAlomxDKi1/9cVnunVi7549erxuJGnNvf3Oe9C4aTOULVuOQZeIsoRJqhX7PEhIDIyvDSUVjSVVpkRgCaB22O1WWKTRNavPtFTolZZbmVYopWdzYPywVV6b36tboMMLL5thlcCrXpM55PVL8JWgK9Wdp06ZhJ++/1Z3eY4mb958qFS5Mlq3bY8bbrxFz/VLRBTrGHiJKGa53W4cPHAAc2bPxNtvvo61a1YbW1JIoC1StBiaNWuuuy03a97S2EJElHWkMJUE3tNJ7kCLqVojQVeyrrTomn2BkBnYJiywxamAqRJvlrfy6pgbZfoik3pNKsCmPrFTYVh9VlpsVt3Ce6YALhcS5eLiZ59+hNWrVujP4GjdnmVoSMtWbfQFRulFU6xYMTji4oytRESxg4GXiGKOnFzNmTUDv/36C+bOmYWtW7dEnVdS5s296prr0KZte1SpWg1Wa9SSLURE50xPGQQvnMEpg0wqQKrPHIfN6EXiU+HTFT6frcnqgF3tIx1Nsnw4r7wGdyKcHn9ES2443fpsUq/Trl6v3E4nafmVbs7Lly3VU7tNmjBeF7+KJENIypQpiwaNGqNrtx7o3rMXKz0TUUxh4CWimCCtCgkJp/GfCrgvPv+MrrQcSU6scuXKreeMHPbsCB14iYgupMiaAcEieCaTF14JvDI9kV4jZCyvdCO2wJTS9Js1zhp4pWK0PL8DFrWv6Rwn1D158gS+HPUpvv7ic+zbv09PexT5uxB58uTVFyLvvPs+lCtfXk/7xkKBRHQxMfAS0UXlcrmwcME8jBv7t664LNWWI0nLbb36DXHZ5b3RuUt31K1XX4dfIqJYoYtaSbdmlxtJnmCPFBNMFiusNhvsMk9RFjD5vboQlVOewycFrFJ3YZbxw1arJTA1kvqszMq4KRcmFy9aiNkzZ2DK5IlYuWKZHn4SSbo311ef2zIVXOeu3fTc56ypQEQXAwMvEV0U0jIwc/pUPDv8qaiVloMaNGyEl197Q4/NZcglolgmY2t9XhVGna6UVlcpJmW1wSHTFBmrMsNs8sGrQq6EXekRI2N3wxnh2mzSXa2lRfd8f2LK5/aa1avw5v9exT9//RE1+App4S1eogSefGo4brrlNn6WE9EFxcBLRBeMjM1dvmyJrgT6959jdLflyKArrblS+bNjp67o3edKNG7SzNhCRJQN+KVrs8x96zNaXqW4VaBrs4TRzIVeP0x+D1xOj55uKPxTUwVbacWVRX1+2iToXoQuxLt37cKUyRMwY/pUzJs7R1fSj6ZgwUJ6eiP5jJep42QKOQZgIjqfGHiJ6LyT1ojpUyfj9Vdf0pWWT58+lSroSguAtOIOfuIpNG3eQo8D40kQEWU3upqzCr1JSW54krsbqzBqsSJOpgTKxFha+bz0ORN1Qayw8n3qc9NklsrLKlCrJRbIMBUZ7zt18iS889ZI3QIcjc1m09MctWrdBvfe/5D+/GeXZyI6Hxh4iei8kJAr4XbWzOkY/fMPWLF8WapKyxJyq1arrqe2uOa6G/TUFqy0TETZnoyt9STpglLBWlUmkxnWuHjIrEAZvpQngdcoUJVc+8pkgT3OocfpXowW3fSQoL5o4Xz8+cfvmD/3P12jQS54RpKLm7Vq18EVV/bTY37r1K2nwzARUVZg4CWiLCetue+9+5busnzo4IGoQVcqLD/4yGA0bNgYxYoX55V9IrqEROuCLK2xNjjibCrgqXsZPPvy+zxyVMm+AepzVPeCUfdjNO8mk+B79OgRbNu6BWN+/xW//Pg9Dqrvhkjy3ZAvX36UKl0aV/Tph9vuuAtFixU3thIRZQ4DLxGdMylUsmPHdj1n7ueffqRbcyNJoJW5GqW78q233YkWLVuzyzIRXbJ0kSmXGy63B57kMy0zrDJNkdWSqpXX7/PqxedXQdZq02N9Yz3IZpZ0ef537D/47defsXbNKj3eV3oFRZLviMt69cY119+E2nXqonTpMrorNBFRRjDwElGmyVX7mTOm4btvvsSiBfOxa9fOqCctUnjq1tsDIbdcufI8YSGiHMHkc8Pt8arQq8JscJ3FBpvdllzAKthy6/V4AosKvBZbHOw2swrNgcdcqpxOJ3Zs34bly5bil59/0FPTRfsOkQum8t0hXZ37DbgGXbv30HOyExGlBwMvEWWIVFo+fOggFsyfp6eikBOVSHJyUqhQYTRo1BgPPTIYrVq3NbYQEcUof+R8tiqQZkHg9HtU6HW74E4e2SGBVgVeFXot0qrrcYaPzdWscMTbYZUBujnoLE0qPX/68Qf4568xOHjwIE6dOmlsCVe8REnceNOt6Nv/KpQuU0Z3g5bu0ERE0TDwElG6SLfl+fP+w5jfRmP2rBnYtHGDbuENJd3PGjRsjP4Drka7Dp1QvUZNFqEiotinPsssJi+SnB54vCqZ6mmE4mCRttdzzFFmvzqm24NEd2jLpYRpObB8hqqgHXkmJmN97VYVeHPmsI9jx45i+dIlmDVzBsb+8yc2rF+X6vtGSNCVVl+5qNqrdx/UrVefQ2WIKBUGXiJKk5xgJCYm6OqaL77wLJYtWZzqpENO2uLi41GrVh08O+IlXWGTV9qJKDvweY1uxBJA4VP31SIfceozzKxCr3yUyXhaqwpRme1ebPKrY/p8cDmdIWN502AKTF9klzG+F2k+3Vgjvzup9v/eO29i4fx5SEg4HbXbs2jYqDEeGTwEHTp2QpxUxOYFVyJSGHiJKBXptrxk8UJdVGTypPF6HsXIoCvdluXKeo/LLkfXbj3UiUYTBl0iyhak1dXt9evgJEt4d+JwMubWbrPBbFEB1FiXUVKMyuNMgiu8YH0KmbJIfabq1km12HJoy+6ZyJ/Tls2bdA+jGdOnYtaM6bryczQy3rd123Zo36GzWjrqLtBElHMx8BJRMn0lfcY0jHhumK60nOZV9MZN8MxzL+puZHIFnUGXiLIDuXBn8geqITvdKuyeKekmC1RNljG3tox+1Pl9+jm9Xh+8bleUFl51bBVuzWYrLOpnTu3CnFHyXSW9j7756gu8OfJVHD58yNgSTi4g2B0O9O9/NR5+7AlUrlLV2EJEOQkDL1EOJycOEm6nTZ2Ev/8cg5UrlkcNurVq10H7Dp1wxZX9dNVldhUjomzH51H/cyPJHZwb12AKVEwOFdarRQKpzQaHCqTpu75njMuVKs3uQGtyJJN0X1aLLc4BqU3Fy4aZIz2SZs+cjkkTx2Pe3DlYtXKFrjkRyW63655I3Xr01Bdr69VrgPhcuYytRHQpY+AlysFkXNQrLz6PtWtW63kRJfyGkpbbRo2bYsjTw9GoSVPkz18g0OWOiCibkSmCvB6vCrspUwQFBMbNxtksMBkDdWWqIK/LFdIF2QSL1QZ7nF0d58yFrGQssLQiJya5dVdpX8RwECHPZ7HZYZeP0yhhmzJOvr/ke2zb1q347OMP8Pvvo5GUmGhsTSHfYblz50HZcuVw0y234fobb0bevPmMrUR0KWLgJcpB5Kr35k0b9RioH7//BsuWLkk1NldOBipWqqznzL3muhv0T7bmElF2JmHXI/PhqiW0F7PJbNFBVqb/sRgX86SQlc/j0fPnhl0CNKl9pZXXGihmFY3JpB6hgpfb6YbLG9GKLGQ8sHRh1i3FLEp1Ph3Yvw9///UHJk0Yj1WrlmPf3r2pLuoKuZB72eW90bPXFbrKs4z/5TAdoksLAy9RDiChds7smfj4g3exdOlidSKwP2q3ZalwOeiBR9CseUsUL1ECNnVyR0SU7XldumuxK6RrsbSyWlXYtZgl7Jrg97ggmyUURS9kZdIBWcaE6i7IUTKRyeSHXz3WleSEO/nx8jgzrDartBOr55ILiwxUF0piQgL27N2juzt/NeozLF2yKGrwlS7PJUuWQr0GDXHbHXfrITxEdGlg4CW6RElr7p49u7Fg3lx8/NF7WLp4kbElhVRaLlGypO62fMdd96JN2/a8sk1Elxxp4ZUWW5fuzhwoFGW1OWBV4VNFXXhUSPV71D4q8Z75pEhFVlsc7La0pymSglhedSxPcqaSFl2Z19cq/ZvVEehiWr5sKb75ahTm/jcbO7Zv19McRVOpUmXcPPB2dOzUFeUrVNDdnvn9SJQ9MfASXWKkgIdcyZYuyzJ/7rZtW1NdzZYv7QYNG+HGmwfqeXOlCzNbc4noUiYtuB4VeD0qgAYLRZllrK76zExU61NRn5PBeBM+9MOix/JKVWVT8nq1L7NQtiJdntevX4cJ48fht9E/Y/++vcaWcIULF0G16jXQoVNn9BtwjQ7CDL5E2QsDL9ElQAKtTMuwbMlijHztZSxetCDq2NwCBQrqasuPPfEUu2sRUY6T/LmoAosFXrhdbj09UaoTIamgbLUjzqqCrMzZG1lpWYdhCT2yTv20Bsb2Stdoyn6kR5TMUvDF559g/bq1OH78mL54HEm6PXfo2AV33n0v6tVvgIKFCrPGBVE2wMBLlI3JF/KihfMx5rfRuhCVVFuOJN2WpRBH335XoZ0KuXKblZaJKOfyq89AP7xSWEpafEMvDpplXK9FF7GSrsg6wEYZ/xtO7WO2Ic5hZeDN5iT4SuBduGAeJvw7Tn+vRuvyLN+rlSpXQZOmzdCt+2Vq6ckpjohiGAMvUTYjLRTOpCTdbfnlF5+P2por3a3kSnTtOvUw7Jnn0bZ9R/0FTUREfj2m1+n0wONLGbOrpwoKVmw2uqyaoQKxhF21pJl3JRirz1u7Vcb1MvBeSqSy82effIjvvv0Kx44e0YE4GofDgXvue1At9+tWXxkixG7PRLGDgZcoG1myeCHGjxuLSRP/xepVK6N2uapdpy569LxcT64vk+yzuxURUQi/Hz5XIpwqwQYrMevpiewO2KSCsg4qUlxKbfR6kORSYTckGCdT+5nV4yTYWFXg1ZWbjU10aZEuznP/m4NZM6Zh+rQpUXtTibj4eD2VX7v2HdC+Q2fUqVuP9TGIYgADL1E28N+cWRg+9EmsXrlCX2GO1qJbv0FDPPv8S2jRqo1u3eXVZSKiKPw+eJ1JuouyLucn43XNNsQ7AuFVr5Itfi+ciW7d5TniE1eyLkwWG6wqzEhIppxB6mXId/CK5Uvx2isvYurkicaWcPL3SIJujZq18NAjj+Oyy6/QrcBEdHEw8BLFIGm5lSvIM6ZNwR9jfsOypYujVlquWq062rXviD59++u5c3klmYgobTJProRZZ4IT7mCrrbTu2hxwWAJB1mzy6amFooZds1n9T4VcqzG+V+HFxZxry5bNGD/2b8ycMV3P73vw4AFjSwr5+1G6TBl07dYTHTp2RtNmLfR0gER04TDwEsUYGZv7v9df0RWXpRuV15t6ugwpPPX4kGFo0bKVrrzMbstERGcXCLwqzJ52wR0MsyaZJ9eOOLtFF6jy+nzwSOuv+pl8gqT2sVissNnM6hiBJl2O16WgxIQEHDx0EOPH/aPH/G7etNHYEs4RF4eCBQuiY6cuuP/BR1GzVm1jCxGdTwy8RBeZdI/atnWLDrrffv2lrrocSQpOlStXHs1atMS119+Etu06sNIyEVEG6XG5anEnJelphgL9Zkx6DK/Voj5TZV5er89Yb1AB16oLWhn7EJ2By+XC3Dmz8Ptvo3VRSQm/TqfT2BpOWnsHXH2t/lmtenXkypXb2EJEWYmBl+gikdaD+fP+w+effqSnQNi7Z0/U1lwpenHPoAfRqnVblC5dht2WiYjOhRStcjvh8njPUHnZIN2dVdiVoMuwSxkh3+cHDxzApk0bMPrnHzH6lx+RlJhobE0hXZ6LFCmKChUr4cp+A3QALlq0mLGViLICAy/RBSRfgBJsZazPh++/gwXz56YqQCUtt8WKF0fdeg1wz733o2PnrsYWIiI6Z+oz12LyIkmmJZLW3IjPYBEYl2uC2eaA3ap+svsynaPTp0/hx++/1eF327atOHTwQKrvf5E7dx707nMlrr7melSvUUufD3BaQaJzw8BLdAFI0JVW3O+//Vq36koXp2hBt179BsldlqtVr8EvOSKi80F9/upPYK8bHo8brtDONdKqa7XBYZUW3UAhK6KsIt2b169bq4cv/f7rL/rcINr8vlLVuVLlKmjUqIkuTNmuQyc9AwMRZRwDL9F5Il2Wjx07isULF+DtN0fqoBut0nK+fPl14YpHBz+JDp26sAAVEdGFogtTpczHq6nPZflsZqsuXQjr1q7BJx+9j8mTxuPw4cNRuz2LsuXK4a67B6nwOwCFChfieF+iDGDgJToPpFDFmN9/xczpU/WXmUwzFEpOpmrXqavH68g0BfXqN2TQJSIiyoGkx9eB/fuwaNFCfd4w4d+x2LFju7E1XMGChdC4aTO0adsOPS/rracnJKIzY+AlygLyZSVdkqSL0jNDh2DJ4oXGlhQSciXUShGqocOf12NzZR0RERFRkPQGG69C72svj9Ddn+X8Itp4XzmHaN2mHQY/+TSat2ili1pyBgei1Bh4ic6BfCmtWL4MEyeMw4Tx47BS3Y5szRU1atbSk873uKwXGjVuqsfmEBEREZ3JyhXLMX3qZMycOR3z5/6HU6dOGltSSMitUrUa2nfopMf6yhz9hQsXMbYSEQMvUSZJt+Xnhj+NxYsXwpmUFPXqq4zNfXbES2jbtoOecJ5XXomIiCijZH7fo0cO46svPtfTGR4+fMjYEk5aeQsULKSnN7r/gUdQslQpYwtRzsXAG0Pkqt0tN16L9evWGGsoVjmTnGl+2QRJNcXCRYqw2/JFlHA6Ably58Jd9wzCgw8PNtYSEVFmffzhe3j/3TeNe3QxeDxeHD50MOrc/aFkpofCRYrCauWMD7EsMSERFStVxuTpc4w1lNUYeGPI8ePH0Kt7J6xZvcpYQ0RZ4YkhwzBk6DPGPSIiyqxXXxqB11990bhHRFmhXLnyWLZ6o3GPshr7VxIREREREdEliS28MSSyhbdshVK48d4B+jYRZcznb36Pg/sP69ts4SUiyhqhLbzxcQ48cf8dKF2iuL5PROn379RZGDNukr7NFt7zi4E3hkQG3tadm+H1UTxJJ8qM23o/jPUrN+nbDLxERFkjNPAWyJ8Pc8f+gioVy+n7RJR+73z2NQY/95q+zcB7frFLMxERERHRBXY6IRFOl8u4R0TnCwMvEREREdEF9Me/k1G8TkuUb9wRq9axZY/ofGLgJSIiIiK6gN78+As4nS4cPnIU347+w1hLROcDAy8RERER0QXUtV1rWCxmPVduh1bNjbUptu/cjWGvvIVvGIaJzhkDLxERERHRBTTs0fvw3z8/Y/nUP9GzcztjbYCM7W3Y5Uq89v5n2LFrr7GWiDKLgZeIiIiI6AIymUxoVK82qlepZKxJ4ff7WcyKKAsx8NIlS74wgkua1Kaz7eNyuXFo/xFs27QTO7fuwfEjJ858TCXhVCJ2btuDrRt2YP+eg/B6fcaW1ILPHzym/Dxx7CT27tqvjpOg1xEREdGlI/K7PyjVupD9IvcNdfLUKWzcuh1r1m/Crj374PF4jS2pRTve0eMnsH7TVmzcsh2nTqc+90hMcmLrjl1Ys2ETduzeq47vMbYQxT4GXrpkff7m97ip2yAMu/cVHD960lgb7qv3f9b7DLnzRRw9fNxYGyBfBLMnzcdD1w/F3f0H48Hrn8b91z6FO/s+huGDXoUvSoh1JrnwtTrmXf0ew/3XPIUHbxiKewc8gYdvHIY1y9Ybe4Ub+fQH+jWMeOQNnDpxGqPe+gF3qee476on8dV7Pxt7ERER0aXi8+9Ho0GnPnpZv2mLXvfD7//o+616XQO3OxAoP/zqh+T9rr/3Mb0ulM/nw8gPPkfLy65BlwG3oPs1t6H9lTfgsuvvwLwly4y9Uni9XnToe6M+3nV3P6KD7KvvfqKe82p0vfpWdLnqFnS7eiCmzJprPAL6dmd17E79btbHl8fLazl05KixB1FsY+ClS9aenfuwdeMO7N6xT3/AR7N/z4HAPtv3hu2TmJCE14a8hyfvfAErFq3B0UPH4XF7cfL4Kb3vtHFzUh3zyMGjGHbfK/j0f9/qlt2Tx0/C7XLh4L5DWDJ3hQrMQzHl75n6yynUPuM17NiyG++9OApfvvujbkk+sPcQjh0JD+FERESU/R06fES3lsqS5Ax0Xz5y7Li+v04F4GDr68GQ/aSFNdS2nbvR9aqBePrlN7F+81YcPXYCSeq8Y9fe/Zg2Zz4uv+FujP5rvLF3gBxV9g0+zxMjXsdzI9/DvgOHcOTocezZdwALl61Ez+vuwJhxk/D1z2PQb+AgLFmxCidOncKBQ0ewc/deva1dn+uxWz0XUaxj4CWKYuGspRg/ZhpgAlp0aIy3v30Bb3/3At75/kU89OxdKFm2uB5/E5SU6MSzD47E3GmL9P2ufdrjza9HqMe8iKdffxgFCuXTIfrt5z/FhtWBK7mRdmzehcl/z0CpciVw31MDcf/Q21C9bhVjKxEREV3KOrZujk9GjsA7Lw2D1WrR63p366TXyfLs4Pv1OnE6IQGDn3sNM+cthNlsxs1XXYl/f/wc49Xysdq3WJHCOH7iJB599mUdYqPZtG0Hvh39Jx666xaM/2kUxv34Ga69spc+v5HA/egzr+ChYS+hYP78+PzNl9SxR+HnT95ChbKl9eM3b9uJX/8JD9REsYiBlyiKOVMWwO1yIz4+Dnc8eiPqNa2FarUro27jmrh64BUYPfNzWG1Wva9chP33tym6FVf07N8Zz7w1GA2a10GNulXRc0BnvPDBU4jPFYcjh45h7tSFer9ICacTUbREEXz2xxu44e7+uO7Ofuh/8+XGViIiIrqU1a5eBbddP0CHVwmxQgpbyTpZenZKqeY847+F+HviFB1O7xt4PT594wW0btYIjevXwcBr++E9FZot6hjScjvyw8+NR4WTeYB7dWmPEU8+hOaN6qNdi6b45H8voFObFnr7rr37kJiUiNeffQI3DuiDpg3r4srLuuLPrz9Cgfz5dI+1+UtWpOq5RhRrGHiJojEab6XY1FEVUiOFtu46k5LwnxFiy1cug4efvUt9UaVsF1VqVkCl6uX17RWL1+ifkSRA3zX4JhQolN9YQ0RERJTai299pIKmHw67HQ/fdauezzfUFT26oHrVQAXocZNnIMnp1LcjPfnAXfoYQfFxjrB5gds1b4ore3Yx7gWULFEMNatW1rf37NuvL/wTxTIGXqIoGrWop6+uupwuvPzEOxj/+1ScPHEq6lXM0ycTsHPrbn27nAq8UtF5++ZdYcvhA0dgt9v0Pvt2HdQ/IxUvVRQ16rELMxEREaXtwKHDWLgs0Kusbq1qSEpy6grLocvmbTtQrnRJvc/JU6dx+Gjqi/f58+VFvVrVjXsBckG/TKnixj3g8u6dYLcFzl+C4hwOFC5YQN+WOYMDI4OJYhcDL1EUrTo3RfseLfVtaeF94dE3cXffwXj/xVFYu2Ij/L6UD3e3y6PC8Gl9e+aEubih6724vvM9YcuN3QZh6fxVeh8ZyxtN7jy5EBcfZ9wjIiIiSi10TO7CpStRp32vqMv4qbP0PnKxXkJxpGAgjpQ7Vy7jFlClQjnjVgrpxRYcYxw6tRFRrGLgJYoib748eOGDIRjy2oPIXzCvXicttT9/8Sfuu+oJPWY3yKc+7L3utOe7i5TWl4Mjzp7cCkxEREQUTWIa3ZPPJNq5RzC0nonNGqhXEkoGbZmCY7+IsgEGXrpkmYxxtB63B940JkhPOCVdcaKTbj29r+mG7yd/jGFvPILWXZrpLweX041Xn3oPi/8LdCeyWMyIy+XQt3td1QXTN4zBjE1/pLn8NucLvS8RERFRRhXKn8+4BXRp1woJ21accdm5dCYqR2mpJcopGHjpkhUXFwih0oU4MSH61dC9u84+f1zBwvl15eUXPxiCe568Va/zeryY+Mc0fVuep2CRwFiWXdv36rG/Vqv1DMvZr6gSERERRWuZrViubHKhKZkz1+v1wmaznnEJLbZJlNMw8NIlq0TpYvrnoQNHsG7lRn071MyJ8/R43GikyJRUaA5ld9jR/+ZeukVXHDtyQv/MlTcXKhsVmFcuWotJf81Is9vy7h37kJQYfQwvERERkYTTYKA9dORoqnMKGf7U//Lu+rYUpBr1469Rzztk7O7GLduNe0Q5FwMvXbKq1KqIuHiH7tL8/kujMHfaIv2FIGX8p/4zCy8Nfgu+iFAb9Okb3+GDl7/AkYMpVQ2dSS58/tb3yUE4WFFZrpxKC7CQL5c3hn+En0f9qefxDZL5dz8Z+Q2evvsl7NsdvUozERERkRSFKlaksL49e/4i7D1wSJ9fbAoJr08MugMF8uXV619880N88s1PcLpcxlZg38FDeG7kexhw+/3GGqKci4GXLll1G9VEzfrV9O3DB47i8dueR69G12NA29sw/IHX9Jx1VWpW1NsjSWXmn0f9gT7Nb9JVlu/qOxj929yG7z/+TV95rVqrEvrd1MvYG2jcqj7ufPRG5Modj4TTiXjvxc/Ru+lNuO3yh9Tj71XHuRnffPALDh88ajyCiIiIKDWbzYaWjRvo2yvWrEeN1t1RrmF73PLQk3qdqF6lkp5/V/aVVuAHnn4BZRq0Q4vLrkLtdpehUpNOeOXdT1TwPWw8gijnYuClS1be/Hkw/M1H0eWKdrDarLp19/jRkziw5xDqNKyBN756LjkQRxYbbNSqnh6XK63BUp159dJ1OgTL1EE333cVXvt8OPIXTCkaIW4adBWeev1BVKhSVt8/efwU1q/arB6/U09RV6NuFTww7A6ULBPoah1kNgX+GerxNRxiQ0REdMmzWFOqH0vtj1BWiwVPPHAnWjVtpO8nJiZh/6HDan3KY6QeyKP33obvPxip59KVc4hjx09g8fLV2LB5G9weDxrXr4O3RzxtPCJATjOCzycX/jNFPVewMCjHBlN2YDpy0hV9sCFdcMePH0Ov7p2wZnVgvtbWnZvh9VHP6Nt0DtTf8D0792HD6s3weLwoU74kqtWuDLMxFjctSYlObN24XXdBlnl3y1QohfKVy+jpg85m26Zd2KYeK8fIWyAvqtSogGIli/CL4QK6rffDWL9yk779xJBhGDKU/5aIiM7Vqy+NwOuvvqhvF8ifD3PH/oIqFVkB+HyQC/VrN27B2g2bUKhgATRtUBd5cqfMkRsk3ZpXr9+EjVu26XBcqFAB1K9ZHaVKFjf2oFj0zmdfY/Bzr+nb5cqVx7LV0evK0LljCy9d+lTGLFWuBDr0bI0uvduhRr2qZw27Qsb/1qxXDR3V4zr1aqNCcqV0hV1RoUoZ/Xw9+nVC605NUbxUUYZdIiIiSjc5b6hVrbIuUNWxdfOoYVdIi23dmtXQr1c33DDgCvTs1I5hlygEAy8RERERERFdkhh4iYiIiIiI6JLEwEtERERERESXJAZeIiIiIiIiuiQx8BIREREREdEliYGXiIiIiIiILkkMvERERERERHRJYuClbO/YkRPYv/sgDu0/bKyJLUcPH9ev78C+Q8aajEk4lagfL4vL5TbWpnC7PHpyeiIiIoo98h29Y/devew/mLlzgfMpMSkp+fUlJCQaazNm5559+vFHjx031qTweLxq8Rj3iC48Bl7K1uRL5Kv3fsIjNw/Hi4+9ZayNLZ+O/Ea/vuH3vWqsyZiZE+fqx8uydcN2Y23A7Mnz8eSdI/D2c5/g9KkEYy0RERHFCq/Xi8uuu0Mvjz2XuXOB82ne4uXJr2/G3IXG2ozpf9v9+vEffvmDsSZAAv5tDz+ltj+ApavWGmuJLiwGXsr2pGV3++Zd2L1jn7EmthzYe0i/vl3b9xhrMubksVP68bI4k1zG2oA3hn+E+TOW4K+fJmLpvFXGWiIiIooV0gdr/eatetmxa29gZQw5dToh+fWdPHXKWJsxG7ds04/ffyi8t913v/6FH8f8g3FTZuCLH36Fz8ceaXThMfASZWMlyxTTP61WC/IVyKNvExEREcWCMiVLwGIxw2QyoUihguqnsYHoAmLgJcrGXv18OJ545X689+PLqNeklrGWiIiI6OLrd3k3jP78XYx66yUMefAuHXyJLjQGXqJsLF/+vOhzXQ/UqFfVWENEREQUG2xWK3p364SbrroSDrvdWEt0YTHwEhERERER0SXJdOSki6PHY8Tx48fQq3snrFkdKD7UunMzvD7qGX07liQmJGHxf8uxYtEa7N11AH6fD8VKFkXthtXRrG1D5M0fPpbUp7b//s1YfbtspdKo37Q25s9cguULVmHf7gPIky+Pfmzbrs1RqEhB+Lw+rFu1CfOmL8bOrbvhSnKheOmiaNyqvj6+zW7TxxJSpXn4oFcxbdwclCpXAqNnfq6LRM2fsRhrV2zUUwLlzpMLlWtUQIv2jVGhatk0u9O4nG4snL0Uyxeu1q/L5/WjcNGCqNe0Flp1aor4XHHGnuHk/W1YvQWL5yzD1o07cPpkAgqpx9WsXw1tujTDC4+8iXnq9RQonA9jF4dXLxTyHuR9Lpi5FJvWbsWJ46f0a65etzLadG6OWRPn4e0Rn+p9P/r19bCuywtmLcWOzbvgiLOjyxXt1GuMN7YAcyYvUH8++1GwSAH9u925dQ/+m7oQ2zbtRFKiU63PjyatG+i/Zzab1XhUOI/bo38nS+etxP49h/R71X8WLevr1yHHO370BMpXKYumbRoYj4oNt/V+GOtXbtK3nxgyDEOGxt6/JSKi7ObVl0bg9Vdf1LcL5M+HuWN/QZWK5fT9WOFV31XLV63FtP/mY/W6TThx8iQKFciPerVqoGuH1qhWqUKqc4Eps+Zi3cbNiHM4cHWfy7Bp2w5MmDoTazZs1lWWq1augCu6dUKDOjVhNpuxe+9+TJg2CwuXrcSBQ4dRqGABNK5XG1d074xSJQL1NYLcHg9yla+nb7ds0hAz/vgOy9Trk+dcs2ETTp46jWJFCqNZw3ro0aktihctoveN5uDhI/p55y1epm4fVd/fNlSuUBbtWjRF2+ZNYA85Rwq1Z/8BTJoxB4uXrcLeAweRKz4OtapVQfeObbFj1x70v/0Bvd/3H/5Pv/9I8hqDz7t7335YzBZUKFsaPTu3R6umDVGoelNd/OreW6/Huy8NMx4VeL2//DlO/b7N6Ny2BapXqWRsCRS6mjh9NuzqPfTq2hG51DnMX+On6Oc4fPQY4uIcaFK/Dvr16obSJYobj0pt5dr1mDxzLlat24DjJ06hSGH5s6iDPj066z+/1Wq9tC7fcePVxiNiwzuffY3Bz72mb5crVx7LVm/UtynrMfDGkOwQeGUutWH3vaLC2ZJUFYMlNDVVgfSVT4fCak0JUG6XGx2q9dW323VvoUPtuF+nqICZ8niLxYLGrevjuXce12H6zWc/xtFDx4ytAQ71wXfTfQNwy/3X6C8bERl4JRAOvvVZbFm/XX1B+fQ+Qr7YipYojCGvPYjm7RoZa1NIaHvh0Td1sJMwGEoCdsWq5fDGV8/pIBvpzx/G45PXv8bxYyeNNQEWqwWNWtbDSRVg16nwnVbgnTVpvq62fPjAER0og+Q9lq9SBl16t8Nnb3yn10UG3hGPvIEJY6Yhf6F8+GrcuyhWIuVL8vHbnteBtEbdKuh1dVd9jJPqi8AfUiHR4bDjiuu64+Hn7jbWpJALG0PvfUVfmIj8ncTFO/RFgC0btmPbxp3o2b8zhr3xiLE1NjDwEhFlvewQeD//fjSGv/Y2Dh85ps8TguRcoGypEvj507fRpEFdY23AHY8Mxde/jNHBdcgDd+KVdz/FseMnwh5fRj32uw9GokK5Mrj6zoewZPlqeFQYDpLv7Y6tm6vQ+AYKFypgrE0deAcNvAGPPvsKDqkw6As5vhSgbFS3Nsb/NAp58+Q21qZYt3EL+t12P7bt3AW3O3xe2zy5c+GOG67CS089okJveNfh7Tt368etXr9Jh/cg+X1IOL9GBdw3P/5Sr4sWeHft2YcbBw3GouWr4Aw5dxP58+bBWy8MxYNDX4gaeJeuXINmPQbAqs7zPnvzJdw44ApjC/DLX+Nww72D9Xv9eOQIvPHRFyq8blDvzW3sETg/rFi+DCaP/ipq6P1hzN947JlXdUAO/bOS52tQtyaKFCqE8VNnoqD6u3pgzTxja2xg4L1wLE8+Pfw54zZdZE5nEn747mscPHhA3y9XqTS69mmvb8eCEyrQDbnzBd3yKq2wdRrVQOfL26Ju40AAk1ZRaUXcsXk32nRprgOfkH2/eu9nfVuOsWHVZtRpXBPturVEiTLF9TppFd2zc58Ox6Pe/h5WFZ7bd2uhW3Xz5M2tpx6SgC3Hb9+jdVgr8rRxs3Xokueb+s8sHNhzCPWb1Vb7tdKtrOKICs8SPJfNX4kOPVvrYwa5XR6MHPo+Zk5QH4Tqw1Ie0+myNqirgqW8DmkxPrjvMA4fPKpDnnz4Cgmn//wyCa8//T6Skpz6mM07NEYH9bylyhVX61xYt3yjeu6j+kM4LpcDN9zdXz82aL36XQwf9AqOqGNLiGzQvI563S11wJaqhhLcly9co3+H4nIVXIuXKqpvixkT5mLzum36sVfe0FO3DAdN+nOG/n3Ja5OLCLKtffeWaNqmodo/Dvt2HdATwa9ZtkGHYvn7FuRUj/nfsI8w/d85+iJHmQol1Xtvplusi5YsosO5tKCfOHpSv7eqtSqhnTp2LPnzx/H6dYrWbdqhTbvY+bdERJRdzZ41A3Nmz9S3pQVOQlahgvn1/YtNWnZl6psHnh6hw5cE1L49u+iWvsKFCuopgQ4dOYrRf4/XrbVFCxcyHgn8NWEqlq9ep8PWgqUrdItr/8u7o0n92ur73o+Dhw7j+ImTWLNxs26Z/W/hMrRt3hhXquNXKFsGR4+dwImTp1QY3Y3yZUqFBWo5X3jp7Y/07TiHXT+XfMd379AWV/TopFucT5w6rQO6tJ5OnT1PP7f8foPWquftN3AQNm3djvi4OHRr31q3fNapURWn1XuVVtslK1ajYrmyqF+7hvEoYMv2negy4BZs2LJN32/eqD7695L3VQe5c8Vj/aatmL94efIF9/7qmLXVMYMS1fnA7Q8/pd5zICzWrVlNj8lt06KJ/nOXMPzrPxP0703yZlP1vnt2bqf3FfvU6/rsu1/0xQBp/a5Xq7qxBSqAb8TvYyfCpP6bs3CJOtZedG7TUr/3sqVL6pbzU6dP48jR4+rP7Rgu69I++RxMzj1+VX+ONw16HAmJSeq95EKXdi31n0fDurX0RYYlK9Zg645det949bt8fNAd+rGxYv6S5Zg4fY6+nT9/Adwz6EF9m7Iex/BSuo3/fapuARU33tNftz7fP/R2tdymbg/XLZFCAuhSFSyjOXbkBK64tjte/XQYHhh2O557ZzAee+Fe5MoTr1seR3/5F6wWKx5/8T4Me/NRPPTMnXhF7SthTq5EHlTBd5nxGiIdO3wcu7bt0cd99bNhGPT0bfrxr496Fp16tdH7SLfc914cpW8Hjfl+HKb8M1t/IHa5oj1GfvEsHlSPe0C9t9c+G46uap2YqcLl7u0p8+ft230QP3zym35cgUL51OOewYj3nsDdj9+Mof97BG9/+4IK162Sw2qk06cS8MygV/XvRMjrld/L/U/fjiGvPqhfR+9ruumLAOfi1InTumv2W+r1yHEHPT1Qt8Lf9tB1xh7A1LGzwl7nWhXUp46drW83aFYHb33zAoaOfBh3PnYThr/xKN746nkUlu7nIS3SREREF9PKNevx/P/e0xdqa1SphPE/fo5P/vcihj86CN++/zp+HfWu7j4rwfSDL78Pa+0MkhZbCVv/qse+9/JwvP/Ksxjz1QeoVa2y3r5gyQrdDfeem6/Fb1+8j5HPPolvPxiJD159VreyyjnBKBW607Jp6w7d+vvHVx/imw9exwtPPoyPXn8eY7//VHcxFktWrsHfE6fp20Gvv/8ZNm/bqYPdWy88pVupXxzysHp9z+D3Lz/Q4d2lQucTI17X70/IfQnaO3YHzl0ev+92/PnNR3jj+SF4+8Wh6nHv43/qdlrDmsR7o77Fv1Nn6dvdO7TBH19/qF/vG88Nwa+fv6dbZuU9n8v8uk6XC3v2HcCHrz2HHz95Cy+o9/XlO6/qlu7CBQMt5QtUONy7/6C+LeQ9vvlJoFW6QL68+OmTN9XyNl4Z+hjeGvE0/v72Y9x6Tb+of8aU8zDwUrpN/GO67iYsrYHX3NEX+QvmM7ZA35bwmztv4MNeWhTlZyQJhr2u6Zo8HlZCbMuOTVGmfCl9Xx5Tv3lttOrcLLnbsoxPldZam119IKtDrlq2Xq+PptfV3dBbBWrp/hwkz3nvkFv1axPy2qTVVpw4fhLfffSr/kAsWaY4Hnnu7rD3lSdfbvS5vod+LdKtd8rfgavaYtXitboF1Wwx48Z7r0K9prVhdwS6Ecn7kpZY6X4drRu0WPLfCt0qLnr064S+N14WNk64QKH8uOPRG5G/QMrryQzpki1BVVpw5bUKeR55bUWKB65uy4UA6cIc9POoP3Qrr3wJXnN7H91dPPhYaUmXFt1BQ2/TLeBERESx4N+pM7H/4GEdPN968Wk9XlRaUoV08+3YpoUewyukNVRabCNJC+Lt11+lQ698lwvpSjvotpv0bVG8SBHcceNVYd2Ou3Vsg1JGl9sVKnhLiEvLkAfuQqN6tXUFYyHnGJUrlNOvWcaayjnJjLkL9DmX2LZjF376Y5w+R5LXf32/3npIUlDVSuXx3OOBMbjSgj1tznx9W0LkzLkL9W0Z3/vS048mB0iRJ3du3DSgD9q2aGqsCXf0+Am8P+o7fXFbQuUHrz2LsqVKGlvld2rTrbH333aDsSbzpLX6hv5X6LHFQv7cpDVZWqOFtPYePXZc3xbyO5YWXHHVFT3RpX3r5MfKn5u00A9/9D79eyVi4KV0kVbIjWu36tt1GtfQIVQCUugiY0+C3W337z4Iryf1VTUJf+UrlzXuBUioqlKronEPupt05NXGEqWKJXdjOX445QMvlDzmniduNu6Fk7Gt7bq10LelxTQYNLes2667UwsJnRLmIt9XidLF1Ken3gWrlqSEbSlEJV8+MjWQFH+KplzlMnrscCS5FiDdmeUqtPwur70zMMY5UsHC+dGux7l1FZbnr1o7pUhEkARY6TotJMwHxwNJ0J0/c6m+XaR4YT0uO5qa9aqicLHoYZ6IiOhCmz1vkf5elpBTpXw5nE5ICFsSE5NQxQhA+w4ewml1P5KEpsb1axv3UjRrlNJFuWL5smHFl4SE12B3XQmIx46nDtNCuhFL195o6tesnnzcLdt2wusLnEdJl2EZgiRu7N9b3458b+1bpoRWKd4kdu7Zq7scS6Due1lXvS6SvJ5uHQK94CIFCmoFWosljJYpWULfjnSuXYXl9UngjaZe7eo6wCY6nWEXEf74d5L+PVuM9yZjdiOVKFZEd/kmYuCldNmyfpuu2Ct+/eofdK19FbrUGhC2XN7kRj3mVEhQDC0aFVS6fMnkq62hiqpgFRQMYaEc8Xa5ZKdvy7iMaCRMS6toWipVr6B/ygdkMOQeOnAk+Uvky3d/TPWeZLmyxS3J3X0PHwyMCRVbN+zQP6U7dsky4RUZg+QKbOGiKVdTg/x+Hw7sDXTNkVBZqEjqfYKq1gy87szKkzeXXqKRYldC3l+wRX7Pjv069Aqpbp1WdWpZnydKUQ0iIqKLYevO3fqnjMWt2rIbClRtErYUrNYE73z2jd4nISEx+fs/lATX0LG9QSWLpXzP16hSUQetSIULpJyDRDu2qF65om6BjsbhcKBYkcBzHzt5MrnI5PI16/RPMeD2B1O9L1lqt+tl7KHOVY4Gin5u2KzO3bxe3WpcpVJ5vS4aqfIcjXQhlm7RokPr5vpnNCWKFY1aZCu9ZExysSi/c5E/X14dZuXcLbTb9OIVq/VPk/pzqFIx+nuTCtbS0kvEwEvpIoWlMkI+mIIBKpTdEb1cvpFltWgl9eXqXvgEAqmFTlcUTWhBpyCZ8ii0avHZuN0prdanTgSuesqXnrTSpi31K5ffTbDysTw22kWAZKG/nEyQK6eyRBNsNQ916uRp45ZcoIh+NTdAva5ze2lERERZRlo600sKXEU7T5HzjWBX41Amc8oXXuiwqVASvs4mdxphV+jziWCF5ZDXllZrcVqCDRTBLsByjhHs7htNsOt2pMTExOSQKdM6nUlax0gPs/rdRjsfEbI+2rEPHzmqf8qmIiEVsSOdy+uiSwcDL6WLjGUNuu+pgZi67rczLq98MlRXDr6Q0ioOFbR/T6BFVcJf8LXZVAAPfok9+87gqO8ldPnm33f1vsJqBGy5iptwKlHfjkZau1NTH+5GFWt5rCckSEc6fSIlgF4IoeH76OFAQa1oZIyRdMkmIiKKBdJSKNq2aIJ9K//DiU1L0lx2LpmBiuXK6P0vpGAYjUZ6sMmcwSJPrlzJYS1fSOvp8ql/RX0/oYsUpRLB8Czf1SdCLmZHkirP0VgsVh0oxe79gaFg0ciFA6nmfCFZrUYjh8rjUpE7LdKNnYiBl9KlQtVyya2EUqlYij/IFc60lrO1tp4PUsE5ergMfBjLmFshhZaKlQqMNZYxssHguWH15qjvJXQJFqUSxUsG5rxNTHTq545GKkcfPRw+n7CQq5nBYlTHjqh91BKNvO75swLjaS+U0O7l61duDJsvOZS0+sv7IyIiigVlSgaKRh05egxJTifi4+PSXGTKn4vR+rdi7YY0C1odP3kKm7YFhkuVL1c6+QJ09SopdU5WrtsQ9f2ELtKVV0jhLSFTBsl0SdHIecbCZdFnvyiozlOCY2MXLlmuf0YjhbFC5869EGRuXiHzGEvl62hkSiOZ5omIgZfSpUixQihZLvBFsnTeqjQD3sWk5/B963vjXrgFM5fo+X+FVBwOjrktV6kMHEY4H/Ptv3rO3PSq27im/nn8yAksSCOUrlm+Hnt3pv6wlS/ZcpVL6+ArXZu/+2i0sSXcmuUbsHxBYJzKhVK0RBGULBv4s5bXvmRu9C9CmX7q+NG0W4CJiIgupEb16uif6zdv1XPpxiLpdv3vlBnGvXA/jflbj5uVc4RGdWsnd/Pt2SllHvmPvvoBCYlp9yoLJdWb8+XNo7tvj/7rX2NtOHm+4FywkSqXL6vHFYtPv/sF+w4EZrgIJQUvH3nmZePehdOlbaCgp/Q2+33cRD2ULpJM47R4+YU9h6LYxMBL6dbpsja6+++OLbvwychvsHPr7rDxr8ePnsTkv2fiidtHGGsuvJ+/+BP//jYFLmPuWvkAXDZ/Fd598XN9FVPGy977xC3JrdXFShZBt74d9e2kxCS8OuQ9bN+8S98PkgrVMgfv5ypMB4s5idadmyFfgbz6uL+o550zZYHaHrhqK+F70ZxlePeFUcnrIkll51xGN6Wp/8zCb9/8o+fmFfK6163ciPdfHKWPf0GZgOvv7KerOMvv8VsVxjet3Zo8jufk8VP49eu/8cMnY/R9IiKiWHBZl/bIlyeP7sIr89FOmjFHt/QGSTibt3g57ho8PM1WzQvh5bc/Ua9jmQ6iQkLw17+MwYg3PtT3ixQuiF5dO+jbokmDOujQqpm+LVPxvPXJl3r6oSA5Z5AWXCnI9eVPvxlrgdIlS6Bx/cBFAHm+Ya+8lTyXrZxbbNm+E8NefRtrNwYaBCJJMajg8zqdLtz35HMqRKa0psprGPrKm1i1bqOx5sLp06NL8jRQP40Zi19UoD+dELgQIH/Os+cvxsCHhuC40UWccjYGXkq3K2/oqVt6xYQx0zDo6iF45JZn8MqT7+DRW57FwF4P4uXH38aqpSnVBC8khzEu93/DPsTAyx7C0/e8jLv6DsaQu17E9k079RXTK2+4DE3ahE8hdI8KwDXqBcrWz526CPdfMwQPXPeUfi8S3m+/4mE8++BI3dIaWiGwcs2KaNstULXw4L7DeOb+13BP/8F48s4XcM+AJ/DUXS/pbr/BuW4jla1YSs8PLOS47780Cndc8SiG3PmiOs4TePTmZ7FqyTo0b9dI73Mhde7dFrXqV9O35X0/dMNQ9ef9JJ64YwTu6POoDuIyr/GZqksTERFdSK2bNcIN/S/XtyUAXn3nQ2jT+3rc9vBTuPG+wWjQuQ9633Q3vlKh8NSpC1sfI6hg/nxYvmYt+tx8L9r3uUG/xpa9rsEDT43Q4dxqteLj10egakjlYTl/eeaxQXoO3cSkJB2YW152Nfrfdj/uemw4OvW/Be36XI+nXvwftu3YYzwqUOF48L236dsScEd+OErv1/fW+9Dt6oHo2PcmfP/bX2hihOJI0jjw4WvPqWAZ6BU3dvJ0dOh7I3pcezsuv/EuNOs+QM/T27JJg+Tx0xdKieJFces1gSkdJXjf+dgw9Wd9La685T507HcTrlTvceuOXahQtrTeh3I2Bl5KN5mP9sNfXkPTNg11S+nhg0excNZS/PPzJMyfsRgH9h5SAagguvVJuSop9BgZY5iMdOHNDH0MQ+p6zYH7EsZf/mSoDpjbN+/EjPH/Ye3yDTh14jQKFC6gA/vAh64NO5aQ6XWGv/koWnRorEPzkUPHdDfesaMn61bbA3sO6bG+9ZvW0uN/g2Te30eeuwc9+3dG3vx5dNfkDau3YPak+br7dAH1mHufvDV5OqTkX4JBB/Dre+CuwTfp4OhyunXr+axJ87B66Tp9fNnWqlP0CeFF8L3I/0f+XpLfZ8T7DZWyT+BHUP6C+fDEy/ejXuOaejy2tHKvWLQGcybL7+OgvkDw1OsPJk8DZbVFr65IRER0oUh15bdfHKbnhS1VvJguZrR89Vp8O/pP/PznOGzYvFV/3bVv2RzlI4JQ5LlBZphDjhF5uODxa1WvgqGP3Ce1ljB/yXKMGTcJazds1uN6pUX1IxUwr+jeKdXradO8iQ6f9WvV0I+VQP/XhKm6RXfOgsU4ePionsO3WcOU+YLlCDLH7ncf/k8fO9gS/M+k6Zj+3wIkqPB8iwqNd998beABIuJ5ZYqmb95/HY3q1tKvSbo1T5k1FxOmzdZBs0entvjj6w9VUA+cB0S87bD3EXFoJbBC75NqW0Aaq3VF6yEP3o17brlWT+WUlOTULc0SyqX1voAK+88OfgDtWgTOoeRCAuVcpiMnXRe4vySl5fjxY+ilPuTWrF6l70uX2ddHPaNvxxKZtmb7pl1YvWQt9u0+qAsGSGCrUqsiylUsg9LlSoSV75eriisWrZVbKjgWQLlKqa+27dt9ILmKco26VXSBqFAyRmPNsg36w1qKPVWomjJnnHRBlsJPEsJr1K2KPTv2Yen8Vdi2MdDtRlpSazesgfJVyiZ/IEcjc/NuVY+RcbP71euRqs/5VPCrWrsSyqvXXKJMcR1CI0m33y0btmPZvFX6PUgF6Moq5NasX1WPF962aadu6ZUP29oNA5PSh5KKjTu37tEt4/Ka5YpqBfVaazeqgTLlS+pxsru279X7VqlZMWx6JelWLgFdjl2tTuWw1yfHOq6eN1fueBW6yyePBQoVfLzsU7FauVRfCHKxYN3KTVipwq68Bwm4NepX039G8vfgkRuHYbf6fV97x5V4YNi5TTyf1W7r/TDWq9cunhgyDEOGxt6/JSKi7ObVl0bg9Vdf1LcL5M+HuWN/UWEq9fz5F5MUUJLxm8tU2JUQdOLESeRXr1XmwK1To4p6vRVSzYW7aet27Dt4SIfmhnVq6uKcoWRGhnlG4aaSxYqicoXU71m6CO8xqhk3a1gPdqN4lJwH/bdwqToL8iN/3ryoVqkC1m3aoos9bdmxU1dhblCnllpqonyZUsnDrqKRwLlq7XrMX7oCh1TIle/9MqVKqtdcQ72m8rrlMzR4CzlP26GCrgTBZavWIsnp0q+/eaN6qFWtim5ZXr0h8H1ZQ4XmIoUK6ttB8vqlK/TSVWuwaOlKHD1xAmVKltAt6vJ4aUmWLtMy569caKhUPuUcTboZy+Pkony1yhXC5jiWwCy/BymMJceR8caRZB+5UCHq1qyear5ffX6oXvvMeYuwbccu/edWs2ol9d7qo2K5srjp/sfx69/j9Wta/98E41Gx4Z3Pvsbg517Tt8uVK6/+vl74ruE5BQNvDMkugTenkvHKoUE+p1u5eC0evfkZXRn74WfvwoBbextbYgMDLxFR1ssOgZdISLXuK265F/MXL0fH1s0x8ZcvjS2xgYH3wmGXZqJ0OCLdt+csM+6RXO0d8904JJxO1F3CZdoqIiIiolghlbpXrd2gu0VL4S/KuRh4ic5CulG/9fynOuDJONucQIpw/fLlXyroH9OVqVW+1aTrkHRt/nTkt7pwmShdoWTUrtpERER04Xm9Pv19fSlLSEzCu599gw1btuHEyVPJ71cuyEs36tkLFuOWB4bo23ny5EGPTu30dsqZ2KU5hkR2aS6jgkTva7rr23TxyDjW7z/9DXHxcRhwy+VhY2gvVTIm+pcv/kLBIgVQrXYlXbBMJsA/dTIBm9duxeb12/WXixSa6NSrjdqnsvHI2PHT52Nw9PBxfZtdmomIskZol+Y4hwP33HKdLhpEsePY8ZN6XG6JYkWMNZceKfL1zS9/6LHFjerVRvXKFZA7dy49JZFMnSTTT506HajELWN5paJztDosF9O0OfP11FmCXZrPLwbeGBIZeIkoazDwEhFljdDAS0RZo2y5cli+OlB3hLIeuzQT0SXvUu/aRURERNmXDJ+j84eBl4guedGmZCIiIiKKBRYzz1POJ3ZpjiHSCnXo4AF4PGyNigXLly/FzddfleqqW65cufH+R5+habMWxhqKdQUKFkDu3Knn9yMioow5evQIEk4nGPcolixZvBD333snTp48oe/LfL733v8Q7rn3AX2fYpfdbkPRYsWNe5TVGHiJopBJ6x99aBC+//YrY024zl27Y/Tvfxv3iIiIiC6up554FJ9+/IGuVBxUvERJLF2xDnHx8cYaopyHXZqJoti+bSumTplo3EttyqQJmDo57e1EREREF8rePXvw0w/fhYVdsX/fXrzy0giOEaUcjYGXKIrPP/1If3mcybtvv4FTp04a94iIiIguPAm5Qx5/WM/2Ec1PP3yLTRs3GPeIch4GXqII0p1Zxuk+8NBjuP+hR1Grdh1jC1CoUGE89MjjemnbvgNOnTxlbCEiIiK68BYvWoBJkyYY91I7fPgQ/vzjN+MeUc7DMbxEZ+DxePDIg/clj+WtVr0G5i1aoW8TERERXUzSVXnI449g1Gcfp+rOHKp8+Qr6/MURF2esIco52MJLlAFn+jIhIiIiupBMJhMGPfgI5i9eiQVLVuGqa64ztgBlypbFP+OnYOHS1fj1z3Ecx0s5FgMvEREREVE2JIFXWm+rVK2ml4IFCxlbAJvVhgoVKqFylaqoXLkK4nPlMrYQ5SwMvERERERERHRJYuAlygB2aSYiIiIiyj4YeP/P3l0AtnFsXQC+C5LtQNOU25RSZmZuX5mZ4S9DyszM/MrMzMzMfWVmThpGx7akpf+e0cqWbZlJks/Xty+7kiyGPTszd4haga5CWIiIiIiKXdN9Fh6oJ2LgJSIiIiIiojLFwEvUATxSSkRERERUOhh4iYiIiIjKAIdhETXHwEtERERERERliYGXqCPYpZmIiIhKAIdhEWUx8BK1gd2DiIiIqBRwn4WoOQZeIiIiIiIiKksMvEREREREZYjdmokYeImIiIiIiKhMMfASdQCPlBIRERERlQ4GXqI2sAAEERERlQTusxA1w8BL1AFs4SUiIiIiKh0MvERERERERFSWGHiJiIiIiMoAh2ERNcfAS9QB7NJMRERERFQ6GHiJiIiIiMoQD9QTMfASEREREZUFdmkmao6Bl6gDeKSUiIiIiKh0MPAStYFHS4mIiKjU8CA9URYDLxERERFRGeBBeqLmGHiJOoBHS4mIiIiISgcDLxERERFRGbD0PyJqjIGXiIiIiIiIyhIDL1EHRPofERERUSngfgsRAy9Rm1gAgoiIiIioNDHwEhERERERUVli4CXqAFZpJiIiomLFXmlEzTHwEhERERERUVli4CXqALbwEhERERGVDgZeojawexARERGVAu6zEDXHwEtERERERERliYGXiIiIiIiIyhIDLxERERFRGcjv0oy6I6w9QsTAS9Qh/OEgIiIiIiodDLxERERERERUlhh4iVqBrkGseEhERESlgPssRM0x8BJ1ALs0ExERERGVDgZeIiIiIiIiKksMvEREREREZYBdmomaY+Al6gB2aSYiIiIiKh0MvEREREREZYgH6okYeInaxO5BREREVAq4z0LUHAMvUQfwQCkRERERUelg4CUiIiIiIqKyxMBLREREREREZYmBl6gDWPyBiIiISkGk/xERAy9Rm5LJpFRWVWWXior4VCIiIqLiwqJVRM1Zk6ozPPxTBLwwJX6YjreoWKBF9+effpCR//xjtpMaeNdeZz2zTqWnwhkotuXGW0RE1B5WFIgdevEWFbPzLzhPLrvsMrM+zzzzyLPPPCfDhw8321S8IrEldJLxFnU3Bt4iMbL6K6nOjI23iKi7WZYtwwYtLYOTs8enEBFReyTTk6RCFyp+l1x3q1x1051mfe655pDHbr9W5p9nmNmm4hVajtQM5oGJnsLAWwSCyJc/pnwoXlgXn0JEPWGWqgVl1gELxltERNQeVbX/iuvXxltUzCZNniKTpkzVNUsSriNzzTm7/sueTaWgZuA8EjocOtcTGHiLQMqfJn9P+0yDL7sLEfWkgYmZZd4ZVoy3iIioPQZN+03jE3cXiXpSumImyehC3Y9Fq4pAOqiRMPLjLSLqKSlvqkRRGG8REVFbHL+WYZeoFzh+TbxG3Y2Btwikg2qWjifqBYH4UuNPjreIiKgtrjc9XiOinuSEvlgsDtcjGHiLQJ2PsRZE1Buq02PiNSIialUUictWJ6JeErEaeg9h4O1jaNlFN0si6h3TMxP1U8duzUREbbHDDLszE/USKwrFCTLxFnUnBt4+VpOZoLve3Pkm6i2heJJmiwURUZtM4I0YeIl6ix2m4zXqTgy8fWxqenS8RkS9AUWrUCiOiIha52jgRV80Iuodtp+K16g7MfD2Iex4T8+Mj7eIqDdgGEEmqI63iIioJXbA1iai3uREnlghZ27pbgy8fSgdTOdYQqI+kPIReNlqQUTUskgcBl6iXud6PCjf3Rh4+1DKn8ZdbqI+kAr42SMiag1ad60oiLeIqLckGHi7HQNvn4l0pxtz23G3m6i3+WHGHHAiIqLCuNNN1DeckN2auxsDbx+JIowj5GTuRH1lGgvGERG1KJFh4CXqK9mCcdRdGHj7CMbuZlt4iagvTEuP1c8he1gQETWVnX+XNUaI+kYkdsBqzd2JgbeP1PnTJODRG6I+40dpyXB6IiKiZlidmahvOQGnBOtODLx9BK1LRNS3OI6XiKg5h61LRH3K9LJg3u02DLx9ZFpmTLxGRH0lOz0RERHViyLd2fbiDSLqC+YzyCrp3YaBtw9gJzuM+GNC1NcwF3bIHxQionoYu4vWJSLqS5G4PodddRcG3j5Q50+N14ioL2EMb8TAS0RUDy1LNqdEIepznBqs+zDw9rqIgZeoSHhhSjK6EBFRluOxVYmoGDh+nVgRq6V3BwbeXhZEge5k18ZbRNTXqjMsIEdElJPwOGUiUVGwLBaQ6yYMvL0sjHzJBAy8RMWimhXTiYgMC92ZWWOEqGiglZe6joG3lyHs+iwGQVQ0MmGdeAF/UIiI2JpEVFyyBeQ4P1FXMfD2sumZ8fr/fOMSFY9Iav0p8ToRUf/lsjWJqKigxwXH8XYdA28vq/YQeImKnSWWZfWbQzO13uR4jYiof8JONeffJSouVujrZ5OzSXQVA28vQndmj+N3qQQkbEeSVqV+0Vb1i9CbCWvM+Hoiov4KO9UWvweJigoORHEcb9cx8PaiWm9SvEZUvJzQEhzkz6R9iUL9orUHiCVOfG558oKUBGzZIKJ+DC1JnH+XqPi4PqcK6yoG3l5U47PbJBUnS5cEvg4CW0JdAj/SABhKFOgS2hJZuET58sOUeGE63iIi6n8cU7yPNUaIio1p4Y342ewKBt5eEkQeuzNT0XEwVhdxV0Mtwm7kWxp0dTM+Hzs/ge/rP7Zeqny/LiL9r8abGG8REfU/jsdWJKJihIoq2QNS1FkMvL0EUxF5Icv9U3FAQSpw9T8ncCXwLEn7iH1N6SlBoME4KbadiE8rT9kK6kRE/Q/G77qcMpGoaLGCetcw8PYSdJnk/LtUDBzbkUq3UmzPlXQmlIzfVrn7UMJIw3CZ96apC6o5jpeI+iXHRw80dpkkKla2mSObn9HOYuDtJTWmYBXfqNS3rNAS0UyXrvM13EUaZOMz6jniJhOScJ1GXw4RAm+8Xq7QZYjdmomoP3JN4CWiYmWjinrI6Yk6i4G3l0z3JsRrRL3NElc/6haKT2ngDfT70kcxqvhcsCxbnGRSLCcUy9YvVTsUO69OVaTJGEu54+eUiPqb7Py77IFGVMwwZZjNacM6jYG3F/hhWjL+9HiLqDdFplXXDh1TkCoMdGmUdDUI2/o14OhlXN10AlNgLcKRxEaBN9T/08tY5T09UTrgfLxE1L9kd6TZckRUzMyBqYAHpjqLgbcXoJtk+XcIpWJkRba4GnjTHsbhxicqTDOk+VUs1xUrYWnQzUiACoBW9kIoapXfwosBvLblim1XxieUpyBMc3oiIupXMP8uu0oSFb/sWHvqDAbeXlDN6q/UR2xNrYlkonF4xcfe1vDqovsyiiA0L9SE1t1cJecsDcL9oHCVH2XEY+l/IupHHBbDISoJ2bH2/Kx2BgNvD0P30EzAue2ob4RRKOnQE9fRD3t9fo3E0uTquFXx3LrNvzzRzdl2MPduDsb8ln/gjfT5SgXT4i0iovLHViOi0mDpvpgTsBdaZzDw9jAvSGnoZZ976l62ZUnSSegHOKEprVHzbSPIp6EViJNwxdG/qb+krmOcbqGwa+CylobeeBNQqRnTE5W7mgwqqhMR9QOR7kBzGAdRyXA9NqJ1BgNvD/PCOs7tSd0Kw2ztCFWXHZHA0RCrobe1j7JePrLxR7pu/lj/dUIJdSdHI6y5SFNoGUabbqPAayo1tzVnb+mrC6bq4+d4NiIqf65fZ3r8EFFpcMywK35mO4qBt4fV+VP1bck3JnVdrnXWQouur++tlCe+7+n3HsboIvQWhndf2s9oNvbFSoZiJ3y9fMaM022JHwaSCTOCAs45Zi5eVL5q7Q/LAFq+OR8vEfUHDmeQICoplu6j2CFnk+goBt4eVutNjteIOg8Rs9JOiuW7GnJtyeQ1QAZBIGHQ/S2vyLWWfkPUx1sNvLaekHAHZs8sYyw0R0TlDtOcuBwPSFRSEHhRWZ06hoG3B6EADlp4iboM4RP/obm2aYcB/eKLIsyPm8xudyOMFW6gN4xW3qj8vzbq/Cns1kxEZc0KPbPzTESlw8zHG7I2UEcx8Pagag+tRE3TCVF30xAa6PssdMVxKnS7e1pfzVy8jpPXmJtN2/1huFcYeWb8PRFRubJN4C3/ugxE5SY7lRh1BANvD6pOj43XiHoYjtKbglLJ7sq7SLzZ6YlM23IWxvEGGMdb5oLIlzSnEyOiMuaYViIelCcqNY7PA/IdxcDbQ0LdYeb4XepOre+WRJp3A8l4Gnxbmaaoo0Ib0xPFG8oE3gC3EZ9QpjAcIROwmAsRlS+brUREJcnWjMFuzR3DwNtDMkGthMKxMdRNNGBiSqDGOdNuVEUZfY0tDaOOM1BDqhuf2HmBBuiUV6fXpdcbn2bugGnhLfPEq+o8jr8novLFViKi0sX5eDuGgbeHoDskpjch6hnZCOqYMbb1HY41jAYSZALTEts9NOzi6vMSL+ZsdJ0BYlsolFW+zJRiHN9GRGUIYdfqBwcuicqV67EXWkcw8PaQdFCtPyX8MaEehDG2jqvh09LwGZ+m77kw8DWUunp+11t5wUa35ngdEHhNC3J+X+cyFESe1PpT4i0iovLhetXxGhGVomy3Zk5P1F4MvD0k5U2L14h6kO1KwnXEbUi8mnnRwutoMO2GFli9WhSuym9F1kgtaPjstkbkIjaNheeIqOxEkvDZHZKotHF6oo5g4O0RkdT6DLzUOyzHEdtBNeUGoR9IECCVxid0AaYmwny8DZFaI69eb3/ov1DjjdfHyZ4aRFQ+7MDT/+dwDaJSht52dsDA214MvD2gxpuku8jsZkC9I61feCiQlnDzW3l9DaiOfiNWxid0ll5nXKk579r7DXRrznB6IiIqI3aY1p3leIOIShY+y9Q+DLw9YGp6TLxG1PMi3XNBC6/jOoi49aLAl9APJczYZpGoUkNrIj63fVD8Ku2nxbd9vQ2RhONIoqJCwqgONxBfqnyhaFXK51g3IiofnH+XqDw4AQNvezHwdjN0f6xm4KVeFmBcrf6XcO2GllgMsjVz5uopukQhPu4db6fF9EQI1ZETYk9J19F7AUv57zDhOeV8vERUPtANkjvJROUAY3gtzgjTLgy83SztT9fowbEx1LtCTEekX3oNxaUK60pERegNNOyGpgtN/2kdSLHiOhGVC/0qczjuj6hsJFhxvV0YeLtZyhSr4s4x9RZ9r4WWOJEtVmBJnRe08O6zxXUtM8UQdYzp0twfSlITUdnLjt9ljRGicuFmGHjbg4G3W0Vm/l2iXhP6GnRFfM+SjN9KKLMd8YO0hCxh32G+7iCm2a2ZiMpAwuN3GVE5QY8NdmtuGwNvN0KBG3RpJup5Gm71/eZnfDP9UJvTBGEcbhBJmLEk9Fy9fJKNlh3AQnREVA4SbA0iKi8oXMpx+W1i4O1GGLubDhl4qbdogA3DvOCK7sq2uMmkJJOuuE7+3Lmh+V9DASunzfG+1GBaZow+2zxCQESlyxS4EbYEEZUbJ0jFa9QSBt5ulParxWeXUeoLln6UHQ2xGnITCUfDri12i4HWauU8KsQPU+IFtfEWEVHpYSsQUXmyQ0//nwflW8PA242mZcbFa0SxFr9/OhE49U+a/1X2RMt1JJF0xHE988WXSeviY6qiJjToWhqGEwl+9DuqzhSkIyIqTWwFIipPjilGx8DbGu71dqPq9Nh4jSgraTliB64EGadhCSoljNz4Eu2EoOomxNF/Gz60mnSdhJ6u59kp/bJLS4WdlLp0ID4G9TallxVc1kmJH9ToCfxy7IiUPzVeIyIqLVYUxq1ARFRu7EA/2/oZp5Yx8HYTVHH1NXAQAVpiK9ykGSuLYlGWZsv6RbddSYjrVGQv3A5RFEkmSIutOdlx8X+OWIlAw25GP8XZKSYwxhTXj8s2QCh29XJ6npPR3JybjiL/MtQe6aBGQlZCJKKSFJkxvERUjnS/0kdDBrWEgbeb1HlT4jUqZa7l6JLU4NjBFtimLEscpFMNn4V6mUQocdbBo3FBGAj+E0eDro1FQ6xuI1wDqoR7GsiSCUdvOzue13L1NnBZRy9rhbow6HZWJqhl4CWikoTWXTvk/LtE5crllGOtYuDtJrXs7ljykAXtyBEJdZGEhsMuhF5NuQHmyLWbFojSj5wG1TDyJOxE9zJfg3Kg/4/A2xTisx/5YpvWXHRzxr+h2KYFmEG3q7wwZYpXERGVGsdj6w9ROXMDDG1jt+aWMPB2g1BDhheygmtpisOoaQh1JJMOJJPxTDdk264yLbWdgXiZ9jMaOkMzxjaeDUgiU0m5cGDtDriNdKBh2k7jAcWnUveIpJqF6YioBCV8tv4QlTfMx8uD8i1h4O0GAaricsqSkuRq4HVDVwLfEU9Db/bYWHZ+W8/XwNjFhtFM6Etge+Ikg+zipkzXYipNrMRORKXG0t8hFqwiKn+uXxevUVMMvN0gE9Zx/t0SZel/toZaM7Q1P9yiW4jv67lVuqCLc+egxZXKRyaoMV2biYhKhRNwJ5ioP8gWputiS02ZYuDtBjWZCfr/fIOVF309w1Bzr8VXlvJEUutNjteJiIofW32I+gc78jiOtwUMvN2gOjM+XqPyEkno+xp68TFhUy1lMfASUang/LtE/QeGL1gh67cUwsDbRV5QJxkWrCphbbTfRr4uCV2SusHQSxjCgPl4Ob0HERU/Kwp0YeAl6g9wgMth4aqCGHi7qMabpP/PTq+lCnPkRoUmys0T+b7YliuuWxmfQv2Zpz8mPltMiKgEZAtWscWHqL9wfU5BVggDbxdlAy+VrqjJ4QpbbNsWx8lvzQ0l8APxuzHjuJYjCf0vytgS1i+uSFChwbpKL8HW5GLlh2nOx0tEJSFbsIoH5Yn6C37mC2Pg7YIg8jj/btmxxHbQmutKQ+bVUBwGumBu3grd7noYxTWY2YnqJ+jFEm9rEGbeLV6RhBzHS0QlwfHY2kPUn5huzT4PyjfFwNsFaOnhFCXlx7JsE3oTmnjrcye6PWvgFUl2SxiNwtDM9dv4GBxamzVO8cBc0ZvuoTI7EVHxwvhdl1MmEvU7rs/GuKYYeLsAgTfgj0lZ0swrTsLRT0gu3WoUjULxfLT0dkfza16Yrmdr2Lb0/0PcHBWxOm8qC1cRUVFzzHRE/DEh6m9szSf87DfGwNsF6NbYdAQolYcgiiQVZCTpRHmZNxQr8MR2BmpedeMTO8d2bHFcN+8DaGnAdnWxxQ/QBY3vq6JmRTI9MzHeICIqPixeQ9Q/2ZyeqBkG3i5gt8byZeKmHZlQ6lh5rbHoipxOC4r0hhlHoiApjlOlf9CxVl9fv4gyll5JQkO0WQKJ7IxePY/KlQp+/omoWGXn32UPNKL+yIp83YVlL7R8DLydFEQZSfvT4y3qWZYknIQ4kSNWYOsHWded7ike1ZpIQ2yg/9mO1dDKq1DASt8A2VwaWhJGboc/SRi9G+oOCUK1FS96pXoqj8iVirRfzW7NRFSUsju8/D0h6o94wKs5Bt5OQndGVGulnoWc6ViO4D/xbQl1iQINvlb3FI9qXSR+gECjgdQqdGM9fgeoiOGgl2da5ImIioulv13s0kjUfzkeC1flY+DtpOmZ8fEa9Ry0rDpSYbmSrsMUUGgXjUx1Y89HC2sPBk5UZdb/uZFjbssvWDrZEsu2xXUKnUflzkfgNfPdEREVF8fMIMHfJqL+yg34HZCPgbcTMP9uOmB35p6WsB1JiCt1Kc/0IK4XafD1PHGcgWJ1sXhUQaGvL7IvgedIWldbnCZIw25oRRqIa7IBmfoVVO1O+dPiLSKi4pGt0ExE/RWGNTgBuzXnMPB2ghekTHdG6jlJ2xUrtCWTCRqHXUNPCPV0X4NvtwfNUPwgEN8L9ctCN1u7er0PkV42TFsSZmzN4RV6+R4I4FS0ar1J8RoRUZGIQnE43IKo33NYqb0eA28nZMJaCdAKSD3AkoSGXdGwi0AbtNi8Gknoe6aAVVenCGoM8+2i23Te7Vq2WI4ljt5M0s3/yEQayjFnrhUveh4m8KV+o9afZlp6iYiKhRvUmaI1RNS/uT7H8eZw77wT0I2RBat6hmVFpkBV4KGlNX+WY1sc2xY7v3gUWlg1ZFqRE5/Q3SyxHUfDrt6u3oSuNp6iqBE9vcXzqFxF4kuNz1ZeIioejsdWHSLSPdMoMHPyEgNvp9R5U+I16m7ooexnfNOymwu7kWVLpGkzUeFKMqHhMz4dQj+QIEAra3xCh7UQUhGsNWA7FRXiuKFG8FCswNLXHlMHNYH7h0rSLoIxI29/U50ZF68REfWxKDQtvERECLxW6MVb/RsDbwchhtX6U+Mt6nn6FrUd/V9GvKhOgsgXN79BV7ctTFlkVcYndIztaKh13UYfBMtxxUokxE5kNHhPlwRSOMYTozJ0Uxp0rWSFXhaFtWo0fHNsd39TiynK2H2QiIqArTu37M5MRMD5eBsw8HbQ9MwE/X/+mPSkwAnMeFlXk62VyIZdy0KBKjGtqK4G1EaZFy28Gkhdt0q3OtbC6oeB+BKYsbmWk8gOB3Z0h0High96o7hdNOs2irsoqoW/SSBw15n7V39B6lcC/Q/j+omI+hoDLxHlc8z0RMTA20HT0mPiNeop2fpP+oPthBokNVAiTMbQoTjUbdfJ64qsP+6olhyEaOmNT2snzOyLyBvhtjRo695C9vYa3WaAhlxJoGkZSdyJspc19w+X4+T+/VkY+ZIOOGaOiPqeY1pzeOCViLI4RVkWA28HhFEgtd7keIt6Eua3DTWIigbefAFaZDEAH9m2/t2LVthQAk+DqZkWqGOpF7sGHkKr5WmAbb6jEOhpkQZbFK7Khl0NujZadhl0Sd8/+t7L+JyXm4j6ns3WHCLKY0e+6fnR3zHwdkAmqM2GMOpTCMOeBmHMEGTnsi26cAWBOHalhlYk0+7l6yvvSUZvD92r4xOJYnXBtHiNiKjvsDWHiJpyPB6UZ+DtgHQwXaKIrXrFAKETXYwbTVOElraMRtMW5+4l6hkpbwr6GcRbRES9D2HX4vcQETWRYOBl4O2IVFDNndoigfpQGfHFdiJpmAlITwzQ1TipSyI+jajn+ZEndR6rtxNR33G96niNiKgBujVb/Xw+XgbeDkjxx6SoBFEotm2Jk1/ACmWoTL0p9jum3jUtw4J2RNRXIkn4LJ5HRM1xeiJ9DiZVZ9hk2S6R/DTxTY7hLSJhGMqUsVPFjhzx/VADcHwG5sZ1RQbPWClVAxLiWLYEYTy9UI6NYz1BwVhcU10rUyfHYzItS2YcOoMMGIQpj9pWPXW6WWCmWWaUygGN5wfOpDMyYeykeEtkxpmHyICB7bvu6dU1Mm1y9qDL4CGDzELFI2FVyIIzraPvKR5sIaLeZQcZGVjzj65xl65YeJ4vY8aNFz9oPhQu4boydMYhMnBA+37/89XWpWTseEyRmTXbzDPJwIED4q3WTZk6TSbrAjMNHSJDBg826znV02tkwqSG4qy4jzPO0PgyLZlWPV0mTp5i1meZaagMHjTQrFNxSFfOIpnkjPFW/8PA206ozvzXtE/iLSoG0zSUbrb87jLH7LPKrLPMIimvYSohy3HNj0Ld9Mmy1TYbylKrLi2LLr2ICYmO44i4Sb1MWqNJ8x+iR+98Rq4+55Z4S2ST7daX0684RjNy2x0ibr/qfrnjvw+a9WPPOUR22GdLs57z7ec/yMHbnxBviSy5/KJy7YMXSUVlMj6lZQ/d9pRce/5tZn3bPTaTEy4YYdapOFiWLcOHrCYVDg9EEFHvQnfmqrqx8RYVg59/+0M22+0A+XvU6PiU5mYcMljWXX1V2WbT/8h6a64qc+n+jNlHacXzr70t2+5zaLwlsu4aq8jz990iFRVt70dcePVNctZl15j1k444UM4/+RiznnPXw0/IgceeHm+JbLXx+nL/jVdIVWXjg/eFXH/n/XLMGRdKFEV6vUfr9R8Un0PFwEsMllTV7PFW/8Muze00Nf1vvEbFxtIgih8ITEiUEwW+VCYcmWGGofLBu1/JzZffJxeccLU8eNuTDa237fTWC+/L2y99EG91r++++Emeuv9FiVhoq/Tpj3ya0xMRUR9wgnS8RqVkytRqefql12T/Y06V/+ywtxxz5oXy1z+j4nPb592PPpX7n3jWBM3u9spb78sjT78Yb1Ep6+/fEQy87RJp4OX4vGI1efIUmTh5kiy/yhKy4urLyAqrLy1LLLeIDJtvDhk0wyBxEq5YliUTx02SN557T8484gr55/eRjSs8tyKdzsjZR10uY/8dH5/SvR67+1kZP25ivEWlCgXt0gHH+RNRb4v6/fi8YldVWSHbbLph/fKftVeXJRddSAYNHCDJJIpsRvLH3yPlxrselI122Vd+/v2PdgdYDO+66qY7TXfk7pbOZOSQE8/U+4bu8lTK7DBtxvL2Vwy87ZDyp+tXEacjKlapVFpsx5L9jt5NDj91P132l+PPO0zOv/4UufS2M+XYcw6WjbdbT4YMHSJ+EMpf+kNy8clXyPdf/RhfQ8sSGpbB93y5+7qHzZic7uI42Y/fv3+PkRsuvFMCn++xUpfC1GX6HxFRr9Fg5AQMvMVs7rnmlMduv6Z+eemh2+XLN56R3z95Q1544FY5+qD/k9lnndlc9o+/Rso6W+8hb7z3kdlujetmuz//+OvvctzZF4vfjfsRFclsF2lc5xkX/1dqajnHc2mz+nUldwbedkj5HesCS70HBR8GDx4sSf1iRphtatDgAbLYsovJzvtuIydddoTMOOsMMnHiOPn6s6/ksJ1ONGGzNSuuuWx9cagXH39dfvvhD7PeHRZfdhFx40D92rPvyItPvGHWqXSl/Wrd9+y/R1CJqPehddeKWFCzFA0dMoOsu/oqcvHpJ8jrj90j8849lzkdxZ8OP+VcqUulzHZL1l51pXhN5O6Hn5SnXnw13uq6/6yzuik+BU/q9X7w6RdmnUqXm+m/eYaBt02RmX+3/8jv5lv81WbnnHN2mW/eeWTIkJk0bDRpW9O7H1mWWG5CnAqRueYdKkeesZfMMWw2czYqJqM7cVCggmIOKihvs/umZj2T9uTsoy+XieMaKhh2xfBF5pO9Dt3RdLdG16WHbn1SxowaF59LpcgL05IJauMtIqKe53qsHVDqMMXiogsNl5cful0WX2RBc9qvf/wlp114Vatdm5dfekk57tD96/cjrrjpDhk/sWEmiK7A9R190D7iOo5kMp4cfvI5Mmo0C6OVMtd0a+6fvQkZeNsQRqFk+tHcdi66PISuBBlXv+xQ5r71aoF9J5JKyxXHTUrGC5p3IrX0ftuOOElffwgQQLIf8EWWXFCOP/8wsfTHBd55+SOpnd5yNx38iOx24HYydOYhZvuf30fJPdc/oiG5G1rx9Mdk7xE7y4prLGM2//ztH3nk9qfNOpWqSKo5Hy8R9aJkP+6mWG4WnH9eGbHvHvGWyI13Pyi//fl3vFVIJGceN0JWW3E5s/X519/LdbffZ9a7CmODD9prFxk+39xm+/e//pHTLrpKPJ+9CUqZ3U+LVzHwtiGKAkmH5X301NK0WKHh0fId8T1LfD/S0yKJfE/jb1IXFFQoHphXt8KplCjUt29kNQm7jrjJCl0ssW0vPq3xJZZZeQlZVIMvjB41Vn5po5vyjDMNkQtvPk0GDsrOc/f6c+/ID1/9bNa7Cl2a9zpsZ3PdqNSMFueP3/k8PpdK0dQ0joC3fESeiKi7ZLszs/5DucBB9l2326J+fl5fw+XbH/zPrBeCX5oBVZVy3GH7mTG3CKmXXHervPNhy3/TEZiH9+5rLpEh8Vy8L7z2lrz1/sdmnUpTf63WzMDbhnRQI36ZVj90bEcSGnQlsCUINDiGln5ZolU7voBuWBogMe1PMUHHZbS8N+pwrSHYTiT1Qenpto9DWLoUDh2VVRWy4GLzZzf0Ih+/9Wl2vRXLrLSEbLnrxubHaPLEqWaeXi+TC9Rds9yqS8rmO21o1tFyfOPFd8n4MazaXKq8sFYyAYt7EFHP66+tNeVsyODBsun6a8dbIl99/6PpXtyazTZYR3bfPjvvP4ZpnXXZtTJhUvcMv1p5+WXkqAP3EVv3BSdPnSanXnCFqd5MpQnVmvvjQXkG3jZUZzCmsvzeGMiCdmSLFTr67WhJxgs1ROY/Tg2QjoZhK9Qv2uIqwoP76QWehBpqa2qmS8306VJXW2uaqm0nkCDKaFZvucsN5uydZfZsNUQY9U/7xqTssNcWMvuwWc06WnjvveHRbuna7LqujDh5X1lo8eFm+7cf/zQFsqh0pfyp8RoRUc9x/NaLGlFpWmGZJeO17Fy9fiu1RiCZSMg1F55RP/73w0+/lEef6b75c/fddXtZIr7uL7/7Uc64+GrT+kylxwk904uzv2HgbcM0E3jLR65V1A5tCTKhpDJ+kwmX9BKWvi1sWxJVCYmsjAbe7mnJ7FZ6NzNRICNHjZJ//x0lo0eP1C/f6Sb0tgeKUeVMamcRqmHzzSlHn3WQCczw1AMvaTjtnqrNiYqEHHLSPjJohoGmS9IDtzwhP337a3wulZo6Bl4i6mGYU9Mpxt9n6rJZZ2k4KI/pgNozbWFlRYWcccxhMqCqyrTynnP5dfLNDz/F53bN3HPNIZeccUL9NEh3PfSECdVUeiwzDKL/zSbBwNuKjOnOXD5dE21NickoIWHG0cdm6WOLz8hju644yYTYibQJkFErLaWlLJ1u6I5TUZmda6491t5oNdlipw1N1+aJ4ybJ3dc+3G3z56681vKyxgbZKQaqp06X84+7SqZX95+CaeUEQyFCjqsjop6EoT1lOuSqv6uubqgdg5CZK7TZlm0221DWXWMVs46pjY487XyZXtM9MwdsvN5aMmLfPU1FaXRtvvT6W9nKW4LQuuv4/W82CQbeVtR6U+K10pa0XVN5OfRsySDlohG0UUMopu5JipXQL1QHP57ZMUFtjRkpVWEYyZRJDS1w8y88b7zWPrscsK3MNucsZv2dVz6Spx7onm5D+FEbccp+Ms/w7Dx8f/82Sp5/pPvm1KPekwlrNfByR4CIeo6t3zF2yANr5ejH3xp6j2EuXHRZbg9c7vqLz5IF5pvHbH/65bfd2rX5iAP2lEUXWsCsv/LW+3L1LXebdSotTj+cyoyBtxW1fnkEXox5tdBTWfNr4yGneqJta9gNxXICsVDoSULNwuX9A4r5dxEmcxZZKvvl3V7zLzSPmU4IrbzofnzXNQ/Jn7/8E5/bNRhbfNx5h0kymTBHTu++7hGpnc55XUuNF6TKttgdERUHx0MPoPI8MN2f4aD8My+9Fm+JzDtsTrO/0V7zzDWHXHDKMZLQ8JtKp+X0i6/utlbe+eYeJieNOLB+/+f8q26Qz7/5Pj6XSkUi0PdDPxvHy8DbArTOoNpqOfAjzFMbitO0SwzG6upiOUjB2DlvePOj+zOqNjdbxCn5n9ex/46Xn7/7zawPGTqD6UrcUVvtuomsv/maZh1Vmx+67Umz3h2WXmExWXezNcz61MnT5JSDL5TaGlb9LS2RTC+z8f9EVFwSPoe8lKN3PvpExo5vmKlhg7VWi9fab6P11pSN183uo4ybMFH2Pepkqa3rnv0ITJu0145bm3Vc5xU33G7CL5UWp5/NJsHA24Ig9MQrozcDxn84LmJsHmyYEJw9NVfvCdWbE6Er4tkSNVo07PpJEZwHUZMAXQLQTfuGi++UaVOyE/UvpeFyhiGDzHpHOI4t+x+9u8w+16zmOp9/7DX5+O3P9Uns+nNSOaBSDjt5X6moyI4t/uzDr+SVp97qjqumXlRuBe+IqHhYIbozsxdJucF0P7fe+3C8JbLYwgvIissuFW+1H6Y2uvr803Q/osJsv/j6O/LcK2+2eyxwa1C48+wTj5SFh89nGgkff+5lee5Vve7Ge5hU5Jygf1V4Z+BtQSasE9/MVVUevCjUxZekk4u3Kgz0RzMS2x6oG5YZ6+uECfE9S1IeujY3pacEnobeSKKwUr84K+PTS0Mm7cnd1z0s772anTQdXXK22X1TScbBsqPmXXBu2W7Pzc16GIRy4YlXm9bj7oAxwidfepQpqBXpa/TYXc/K9Gk8ml9KUv70svoOIaLi0d9aZ/qDdMaTm+5+SJ5+OTst4ZAZBss9115q5r/tjPnnGSZXnnOyOXiOIH35DbeL53VPbYm555xDDt9/L7MehKHsd/Sp8ttffzPylhDHzOHdfE+/XDHwtqDGm6hvg3J6I0SmB7ObcLONurFIv6hCP5RE5IofWBJomMXDbvmRx+f7gYY8jA2u0o3i/4pDVeZrzr1V7rn+kfgUkT0P3VFWW3fFeKvj8CO0y/7byPKrLW22J46bLG8+/55Z7w7rbrK6rLZetmrzn7/+023Fsah3WFYktV73TPxPRJTP9Rl4y0n19Bo56rTz5bQLrzT7Kzggf/Deu8qySy4WX6Jzdt12C1lz5ex+DubPve2+hn2grsD923/3HWWjuNv01GnVcueDj7ey70jFBkXv+tP0RAy8LZjudU9LXTFB11vMuuvoq17/wutpoe+b8Bpo8EWBq3qWg/+Zola2E4mTn2v1Q4LQK4EtjlOhX359+1bC+JHxYyeaFlYso/4aLb///Jd88dE3ct9Nj8nuGxwiT97/gqRTGdMdBy27h5y4jzjxnHKdhdbh4849VGaebah5frtzrC1ad/fSUI45g3Hdk8aXRxG1/qSGgZeIuhl2UtmdubSgCOU/o0bXL7//9Y98/9Ov8tYHH8tlN9wuK260ndz+wKOmJRYtsjtuuYmccuTBnW7dzZlh8CA547jDZOCAAWY/YvS47tu3xf285YrzZJ5hc5pthHbcBpUGK/R06T9V3hl4C/DClKSLthhEpD92cQGpyNal/a2r6KTsR74Zy4t51LLQXBuIp4E3zH1PWZYGXQ2CehnLRgVntA7rD6ytoTe/S7R+sQX6JW4JyuX37VsJ3X3PPvIyOXrP07PLXmfIsXufKcfve7bcePFdMmZUdjxlZVWFHH3WgWb6n+4y74LDZKtdNom3utdiyywsR55xYN6TTqUkE07n9ERE1K0s/c22+L1SUkaNHiub7rZ//bLZbgfI5nscKNvuc5icesEV8sffI83lBlRVygWnHCu3XXWhDBo4wJzWVWuuvIKcc+KRplW2u801++xy+H579sh1U88yB8760TheBt4Car1J+v/Fc5Qq/2vECm1x/FwRqYQG37wWyvZ84ehF7ISrwdWSwm2b2bDrJJNiuxm9cPZ50GwtgRtK0rXErv/DbFjOZAIJNYA3vqe9KwhC+ffvMfL376PMgvXxYyZKqi4tiWRCZp1jZtNF+JYnr5Dt995SBg7unh8SQIvx7gdtL/MMHxaf0n3wI7L5ThvKGuutHJ9CpYTTExFRd8sWrOL8u6Uk43ny829/1i9o4UUIrqmtMy2lw+acXXbcalN5/9mH5KgD9zbBt7tgP2K/3XeQdVbv/v0INJ4ctNcusuSiC8WnUClx/f4z7aU1qTpTPMmuSIya/o1MS4+Ot/oWImSlUyHpTCh+bhLd/FdMLxAhpFq2JCorNHjWSdTGkV/kYlRhDvT3Ei27+Ww3oYFXw7Sga27htwYCNwJuw5+6kqzS8G15ep29V6QnVZeS8467Kt5qrEID+wxDB8lMswyVBRebX+aadw6Zd4G5NZy2fYwH1Zafefhls77cykvKTvtmy++35dcf/zBjhBG+YetdN5FV11nBrOegq/UNl9xl1ldZaznZerdNzY9RW777/Ed55M5n9D2Q3cnB9eL6qbjhcznv4BVlQGJofAoRUdck05OkQhcqbqPHjpcLrr5Rxk9s/lpVVlTITEOHyJyzzSpLLLKQLDh8Xllw/nklmUCPudZ9+e0PctE1N5v1bTb9j+y+/VZmvS1vvf+x3Hj3g/GWyHabb2TG+OZ758NP5Po77zfrqA594ogDzHpbfv3jLznr0mvq91Fwn3DfqLhhqtHpM8yva33XYNVbGHibCDQs/j3tU0n50+JT+o6jb0BX//P0+wNVgOu7HBeEllcNqhjvocHTslo/+mtHGpJDDa56sfrgarum9dayff0QtPz3ycg1f5ep/0O9nxWV+veeBmFWpSXKN9uAhWXmquHxFhFR11RNHylu2L+mFCGinlE7YG4J3NKadaUz2KW5CV9/RIqhC6KjydO1EugxHBeTis9oUaQhNJBILyuRI5EurQktvTzG5eaKUentYaxu1EbYBRRRsLDE27htU6igzftI1P9Mz0yI14iIugbjd10eWCaibuIE/aNbMwNvE5g3MyiCHxNHXxpL//M0wNbnSHR9NVWj9JR4wfgJp9E8Qwi9+k+EbjGth94IodcKzXRFpkCVhQJUrYddQ28u7xaJqBW1/hQJceSKiKiLHDMdEY8uE1H3cP3+0VuEgbcJzJtZDPPvRmEgoR80ip8Wuhy7GoWTYf2SSEaSTGg4zk+g2Lk2QblKN1p/iVGMKnQDsR0N+Rp+24LbQWsupi9q9iwxBRMVEJl5vYmIusop2hkkiKgUoeI7CuGVOwbeJoplx9T0EMb/1XNMNWC30WS4Il4Uim8FMqAy0XyeXM/TvxmoIdWNT+wahN1Kt6q+m3UD3DcLjcREVAC7NRNRV2EaEZdV34moGyHw2m0Uuy0HDLx5gsiTVFAdb/WtbCtqvAG2LRptCxSFwuUCyeh9r0hq8KxPnfrHYWCCaXdMBI4CWkkrKV7aF8/PH+Wrt6dBPNAf4SD04tOIKF9dMI3dmomoS9AKY3E6IiLqRtn5eMv/QBoDb56azEQNh2136+01+TlVc6VG24I7zbhYoPc7sALTytrwoupf+J6+mRP6951v5bXiis6BL+J7ejv1ARo3prdmaxDXwF1Uzx1REQnDjHisqkpEXWDp7yyKVhERdScnQG2A8sbAm6c6Mz5eKxK5xlpos5E2Ek9/CC07alzEKgw0iNr6I9l6ASswUxXpEoWNF03SJuxmvEAjd46eZ8JuJJaZBqnrrchE5cqPNPD2gx8UIuo5jpnnnr+1RNS9ssXwyhsDbyyMfEkHfT/3bo5lNRkTi1ZVpE0NpK1xErY4rt3ohTXFrwL941b+Fue4qA0dOBJ5dqMlQOBt9BurlzZTE0ViOwi78clEVBB6PxTLcAkiKk39YaeUiHofxvDa5oBa+WLgjWWCOjOGt1ggRCL01kMfezuhYbb1yaEzvqePwxc3v0EXb2TL1YBa+G9xK5VOhYShJX7jZFuQ5SZMD2nb5phdovZCBXgiok6JInECDosgop7h+uU9Hy8DbywT1pqgWCws2xbbwVy8OaGEQSh+G3cRjbho4XVdtNc2wN+Gfgth1oRrfSu0mnXNFWvQjcRyMnp5DbsNd46I2lDnT+E4dyLqFCeo1Z/ctg9IExF1BgNvP5H2q4tqZ9QUodKQmz/VEObmlTAS267QrZbTZqA/iqGlf9uoX7MGVf3HcZr/baQp2Qs9CW3Mx6vXnzvbcvA/DbmhWUTPt/R83EIb6ZiImsCwiVqfrbxE1HGux/l3iajnmKJ4ZTwfLwNvDK0vxSQbeAMz7259PDXjeBE0UXU5e1IhgQZj33RrzvtbBFQNtgjLzcfcRhp4fQ28CLUoQqWXxWX03WHpaQi5loMu1fggMOgSdVZ1ely8RkTUTvrb77LoHRH1IDM9URlPL8rAG6vziivwAsbwOglHX6VcQo0kCkPxMn62enIrTNErB82z8QkmqGbn9m0tskYaeKOEvumTgdhuxgRgIuoe0/0J+BTHW0REbbPDjNkZJSLqKQy8/cD0zASMkI23igdaeVNBRpL53Yz1fmLiedsZqO/OVubW1ctb+kcNL7DuZkcIzPEmEfW6MPQlE7BrIhG1H3ZCGXiJqKeV83y8DLxqWmZMvFaE7EgcFKCyGndtDtO+nlZhKje3rnFLMNuWiPoOBiow8BJRRzhhRv+fv95E1LNsv3wrwff7wItCVTWZifFW8UFBKYzltZ38eXnRUutnqy63NLcuzgrRebLhRxJjdxuug4h6W3Y+3unxFhFR22xOR0REvcAp48JV/T7wpoMaCaWYX9xsQSlUSEbobciroQS+L4GHZOuIZTd0b8aLaqHysh+gMTiGv9S/Z+Al6lMpf1q8RkTUNqeMW12IqLi4XnkelGfgDaabVpe+goLIOXmrzXgYY2yH4ua/YpEGWswQFCTFdap0O5tmHfwXOpL2G7Xv6t8j8HIcEFFfqvOnNup5QUTUEidI6a83f7eJqHcw8JapdFDdpzufSdvVcJqQIJOQyK9o9Z44riOJZEIal6oKJQw8SdemJPBsvR5HMhmRlIck3MCKKzZ7fo0GY+5sE/WVIMyYeb+JiNriZvhdQUS9x4lQFb78ujX368CLoNsX3QsdTZ4VVlLTp4ZTT3eA/ShbgVEXWwbouRpOC/BR4VX/C91QMFtRQ+9kDbBhaFqLsSDPNoq06O5sphdKZ88koj41NT06XiMiakkkCY+Bl4h6j6U5wQ5QKK+8sIW3lwvIYGytFdoSoAFWM24QYG7cOISiyFRk609c4YG2uFyIYKxhN7I19CZscVqtQmVp1k2Ijfxs+7rJblFExWBaZqx+znnwiYhaZgee/orze4KIelMkDgNveUn5U8UPM+JY+jRoEI3CvMUEz+5jI8RijG1gSaDZM+MFeaNy9PZsvQ+2BlpM+tzmmGK9nF7WdkLBn9U37TZd9DKWo7esYRe1nomoOARhWrwynu+OiLrO1u8J/N4TEfWm7HdPeenXgXdq3WgTQpOSENt3JPI05OYWPykSxl2LO/17E1dV1tvAyFsLY2wRePOvDznYcTSYWmInUIlZ32TtbInNRIEEji92UoNvoUWvL5JaXRh2iYoJvgJYrZmIWuME5bfTSUTFLzv3d3npt4HXCj2pSY03hZ5q04H4YZNUq+djzHbgJSUME/GJHZOwbElESXMbdRmNnU2Ds50Qy9U3lpsW2yq/NxcRtSQyBfOIiAqLxC7DnU4iKn62j8JV5TUMsn8G3iAjNZlpkvE90/M3aqmQk55shaGeb0mowbU99Z7QolvhJsUJXL0ZzIWbLSbV8MeWWLYjicpKsZzs/LrxyUTUj6QwJRqnGyGiAlA4phxbWYioBGhwKbfpifpd4EXLrh8EUpOuRo2oPJbYjiOO64rTKHxGYgW6UxpgDtsK3W75KcOfOZEjoY9xwBinF5klB0HXcvV6HA3Rlq/bAXMuUT+V9vt2DnAiKl6Whl0rLL+pQYioNLheeQ276keBF8ETc9YG4vuB1GE+WiMbdDGGVmys66LPiqvBtKEAsv6t/h1G+2pKjU9rzkYXZg21XsY3XaSzURfXq3+DP9PrtjA9kO1LyGIURP2aF6ZYuIqICiq31hUiKi2unxYrKp8aQP0m8FrInRp4PS+UIIriHU2c6IhTUSF2AkE0LYGkJHQDqUg64iKgZv/cCDT0ttj9GXAjriuuBt/s3+n/O/oUO65YCQ3Mev1i8YgtEUEk0zLj4nUiogYJBl4i6ksW5uMtn8J5/SbwmjG0GlhRtziIAvHCOg2gtobdpJ5cq2c3BFFE2pS+yAi3jaa5RffkVvJuEAaS9uokUYH5cTX4JpOSrNCwa+ttxZchIsqZlh6j/9/KlwoR9Tt26Imdt09CRNQXyqlSfL8KvKEpQCXiBSkNp75YliMOujIXmAYIu6CWFZlG2wY4tfWdU70FyUSehK4uVtp0XWbYJaJCMmGt6dpMRJRj6z4KEVFfy1aKL4+D8v0n8KrcS1bnTzb/mm7OyLtmK58lCSeh59smINcz6bft+BqgEI0J0YGEZdT/nYi6WyR13tR4nYgIY+cYeImo7yHwomJ8OehXgTcXVWv8Sfr/kemyHNYXl2qAll1H/4tCTEcUn2gupYueJnqepQsRUVfV+VPiNSLq7zD3pR1xOiIi6nsYXiFl0nBXgoE3G1QblvjktliovmxLEKXFN92Fsl2cPV+vAyFWz891X8Zr66UxfRE6KOcJPMGwGitMimVXND6PiKgT0kENe4IQUZYGXkyfSETU13AAzimTIRYlFXgt0R+CICOpVJ3U1dVJ2vOl3TPZIs06jnhBdcNf6E5mlElL6CXEsQaKK5Vie44Evl4uxHjcQiLNvRqGNRBHPkMvEXUNCuiFLFBDRArFquyQB8CIqDiUyxRppRF4NeR6mZSk0hp2M0G2G3KkwdP3xUvj9LSkPIyXbTl+4qxIH25o1YidX3oZR1M1+AZ63Z5ed4Dht7iaVpOsnhnqBfVvo6BS/+1XPcOJqBtlgjrxTWEIIurvHK9G/7/VHRAiol6TKJPvpKJPapGfEd8PGpaGQbUmcIaBb4Jv4HviocVXg2jhllnLFJNKS624rt1kjl10b0aQbtKFGfPp4nKuhmInlIRrNZmmCM3Aep4k9bJufCIRUUdEMt2bEK8TUX/m+ti5JCIqEuggWwaF9Io28JrxuaGvIdeXjK8htq2DCxpYfc+TjIbeQoWoAK0odUGtCa+2PnLL0R8XR0NtfH4jtp6p54kd6eWyi4NFw7KdG+wLertRhOtgESsi6pzq9Lh4jYj6K0v3eRz29iCiIuMEdfFa6SrawIvxuppgxQvyw6slliZVyxSYalgaRBKim3PGkyDS05ukXj9M6ZKWDIK0rT8sSZGqqoQkcD3xZQy07CaSmnl9XY3H0ugFMhKImxBJJjT0Zk810DKMhYioM9LBNAm4o0vUr5XDTiURlR8nSOv/t9XyWNyKMvDaFsbVhuJ5+V2MNWQ6CakcUCVVlZUaVPVfXSorEpJs9Cg09AaBeKmMhLYlyL05Nd4kPbeNFwxz7yLVRrW60bxwREZDuI+jsI1ytl5nab8PiKgP4XupJp4fnIj6J9dn4CWi4oNieshlpaxoW3jRpTn/qUXLruO6piW2USuv7YiTTEpFo/G1aHH1JZ3xJcrrCz09U2CcnJ7f6CXU60SXZczFWwgCdLPzGHaJqItqMwy8RP2VmX+XvTyIqAhhqjQMuShlxRl4MX63UeBFsNWQiwJSTcKlZWVbfl0NwxiP2/CANPSimJVeHn+CrszpoDp7Vj2ck23zbXS1Gnhb4uotaCRu1PabC+BERJ2VDqs5PRFRP2WZFhR+/omo+Jj5eEv8gFyRBl4sjTsfI1A2KhbVlJMUR4NnoymHwkCCIDQ9jgt3Z8ZlNUTHa0Z824Vko64jUWjlFdHS0xC0G5VvJiLqGM/UGGALD1F/ZOn+CuffJaJilZ0yrXQVbZfmznBdx7TyNogk8FDpOZSazKT4tMYwzrdRjkbLchBgxiP9Bco7L7IkIa54mdAU0qpnOeK4aIGOt4mIOgG9ULAQUf+TLVhV+GA7EVFfc3zUNird76jijGmmyRWtqTlxF+c2nudQHLFtR5L5MwRFmJvXk7QuTQVhICmvzkw31BB6NemGvv4vKY41UBJWpf4QORqcbanLaIDOvw/6R24yKUGQMQsRUWdFUSh1/tR4i4j6k+zOJBFRcbI1H9mmWnNpKtLAi5bV/MCrGdS0vDYqL9Wc/o3j2Lo4DV2UVVp/SDyvhUmTrUhs19Vwm+3anD1JA3AUSJDOiJdGt2hzMeyRZi8AGDucSOrLn9I4jjBdukc9iKg4FCysR0RlDfsbbgnvSBJR/+CW8IG5ogy8Gjf1nmFcbHwChOhmrEu82ZIIQdlxJZE3b5Dv15kWWMuq0K38KIwMa4lGWnEStrgoihWfjnsR6u0FmGO30Y1mr99NurqKAhNYGHaJqOtq/cmmpZeI+g/HTEfE/QgiKm7Z76rSVJyB10yeazUOoPHYWl/3BVv7WYj0IaFqcsJtqNic9qvjnchk07yrIvFQatsOzThcLI2GAedokDZXqP+gWrTt4PrQjZk/UkTUXSKp8SbG60TUHzh+aReDIaL+wY6Ckp2eqFC0Kwro0mzm3UXQNDCONxTPR0tv2yHTdjCeNxuYU/40E0vRLbqlfJrRF9C3fbEToSQ1LOMPkbuzi27bjliJQOykr9sp8dn9iIh6ALs1E/UfmO7DZbE6IioBmDrNLtHp04o28KKlVn8GJIGsGZ9mSicHGfE1jbbW6c/8beSIa7JyKOlwup6ILsqt/VVWqH+dsTwNtoE49Ysnlptu3jhMRNTNav0p+v3F6UmI+gO0lljt2DchIuprOEBnlWiR3qINvIZtSSLpihO31AJad33P1/zaRisvilDpH9UFU+LuzKqtv4kVuhTDLhH1hiDyzJy8RFT+7NAzRauIiEpBdgq10lPcgVdjpmVn59bVzBuLJAp8CQJMU9R6gDWB15uc3cBFzcXbF3qJiPpCiMBboj8oRNQxtunOzP0SIioNpVq4qsgDL7oYO2JhqqG8Vl5NvOL7fisFrPRUK1tluS6Ynj0Jf2yuoP5aiIiKDrozp4LqeIuIylkpVz0lov7HwTjesPS6NRd94AUn4YqLuXLjbYgCTwLfM6G3aUsvWnYx2VCdl5Ygv5pYfQEsIqLiVd8zhYjKWCROwOELRFRaHK/0KsuXROANQ0sc25FEIj/y6ulo5c2kNfRajUJvGITipTypC+okyI2N0bBrN5rYl4ioONX6U3VXmN0cicoZWnctfs6JqMS4JTiVWp8nwAjTAXkpSaXTkm5xXK7+JCCwuq5UuHldm/WHwszNm0lJJpORVEqvR5dMBmPgIskEtbgBvZz+rYW5eU3TLxFRUcM43jpvSrxFROXI9eIhV0REJQTdmkttPt4+C7xWGHdJ9hB4A13XBdWXkUgLhFIzF64urpuUioSjATZ3oUgzLf4ehaz0XwRgXRBzMf+uCbuOq2HZlijK4OJEREVvWmZsvEZEZSeKxPVr4w0iohIShabCfClpHHj1Cxgz3CITFmxo7SLLXGmYDacacNEqm0HQNbeF6su6HmZvvyCEXtO1GWN6HXFsu9UG2xRaePEIbX1cNsIwqyESUWmYnhmPb8V4i4jKCYq+YH+LiKjUYD7eUitcFQde3alCGMV41yDbHbi7d7Oy8+aGEvqeZNJpqfMCCfNuxNIwa1kadvXE3LS5BVn6E2G5kkhWmJbeBKo362lNl1QwTSJH1129MhvFqxB2iYhKQxj52WEZRFR2svPvdveeFhFR73BMI2LpMIHXttG6qkE0lZGadCBeOpNt5+3G8a6Rn5F0Ki2ptN/smKaZa7eiSiorKyXportyfEYbLDcpbmWVVFU1XzLWJHHclIZfHkElotITSqCBl2P8iMqRw/l3iaiE2UFpTalmR5rQ0xp00xhLG2nwjVt6fT+UsKtZUa8nNAWpUqbrso/W2/gssJyEJCoqpaJCg6uD4I1W3vjMdirUuosfkenehOwFiIhKUBSFkvIZeInKkV1irSNERPkc9FIpocJVtmDcLMbRNgqjkZnyB+NpO5N5LQ26psVYQ7SH6250/RpKbVcSiaQkMRbXsc1Y3MaDibsmE9RIIKU1mJqIqKl0UB2vEVE5cXzOv0tEpa2UpidqMWei8rFfX1Cq/TDNEIpPeZ6niy9+XmLGOF3Hdc3ixmG3odpy90mhGyDHxhBRiavzp+r/87uMqJw4QYoFq4io5Lle6RyUb6VhNZIQ0/0EYbuzI7pDh15G6uJ5cOuZrsaOOImEJCuzxaZ6IujmoFWkcedpIqLS44eYn5zdmonKiZthzw0iKn0Oqs2j4HEJaL0nsQbeCF2bxWpX6EWGTZiiU3lhVtfdZJVUaNBNuq5Y+aWZewCCLse9EVG5mJoaE68RUemLJFFCrSJERC1BpflSqUdgI382iqBojY1XAa286JrcPhqMUYjKtcVx0KJbIZUadBOuZUIwcnB+Fu4R+uRz3BsRlYtpmdH6/+yxQlQOzHRE7M5MRGVBA2+JzMdrm/2o+n0pJFJHNK82NP1qgIwCjMXVf9vRzKsPXa/CzRakQvC1HXNdPR50YykNu+gGSERUDjz9PsuUWPl/IiqM1ZmJqJw4QakE3kbQCmtnuyXXT4arQRetvH4gYdS+1IoqzLaGXtduvcd0T5iWZvc/IionGKYxLV4nolLmMPASURmxS2RO8WaJFPPYOslEdrqg+DQTen1fA2+ITFzUpqbR/Y+IqHykfA7TICp9pdP9j4ioPXAQD2N5i12zwIu7HIQYg2uL7eSn20D8INTz4s0ilMb8uxF/TIiovKTD6RLhgCMRlSxLP8OoakpEVE4cr/iLBTfvc5wL6baroVeXvMwbomIzpimKt4tNysxZSURUXjA1UcRCN0QlzRSsCttbBJSIqDSUQuX5lgfZWra4mnax1ItCCfyMeJ4XL362kFVRdHOOpI7j3IioDHlBSrwwFW8RUSkqhVYQIqKOcoI604OlmLVeVQqh13Wlvn4V2hiCQLxMRjJm8XUnDDPf9j2ML84ENfEWEVE5iaQ6PS5eJ6JSlGDgJaIyhJhY7BXoWw28keXobpYlCb1U4UbcALMWoeG3z4WRr4G3Nt4iIiov0zJj4zUiKjXozmzrfgoRUTlyguLuhdZ64PUz4nueBkm0LxRgJ8wY34YW4L7jBXXs8kdEZQvjeH1+xxGVJLvIdwaJiLoiW4G+WKs8iVjjx0+JMkGuHIotluNKVSLSAInuy6GEYUtFqiyxEhVSmbA18PZ94h1f+5tMTP0RbxH1rHRtSj7/6GtZfYNV4lOIet6wQcvI4ORs8RYRlYqKuvGS9FhnhHrHqDFjpaamVhZZcHh8ClHPCpwKqRswl0RW66Nl+0qTwKvBVe9owsb0Q3paG0Ed4dhMX4SOz/p3tm73VWtvnT9VfDP5MVHPQjf+yy+6SN554x256+H7ZOaZZ47PIepZFc4gSToD4i0iKhVo4bXDIN4i6lm33HqzPPHE4/LsM89LIpGITyXqOZFlSeBW6VoRdPstoEngLcTSDKxhVpMsKnChxbdQELZsR9xkpSScYn2oRN3j77//km0230hGj/5X7rrvYdl0sy3ic4iIiIj6ThAEsvTiC8iY0aPlxlvulF122yM+h6j/aqPdWUOu44jlJqQimZQKTbNOS024cbdmM00RURl78flnZdSokaZS+X+vvEx8n4VIiIiIqG9hH/yKyy4yYRduvP6/MnHiBLNO1J+1EnjRYpuUyqoKqXT1Yn5K0piGKCjUvOuIbbvi2lFRjOcl6ino4XDT9dfUh9z/ffyhPPn4o2adiIiIqK+gB9p999wZb4n8+MP38v6778RbRP2X7bqOWI1abS1xEhVSUZGUBM6LQon8tGT8yIzrbcp2k5LUyyZdi2GXyt7VV14qf/31Z7yVPZp61RWXyKRJE+NTiIiIiHofeqDlWncBPdFuuel69kSjfs9Gl+WEY5viU46G14pkQpKJuBiVBlhLd+ijMDBhtz7u6ukIuomEBt3cZe3irMpF1F0QdG+75cZ4q8Efv/8mb7z2arxFRERE1LvQA+32W29qFm4//ugDefrJx+Mtov7JDq1sYHXdhLgaXt1EwlRazm+sRSh2nGzxKgeVmd3s5RIIu3phRl3qD55/5ikZP25cvNUgnU7LPXfdbgpFEBEREfW2G669Wn779Zd4qwH2TS46/2yZPHlSfApR/5PNqk5SAy/G4Bbokmw5+j/Mt+uYFt0ExvXqktC/tNiFmfoJHDm99547Wwy1H37wnjyngZiIiIioN2Hs7rX/vTLeam7kyH/k5RdfiLeI+p92Nc4i2Ia2hmK09LZUpZmojN168w3y048/xFvNIQiffuoJMm3a1PgUIiIiop6FWiJPP/FYq9WYMZb3gfvuNgfvifoja1J1hvMIEbUCYRbjYqZOnWK2P/rwA3nz9eyY3SFDZpQRRx5t1tFLYvsdd5F5553PbBMRERH1JITYpzTw/vZbtjvzKy+9KJ99+j+zPnToTLLn3vvK4BkGSyKRkAMOOlQGDhxkziPqTxh4iTromqsvl7PPONWsI9x++V3zMTNEREREve2k4482vdJg+PAF5NkXX5e5hg0z20T9FetNERERERGVAdbXoaKHKW+jwPSgDAJdj0/uSQy8RB1k6X9ERERERNQekRlvjkUw3W0mLalUSpeM+Bp6MbocZ3VL+I1vJ39h4CUiIiIiKkMmYBD1IUvjrB35kknVSaquTmrTnmT83PsykExag29tSjIZXzA3blffsbZeZ+ClpU5vK7cw8BJ1QdQrHTGIiIiI2sYuzVRMotDX8JmRurT+G0YS5lpd4/MNc1ooQaChWC/X1V1r34+7SuduSxcGXiIiIiIiIuo2oQbY0NcQ6wWm23LrOTYOvXr5QC+oGbXTciE3HwMvEREREVEZYAsvFQO07Jqwi9bW/Oxp2eI4ri6OOK4rrmujF3NMg2rYnnDcOkuv0G7yOWDgJeqg/B+TpkeQiIiIiIj6qwjVlzMZ8TTsho3CriVOIimJZFIqKyulSv+tSmr4te28crCRaeXF/NKd5SYQpDVQ6+1hn92yHAZeIiIiIiIi6prsmN20eBivG59maOhMVlZJ0rU14GK+k1AXX1Ipv3mLbujpaRp8G6Xl9gtDDdBuUiqqqqTKLBUMvERERERE5YC90Kij8D4JNaSa7sedDJkNrOz11V+NJbad0PBZYYKuq2/P0M9IOp0tZOWHhbsvm1ZevH8b90xun/qW3YaFgZeIiIiIiKg/iQKJNHz6nme6HweebmvGjDoTMmMIl+hObAKmZet6QpJJV1yMq0XLrd6ep2EWlZRbHaur9w2XQUtxd2DgJeogfJiJiIiIih1beakQdCkOg0AyGnax+OiCbApGNSky1UHYRbZd1xSkMsWpEH41bUa+3obeTjqDLsxRo6Br6QVwWdfJH2ur9wf3RUN4gH/jJYw6V9CKgZeoC/hDQkRERESlxEJwDEMJGg20xVy4aFntfMEozHgbWa4kKyqksiKhIRZpV6/Xy0jGz+/qjHBsm0Ykx02ayyeTevn8ZBoh8KYllUrVL+mM3r9O3D0GXiIiIiIion4iFMe0qiYxqLaeI66rpyW6Lx7aka83Fojm1CatunpbFVWmWnMSrcDt7DyJhqbONDYx8BIRERERlQMOu6L20PeJ7dimy7EjmC6oQioqkpLAvLjxRbrKtkIzvZCHscHxaXrDYmNcb0WF6E2LjSmJ8JYNfYkCFLHKXqogCyFdg3In7iADL1EXsEszEREREZWaCKHXdk1X4mQCY2417OpploZUOy4aFXapaBTGBaPbdF7cRcuu6+rtNlROtlA8C8EYtxef1hgCeUIS6PLs6N914qAOAy9RB7FoFRERERGVsiiyNPQ6YmuYRJditMhGGG8bhBp2UcwKUwPhcvEfdJTpfozY28B2EHYbWpFRPCsKg2zl5ibhGmN8cXkUwHITaH12xEEFrE5g4CUiIiIiKgM8KE+dgaBrilZ5GUml01KXQasrKiqHGno1GGcv1jEm8OZXZNYAq8k6+x7V08NQrMA3lZu9RqWhLdN12bTqVlRKZUXSzN/blXc2Ay9RF7BLMxERERGVKoTdKJOWVF1GMo3G24oGYE+CMEDzb3xKV6B7swZrXF/gSSaVkpp005ZdS+xEhbjJpCQxtVHnonYzDLxEHcSjp0RERFQKeGCeWhT6EvhpSWc06AaRCZ7N3y3o4ozxvJ14H+n+MvaZ8/eaQ9+TdFrDNebj1fdmmP/+tGxTPMsUzjJ/a66iWzDwEhERERGVAR6Up/awrNB0OQ69QEOvLi0eGNHLaODF0tHIizl5UQjLzW8djrKVm/MLWem9EdtxJJHMVonG5TtTmKo1DLxERERERET9BOIkWv8bVWE2RaJQRRlT/zQOqYEpKoUQ234IvLjOREKvT4NvoQiLqs0oSuW4ibgoVfcG3RwGXiIiIiKiMsPuzNSSMMpGwFwRKbM42WrIKBJVVZGdOigLxadQuRmFrDr4nrL1evQ6q6o00KI6c+62sOi2m6yUpN5eUsNuz0TdLAZeoi7gjwkREREVC3Zppvay3KS4lVUaRuMl6UrCsU3LbCiuVDgaFOszbyhRkBFfY2nhuXJbhumPwkjDdGWlVOZuC4tuJ3Ab8eV6EgMvUUfxx4SIiIiISlx9a2u81NOka7oa4/T4JLTu+p5fsLHHCj09Ly2pdEbSQZNiVLGmt2WW+LyexsBLRERERERUDqJA/+eJ52WyS6tFqVqiYdTOjr1tGFYb6fX6EsSB1opCsSNfg65npjNCGMZYX0xlZObuLaJOkAy8RF1QTB9mIiIi6t96r82MigbCp5njVoNtkF1MCM3EC4JowSmHWheKI5YGXhSSasi8mKJIQ26A6YpCE3IzmNbIhGpzAYn0fpihvkX0VmTgJeogdMEgIiIiIuor6FqcXQKJ/IykUylJYUlryM2mzywEUATUeLMjnIQrLro2x9tgWo/TKalLp6XOazpdEaYUssUusoTJwEtEREREVIY63q5HpcJ0J84g5GakNqPBs8WXOspOK6ThtKPCMBtgXbc9jT2Y1ighFQMqxdWtYmoeYuAlIiIiIiIqAWjVDb20pDPZrsUYT9ty2I2hynIYiN/hsbUaW9uRXG03KcnKCqlIunpxvYEi6wzJwEtERERERFTsQg2uvmfmxM2G3fh0w9Lg6UoiqeEzmZCkmx/zMLYWxaZ0tZ1h1JZAQr0tFL3yC81FZOH2kpJI6O0lXHFQ4ArjfTsUqHsHAy8RERERURlgnZEyFrfSep6G0PwiVPqamymEdHETCbMggGJJuI7YmP7HsvX8uOJyG4E0MnPuohpz9rZQ9MpvlKw16NpO/e0lEHb1ios5VDLwEnVQ/o9JobnIiIiIiIi6TyRWGEoYeOI32vXUIOtowK2olIpkUhK2hlo9NdL/jyxXqio0lDpONpjq+a6l19PGMRHT9TmTltqU3lZ+sFZm7lwnG3Qrze2VxkEWBl4iIiIiIqIiZdvojhyK3yjtWqaKcqIiIVZUIMjqCUGkYRfB1HU1MLejkSbImG7MmWZdmNFK7EqyqkoqKzU8u/l1m4sfAy8RERERURlgl+biYFvZ1lgvgxbZjhaKKkCvAIE3P4eipRXdihHmWnzZ9QzTKqvnt+etYS4br+fgdhJoQdag65o5eUvvPcbAS9RB+T8m7NJMRERERDmYE9fDuFcsKPikS5eha7HucjbsdVpiO444BQJqS1A92QRxT0O4h/uYLX6VvycbYQ5dN5EtehUvFQl0i7bFweS6euHSi7sMvEREREREZQcH5XlgvveY5ztEyPUlnfbEM1WU0dLrS6DnYfqgzsq9lo0CL1pbO5I+rez9M4WoMtkFFZgDtEDHFxHL0f+hEFW2+jIWR4O1KXZVwhh4iYiIiIjKALs09x1LQrEQeEPTEBrTNRSBKjStTweYAxdNA3OTzbZEKHrlIeDmgjP+1f86eD2liIGXiIiIiIioKyxHk1VSKlz9p/64g0Yt25Uk/unCwYjsONz8v0frcfvDKubUxRy+aS/My8m2XieqPCOslzcGXiIiIiKiMsAW3j6mSdfMiWvmvU1IRWWFVCQd0/24KyzTfbnxeN0QLbbtSLx2lO1mncr4iL31LBth19XrLP8mXgZeoq7oD/1AiIiIiKgdNJTa2XlvkwlX7FyxJwh9Dano3tzx/s2YV9dGQM1LvFEQxKE3PqEAU0DLDySDrsz5F7ScbDDXu2b1g11ZBl6iDuLRUyIiIiIqJBRHbEwXpAHVjiIztjfQoBtqQEX15iDIjaFtv2zgtcRtnHhNy60f4Po1ROtZaK2N9PRAb8v3UYXZlzRadhuFXbQ+a9jV63K62PJcKhh4iYiIiIjKAA/KFwsNmOgFqOETrazpVErqNHhiGiAEX828HQ69pgsygmq8DVHgi5dO6fVruMXURSialclISm8vnc5Ipkm4xnVYblISriNuruW5H2DgJeoClvsnIiIiony2rUEz8CSTykhtRkNv/e5iZLo1exp+O5p40XKsVywVCQ2t8WlZaNX1JVNXJ7UafDMtlIQ2Xa0rqqTSRTfr/nVghIGXqIN49JSIiIhKAQ/M9y4zV26QlrQG3bTni4/tpi9BFGZbYvX0jr46kYZey01IZaL53Ljmtgu93rYrbrJCKiqSolnXdI3ubxh4iYiIiIjKAA/K9x1Lw6aN8bpeIH5cJKqlQIs5cX0NxGZobQdeMvP6aoB1XEeSyaRUJDTMFgqwGKebSEpCFxTPcvXyKJ7VX4MfAy9RF/DIKREREVHpQlGpKERAbd80Py3SVJUtUJXfcput2oyxt66jgbM+m0YS+igmpbfdiZuM7IReZ8IEWTeh1+80Xlzcngm8CTNe1+nnB0IYeImIiIiIqJ/RpKmB04owpjYj6bSXLfLUlbYMTbS2hku0xGKxET6TlaY1tjLpSgLzANVDJWVUVEYDSnxSR5nW3gqprKxstFQkNQxbkd6H+HL9HMm+qigAAH0hSURBVAMvERERERH1G7YVmnlxM6mU1NR54gXZVl6kz0hTYqdaXSNLwsgVF6GzqkqqdKk042YjE4JDC1MVaQDOC6GRaeXV2+yH42p7EwMvUQdxfAwRERFRiQoypkU3lc4WlWroxhyZ+WszqKDcBbnW3fpW3ni/EeuOY4uLylH1QnObXqHKylEgoZfS+5mSNFqC8+fSpQ5h4CUiIiIiKgMIVTktl0zqfyx9LtCqG3qehksNtaaoVNj8GYr0MoGfnSe3J54+FI5yXHHyW3nRwquhtz7Phr7eB0/vo2/ua4DFFLjScB5fhDqGgZeoC1i0ioiIiKjIIWBi/lsTeFGcKnuykXeQwBwm0Mv5epme2MNDHWdLQy/G8tbfahyy0a060H9DtPhm9H5iWqM44aKqc4iA3ui+UntZk6ozJb3H/v1338rTTz4ebxH1vC+//FxefflFs44xGkcceaxZJ+ppdak6qaqskt332kfmm2/++FQiKlYffvCevPXG6/EWUc977923zfsOhgyZUXbZbQ/zb3+HsbQzDxkkNel4KqAYWk1tVDHWE7HecJYjycqkpOpqZXp1dXxa96hMJmTGGQdLJpPtplx/m2j9RbCNN/OFkS1u0tXQG8i0yZPjU4sHDiSgMvSwueeWnXfZXaoGDIjPKQ4lH3gfvP9eGXHI/vEWEVH5e+m1t2WVVVePt4ioWF1y4XlyyUXnxVtE1FeGDJlBFlxgfknVZsy43chypLa2VsaOHmnOn2/uuaSiaoB46MscsxMVMnHCeJkwdnR8SvdAt/PKygqZf55hppBVo9bmQuyEuZ+1NTVof5bA79oY45600sqrysOPPy1Dh84Un1Ic2KWZiIiIiIjKFsLtb7//Kf+MGimjRo2Sf0f9IxPHjxVfwyMWtK46aGGNLw+hH2hQHiKzzzlnfEr3wHA43/NNl+aWOyhbZv5e20XYHSU1NdP1fnpFHXaLGQMvERERERGVLYyHnTp1mlRPn27CY830akml6uJzRSZPmSJ1dbXiNqomFYirgTNZWRWf0HWDBw2U2WebVWYcOlQCjWGFWnctx5VUOi0TJ0wwLczTq6cy6HZRWXVpHjJ0Brn7xWvNOhFRufjgjU/kyrNuMkeEgV2aiUpDfpfmQQMHyFN33SALLTCf2Sai4mLbaAe0JOXljaO1HDOVUCKet7ezbMeRMAhNd2b9f0k3m4YILbq6RKFp1XUkEiv04vOK28HHnyEvv5kdN16sXZrLKvDOOsfM8tRHd5t1IqJy8fbLH8pZR1xqqjYCAy9RacgPvEMGD5IPX3xUFh7OwEtUrFC4yse0RQEqKoNlphFKVCQkEXkaSDsRm1BZ2bEkU5etxNws6uJ8XWwnKZWOX3Ldb3c/5Fh59NmXzDrH8BIRERERERUp27YkkUyI/hOLTGVkL+PnEnCHYcyul/LEK1SB2XJNdeOBSbskw26p4PNKRERERESEUKsBNeFYDaE3Cs3cvJ64Glg7Hp1wNVaztGyLW1EpFRp0E3ZkLsNQ1nP43BIRERERESn0MHYTjji60pB5Q/F8tNDaElkdj08YH5x0dUlgcaQC/zoiCStCb2fqYQy8REREREREEGUDquvYjbs2YwojjcBhgcCLbstm/K8ugZ6fbbNtgOtL6PVVmMUyYdcJcW2d7CdNHcLAS0REREREFIuCUFxNSQi9DQJT0CpAQasoG2gj85+IH0aSzgRSlwklE3au6zP1HL4aREREREREedBKixZeN6+xNvJ9CTThho5roi6mGkplfEn7aN3FBfTfTEYC25HQdrN/RH2OgZeIiIiIiEqTBk3MYYspf1KZQFK+iCeJ+lbYzjKzCTm2uGjqrRdK4GUkraEW8/WmAxG9WdOluYElVuCLFemZVBQYeImIiIiIqKSEYSR+iNAZmRZWD4uehuDrBYGerv+KI0EX4g4iM4pX5ReWiiINvX4gvt5uoLfXEHU16DoJSbiW3mLYuTl7qUcw8BIRERERUckI0HVYA23G00XDZzqDrsZxwEQg9TIagAM9D8WkED+7EHnQ0ttqYzG6PmeLXLkoSGWHrLxcZBh4iYiIiIio6JlIq2ESQRctuxhP25rQ90yrL8bUdhTyM66+cXflJjB1keOK6zpSlbCkUsNuQ2VnKhYMvEREREREVNQQPNGduDYdmKrI7aNhN0B15TDebj9MGYTW4zpP/y3055YjycoqE3QrnPbeH+oLDLxERERERFS0cvPcolAUxs02yI6brUw4UpXMLhUJu1FlZQlD8/eB3c5CVpYlab2dOg3JGKfbtIXXsh1xE0m9LUsS4muYYtgtdgy8RERERERUlHJhF+NxURG5nmWL4yZE860kHEtcG8WiNNzoZRtH0FDCIJAM+j+3lndRllkXzwTdbNhtlK016CYcW5J6g7hNhGo7Ck1LMBU3Bl4iIiIiIipaCJ/53ZgtG9MFYexstjtxGGZbfk0hK70ssm2+COf7gQQmnraQevVkNOYGXqAROcfSDJwN1ri9hOtI0oo07Ha8izT1HQZeIiIiIiIqSoinFlpfc3TdSVRo+LQlqRHWTE+kQRdz8LZcyCrS0OuLF7ktV2zW64nCAA25pvBUtsFXb8txpaIyKZUOqi+zNbcUMfASEREREVFRQossAqgZlxsXikragbgadtGqW+sFpqhUm22ukQbjTMZUbA5tNz6xMdu2JZFwZUCFKwPNYkulG4kdZDivbglj4CUiIiIioqKEllZHE2+FKUqVLRSFSYbQqpv2UZAq2xW5nmWL5SazhaxQwCp/nqAoEC+VlnTak7oMKjCHUhfYEuQVszK5utGikZtht6Qx8HYBBtFPGDtJrjrrJtl5nQNkwyV3lH02O1zGjBwbX4KobV9/+r3c8d8HzPLrD3/Epxa377/6uf4+/++dz+NTOy6Tzsid1z5krufFx18X3w/ic7IyGU/GjBprLkdERO2HfZR/x4yT4866WBZadSOZdfFVZZn1tpL3Pv4svgRR21575305/8rrzfLOR5/Gp/Y+dC22dTGFonQJUVRKw26jis2WI67jyLMvvybX33qHXHvrXTJ+wsQm8+JivG+gYTk7tVF2bDBObe6tDz6OH/sN8svvf8WnNkjrvsm48RMllU7Hp1CxYuDtgtefe1f22+ooeezu52TU32OkrialgeVPmTqlOr4EUdu+/uR7uf2qB8xSKoH347c/r7/PWO+syROnym1X3Geu54XHXpfA9+NzRKqnTpfDdz1Fdlhzfzlgm2P1slPic4iIqDWBhoF7H31aVtl0R7nmtnvkr5GjZMq0avn5tz/kn39Hx5ciaturb30g51xxvVne+fCT+NQ+pOEVNZg9BN78sGs74rgoZGXLPQ88LGdccJlcf8f95qBP/sUKQZBGK3JTb73/cfzYr5Nvf/wlPjXrr5H/ymqb7yTDlltbll1/Kz3/5/gcKkYMvJ00+p+xcsHxV8nEcZPN9tCZh8hq664gs881q9kmoq6ZpAH3+y9+NOu//fin/PjNr2adiIha9/X3P8ppF14pY8dPMNszDplB1l9rNRk25xxmm6hkaXgNPE/DbljfKmuqKCeSUqGpJmFFpjW4qrJS5pl7LjNLbuN5exvg78yY3aSjObpA4m3Fp199Ux+Cf/9rpHz8+ddmnYoTA28n3XPDI5JJe2Z9xTWWlXtfvl6uuPtcefitW2ThxRcwp/c1lGj/9+8x8vZLH8h9Nz4an0pUGmYcOoPMt9C8Zn3OeeaQBReb36wTEVHrXnrzHRkTh93tNt9Ifvv4NXnl4Tvkl49eke0339ic3tc8DS1ffPO93Png42Yhag9E1wjVqeozrEYZ25EKjOuNKyhXDaiSBRcaLqGf7e1QKO5ajituMikDMCY48vRaOjbN0JKLLizzDpvTrM8+6yyy9OKLmHUqTgy8nYBxhd9/8VO8JbLP4TvL0FlmNOuJZEI/d8XxtI79d7yccvAFcvZRl8tDtz0Vn0pUGmaYcbD8977z5PqHL5YbHrlYZp195vgcIiJqzcefZVubBg0YIAftuYvMMHiQ2UZrVkVF0qz3tdff/VA22+0AOfSks+WVt96LTyVqBboe6z52FKGMVExPsx2nYZyurgydcUaJ/Ej8KGocY/X9bzkJSSYcqXR1n93MyqtX0YmCVIsuuIC88/QD8sFzD8mHLzwsKy27dHwOFSMG3k7IpDIm9OYMX2S+eK24YILtKROnmoI/Hf8oE/UtdEmaRUPucqsuJbPNOYvZJiKitk2cnK15MGBApcw00xCzXmxq6lLmfgZB42KFRC0y6VTDbqOd2sgUaAN0XUYhK1tDLcb4NoRdDcW2K0nM2+taktBQjOJXXZlTF7skw+acXVZefhmZZ6459fq5j1LMGHg7IffByhkwsDJeIyIiIupbGNIEjuNIwk2YdaKSh91v3QdvdPxbtyN9v2OKInRfTnuBeH7QJOw64mrCxRjfpKWBmNm033FOOvWMs+P1kvTtN1/LC889Y9YHDhogux6wnVnvCdOmVMvYfyfIxHGT5LVn35Xp02rM6RtssZbUVNfK1MnVZlqVAQOrzOn5pk6eJn//PlK++/Jn+e7zH2Xs6PFmDHCyImmWliBc43r//WeM/Pzd7/LtZz/ov7/JxPFTTEXbqgGV+iFuPHn2pAlTZPyYiTJ65Dh568X3JVWXNl2t19lkdXNdWHDbeL4A923c6AnmdKisqjD/NoXrwXXi8ulURgYOzv59Dgp4YZomXA/uU7Iiofdzsnncv//8t7lNFPdqCvf3z1//Mc/L9/r8TBg/SfyMJxWVFeZ+dxWOHuP5+P2nv8wUQD9/+5t5LQM/1OevQhwXs7k1htbxMaPGmyrCtTV1MniGQeJ7vp42Tn75/nf54uNv9LFO1J2KyDwPTl43dlz3X7/qa/3FT/p6/yRTJk0zp+N9ge5kTeE+ffr+l2Z9XX2NFlp8uD6/+lz/PVZv6w/5/KNvzFhslL939b7ieWmrtRPl+nFfUezp68++N/+ienik93eAvu5tHYnEczZO3+u//fSnfKP3D38/vbrG3O7AgQPky/99J59/mO0yt9QKi8mq665g1pvCTtckfQ/8pa/vt19kX9+pU6aZHye8d+tqU/Lw7U+by845z+yy8bbr1b+f8bd4DJMnZF+DQYMGNnrcqOKMbvt4v+H1qtLnF70ZRv41Wn7S1/jrT74zzxuei0q9LUwk3xp81vAe/vPXv/W9+JMpkoXXH/d10OCB5vkfrfdnqr6e+Z+f3vDXbyPNZxmPBfbce18ZNvc8Zp2Iitf7774j77/3jlmv1N/6A/bcWWYemh0C1d3QWjry39Hm34eeel7GTZhoCvess/pK9efX1qVkyAyDzXaO+e7T837+7U/53+dfy2dffyd/jxwtGS8jyURCKvU3pyW5v/3j75Hy9Xc/yQeffiHf/fSLjB47zuwPDRxQpYG74bvX1/2W3/78WyZOmmzG7+a6MqOFbKXlljLXhQVBPXe7o8aMlTFj9bu+err5/cF5hYybMElGjR5j/h6/FVVVDY0RgX6P/z3yX/OcVNfUmi7ent6X3//6R3769Q/zL+5nrut3Dh7f2PET9TK/y8effylffvuDuQ1P9weq9P4lk13vHl5TWyd/6O3j+fjosy/llz/+kuk1NeZ3epA+3kK/96i4jceDx5rRxzF44ED9m1r5+fc/5H9ffC0f61Ktzxe6+uZfBx7PyH/HmNfovf99Jt/9+ItMr62VCn0ceK0Kee3tD+RDvV+w3hqr6vtpZUnp7+Hvf/+jr/mP8r5ez69//C21qTrzfhlQVfh68lVPrzHP+edffSeffPmN/Pr7X1JTV2ce88ABhR9zDh4Dnp+/R4+VH3/5XR/Lr/LPqH+lRvebbEf3PfWxvPj6O+Z9U5GskI3/s67MM8esUuE0b83NeJ78+c8o+fr7n+RDfe+iivk0fd6wrzVIn1NMS/RuPBXTTltvJosv3FCjB+H61z/+rH/PojBc/j4eXo8//xlpzkPoHqDvx1p9jL/FrzWmePpHX0PcBzzmZBv7u2afaNwE+RHvxc++kq++1yyh7008H4Pi1y732apNpWTwoEGtPo/d6fHnXpbvf84WFp1r2Nyy0y676eev7fdBb7ImVWc6355fBB68/14Zccj+Zn3WOWaWpz6626z3hMfveU7uvvZh8+YyO9lxN5yZZpmx/k31n63WliPPOLB+G1/4rz79ljxx7wvyxy9/mamLcgbNMNAU4tl7xM6y6jorNHtjYif/wVuflA/f/FRG/vmv2cHPwWVnnGmIrLD60nLYKfvKHMNmM6fjvt148V3y0hNvmA8jwlfuSO/Msw41/8LK6ywvZ1xxrFl/4JYn5CG9Hdj94O1bPGiAkIPK1GkNvkutuLhceNOp8TlZV511s7z5QvbH68gzDzRB/var7jc7654G2CWXX1RuefIKcz7gtKfuf1FeePx1+fOXbCAGPDaM31xsmYXkgGP2kCWWW9Sc3hl4vu+69kF555WPZJQGITwngC/VmWadSVZZe3k5/LT9ZMjQGczpOQjqpx1yoQlM8y00j1x933lymz6WV59624QwPM/oWjPTLENlrQ1XkcNO3te8np+8+4Xc8d8HzfRCCHOAx4Pq3VvturHsc/guzV7n+258TG685C6zfsaVx8pKay4rN1x8t3z2wZcmgJnbUgi6Cy0+v+x16E6y9sarmdMKQbi/69qH5H96X8aMHFf/+uOLeLa5ZjGP+YBj9pSZZ2t4P+RDQL/zmgfN+w4HWhCSAUF0rvnmkO333MJMEXT3dQ+b03fdf1s54owDzHo+3O9H7nhGXnjsNfn791EmjAIePz6rOFCE69p5vQPN6SusvoxcfudZ5nFC9bTpcvIB58k/f/wr8ywwTM8724TknKf1vXP71Q+Y9Y23XV+232tzueb828yBExxEyRk8ZJDpFn3CBSMafQby4bV64p7n5aUn39TPGu5rw3sR3anX2mhV8xn977m3Skovi8/d2decaC7TG95++UM564hLzWcGXnrtbVll1dXNOhEVr0suPE8uueg8sz5Ew9SHLz4qCw/vmWFQ/73lbrn8xtvN+viJk80+Cr73Z5pxiNmBh5WWW1qevPN6s56DcIzpWxB+qjVI5CD8rbD0EnLGcYfLOqtlQ3M+7Mjj71564x355fc/TSDN/V7BbLPMLOtqOLry3FNljtlmMaf9qyFkjS13NfcNQQ/BByorKjQwNATxc048SvbbbQezvsehx2k4+MQUBnr4lqtlwfmzxQybOvuya+X2B7IFOk8YcYAcecDeZh2mTJ0mO+x/hAk0C+nz/9x9t8hl199mimWhuBd+J48+eB+57MyT4r/Iuumeh+T2+x41QRIHC3Jw0GJlfS7PPeloWX7pxeNTO+4rDYznXXm9Bt2vTBjPPX84QLvogsNll223kOMO2a/ZAVtMOXXqhdn9qW0320gO2WdXOfHcy0x4nDxlqjkdr/1iCy0gpx51sLkeDMW75Lpb9PV+QYPaX/X7Bgi7Sy62sJx1/OGyuYbDpk7S673y5jvN+lnHHyH/t8t2ctJ5l8m7H38qo8eON6cDAvPiiywkxxz8f7LDlpuIU+AAP+CxXnj1jfK/L7/WcNbwW41AuPAC88th++5R/9oXgrB416NP6XP3i0yYPFXC+DnDAYilFltEjth/L7nujvs0+H8jMw6dWS4//WhZY4UlzWXy4YDBuVdcL2++r/uH+r7M7R/is7LEIgvLcYfua94vF1x9kzn9kVuvke0239CswyR9njEdUc6Xrz8tM8/UsI/x0pvvyoHHnmbWjz7o/+T/dt1Ojj3zYjOvMQ7O5CAob7DmqnLpmSfKfPMMi09tDK/Vf2+9W1/3Z8x7EQfgAfsoc885u+y41WYyYr89ZO2tdzPvoVWWX0buu+Fyc8CrN+x+yLHy6LMvmfWVVl5VHn78aRk6dCazXSwKvxupIAQ9hAETdsOGMSfYxulYaqfXxadmd/ifvPd5ueSU6+T7L3/Sv8+YUDTjTDOY1iG0Cn+lIfLcoy6XH79uPL8XoJXwDt2h/+Grn7MtXPq3CGZobURhLIQOzAV89dm31H9xAXbecV+mTW0Iu5C7j1hw2zm4bgQ8LLV5gbwp7GyjtQ6XQytvU2gBzF3PN5/9KBeecLUJfrkfXRzZzUGL3K1X3GcCBFpcsY1ggucGLcwI6pjfFUW30IrXGVMmTZXj9ztH7rvpcRO4cB8QpPEcuomEaaFFGDt0xxObPR60pOF5wmPBY77stOvl3usfMdeJ18G0gut3LM579qFX5P6bHzfBHqHkm89+MF9Cg/VyaOXG+wAhGY/3mYdejm+hMPQaOHqvM+TlJ98wzwFuC8+Lqz92aPVFqzGek9efe6fRjkVO7fRaOfeYy82BBIR1/B0e75Chg82XOALwMw++bB4PWqybwpjv0w+7SB6761lzgACPccCgKvO8JZKu/KPP4w0X3ymfxa27LUFgvPLMm+Sa82417wG8d9DKiuvB9Y3X5x6F1G66/J74L5pD0M69BmhVbfp46/TzmHu/4fk977gr5d1XPjLvf3M7A6vM64ADRTj91EMuqD8IkQ8/cndd85DcdOnd8vtPf5qdAry+M8w4yHxO8T55/O7nzPlYN/dHP/NERMWkLpWSCRp0seR++/HvZA17udOnTmv47kIL55U33Sl7jTjBtCyihQ2tv7PMPFQGDxpoWrre+uB/stFO/2daYpt+B7/w2tsmrCFkoTVrBv2bWXSHHzvwaIVFgMNO8I4HHCHTpmcP2COcTJiUvS+1Gnhz0plM/X3EgseSg8ujZWv8xElmf6IluL+4HJYa3a/Jl7vd7PVMlpvvfUiDzI3y79hx5ncCC1ptc3B/Tr3oSjnilHPly+9+ML8LQ/Vx4fGhNQ5hH4HmPzvuI59osOooPJdf//CTbL7HgfL0S6+b5woto7nnD68bprw54+Kr5cxL/9to/wnqNHznHuuo0WNl/6NPlVffft88P3gN0dKK60Cr27563geffCFnX36tCXhoWcXBDCx4nfBYP//6OznkhDNNy29rEAy323eEPPLMixqsp8nQGWcw9xet4ziA8am+F3A9hYqQ4TG/8Prbsv72e8mLb7xjwi5aps1j1vuM+4EDAPj7G+56oNH+K+DvP/r8K9lwp33kvkeekq+//U4ydTUyVPeT8N5DKz7ei0edfpGM1f3jf0eNlNEj/9J9iYaaOzmTp06V3TSk3f3Ik/L3KMxLbZnnY+iMQ8wBgG/0tdnniJPkpTfezf5BAbh/udcAC3r85Uul0/XnYc7eVTbdSR588jl936fMQSg8drzvcDDmiRdelRPOvdQ8hqZwPSNOPscc0MD9wntxwICq7HXo4x41ZpxcdfOdctqFV5kDELi9iZOnNvu89ncMvB2w2norycmXHClHn32QadnLOe68Q83pWLbYeSPzBgaEUewkY2cfwWXfo3aT/953vtz85BWmtWqzHf5jLouupqikjDDVFL6MVltvRTnh/BFy1b3nyc1PXCbXPHCBHHjcXqabJbz32sfy0dufmXVcH64X9+XgE/Y2twsIGbn7iGWnfRqOSvWEt158z4Q3tEQef95hcsw5B+t6Q4vU0w+8JI/e9Yz5QKIw0YjT9jeP6+YnLpeLbzndtKgBukifdMB59d3HO+LWy+8z3VoB3YRPuexoueHRS+Tmxy+Ts646rn6aGwTV2696oGAABAQ/hNpV111RLrjpVLnmwQvl/BtPkTX/s4oJ0XgMz2qQPVWD6PTqWtl6103k0tvPlP/ef4Gcdtkx5rZz0Jo7Oa/1sam7r3/Y3B9cN1oQr9XbuuaBC03r5NzD5zKXwe3doo8Nc0Hnq9Gwe+ohF8nnH2Z/fBdfdhE546pj5cbHLtXHfamcqo9/+MLZI+Pvv/6x3H/LE2Y9H1pMcRAGUHn84BP2ksvvOMs8b5fceobsvN/Wek5kuta35sXHX5fnHn7FrKO79za7byoX6XOHistX3HWOjDhlP9PK+4Z+RrrD/9793HSX3nq3TeTCm0+T6x+5WC657QzZfKeGo7G/fv+HfPbBV/FWg6fuf8H0pMCPV0VlUrbZbTNzHdc9dLF+5s6VA4/f24RndIlHV34iomK09ab/kZsv1/0EXYbPO7c5DUHizONG1J9+4oiG3jhPPP+KBqDrzDq6veJyLz10m7z/7EPy9N03ykF77WL2QfDdeNal15jA2BTO32S9teSmy8+V5x+4Vd579kEz/dF5Jx9lrhPQ7fWNdz8y6zMPHar7Reea+3LQ3rua02DFZZasv49YNlir5V5MXYVwef4VN5igdfxh+8vNl50r5598tCyzRLY3GULHjRq4LrvuNrONAHnhacfJq4/eJe8986A8fse1svM2m5nf/2oN8gj9HQ0X6Iq7w35HyLjxE802WkQfu/0a8/y9+sidcvlZJ5kWcrj9/kfl06++NeuFvPHeh/LTb3/I6cccKs/ff4u8+MBtcs0Fp8u8w7L7DJj+ad+jTpbbH3jMhLnzTzna3MZz990sF556rAmtgKD01IuvmfWW4D2D7r+brL+23HXtxfLao3fLyw/dLrdeeb4su+Ri5jJotR9x0tmmBTUfur0fc8aFJrzjfuD99dTdN5jH/JK+Z047+jBJaFDHc3nyeZdrSP88/sssBPUDjjlVplXXmIMbeI+ffcIIueGiM+TGS86Us487TJZYeH693B/y8SefSE3NdN0vqm5WgRkHfXY9+FjT9RvmmmM2uUhf3xf0/fvG43fLo7ddI3vtuI3Zn0b3/u5wjwZrdCXfa6dtzPvndb0dPHa0ZOMxwzMvvS5vvpf9nORDa/69j2WHfuHzdsAeO8mjt16j13GPeb0vOeME8xgefvp5cxkqjIG3AxZYdD7ZfMf/yEZbr6ths2H83qbbrW9Ox7LMSkuY0zDO9+qzbzbjXtH1FV1Z99PAu9gyC8vc880py6y8hJx40eEy59zZrsjosvzK02+b9RwUwzrp4sNNQEB32CU0wMwzfJgsstSCsufBO8gq6yxvLocvhxcfe92swxLLLWLuy3qbrlE/Bgbdi3P3EcuKay5rTu8pCKpb7rKxCa8IO9vvtYXse0T2xw0tj1eceaNpBcQXCrpk77LfNrLIkgvK3PPPJSuttZyce+1Jpqs4oNXtk/ey40faCy3mTz3wovmhRjfec649UTbZdj0T+NA9dr3N1zThOjcO84M3P5EJ+poVYsbqaOA5RwMourUussQCsvp6K5kQOv/C2XGUaIlEUF1/izXlhAtHyPKrLS2LLr2QbLj1Oib85qaqQkslxiu3ZNL4KaZL87nXnWTG8y6st7XIkgvIljtvJHc8c7XMMnu2iwjeL7mDHDmvPfOOPk9fmHV0/b3k1tNlg83XkvkWnFvmX2ge2WibdeXw0/c370ccibz18ntNi24OeiE8ce/z5jnD35980RGy12E7y7KrLGWeN7xn0F3/iNP2N1+6LcH78YFbHjdHIfH6Hnryvua5WkWfO3yGll5xcdntwO3M+787xmgDwv72e24uJ+l9RpftBRaZz3SRPvXSo+rHF+Oz+PUn35v1HLQMoxdFrtVgm903k+PPP9S8zjgggu70ex26o9z0+GWmtZ6IqFgtschCsvfO25oFYQ4wjnWrjTeoP33TDdYxp+N7+qJrbjatcq5+n99wydkaOA41U6ssMN88svZqK8m1F55pgg0gcH0SB4QcBNobLj5bntXgtM/O28mqKyxruhsvv/QScsJhB5hAA3WptHz8efZgI7qd7rnj1ua+rLvGKuY0mH+eYfX3EcviCy8Yn9P90OUXY0D/e8FpJujss4v+Hh1+oIaPHc35aHFDV21ASykeH7rpItAtOHxe+c/aq8t/zz/ddPcGtPRijG9H3PnQ4/KnBkDYapMN5MGbrpQN11nDPH/LLbW4jNhvLznywL3Nbyha6C+Nw3cheA0P3ntXDbwjZLUVl5OVl19a9tdQdMU5J8eXyIZFPO67rrnYdJHGbay+0vJy7CH7mq60uB28J95498P4LwqbNHmKGcuKsLzDFpuYgwQrLLOk7LHD1nL3tZfUj0//R8PdjXc9aNYB133YyWeb+wG7breFXH3eaWY8MB4zDniccexhcvyh+5nz0cL/6DMvmf2RnIefesGMtwZ0wX7/uYdk9+23lmX1Piy/xCKy7cbrye2XnyvzzD6zVE9tuWEBrcu5cbl47+NAA15fvH/RJXqjddeU2666QJ/T7Pu3O+A12nHLTeS2Ky+QDfT9g9vBY7/87JPr30c40IKDG/nwvF1x4x2mCzNeIxyswGd14/XW1OtY2LzeRx+0jwb+c8ywAGoZA28PwfjJ6qnZVslV115Bdt4XLWONYUwGdtBzvvjoGzPmNwdjR7fYaaN4qzHLtjTArBdvifz645/xWnFAAaIDj9sz3sqjH16ML85ZX4Pnhltmf1DzIVwcdkr2iw9dTn/4+mfzwW8PfEFee37Dj8N2GoTmXSB7tDsfQt1/4tseO2q8/NukxTTfKRcfUd9anoPwuewqDeNCEN622nljc9Q3H8bvrrhG9gADvrQQalsy48xD5ORLjipYOAzFsfY4eEfTYgpvPN/QZQgtj2jpB3RjPv/6k2Xm2ZqPn1hlreVlqeWzR2HxfH7zebalFuto5cxZff2VWixE9Z+t1pHhixYeQwXvvPyhBnJ0ERJzgGezHTYw602ttu5K5vXvDujtsK2+zoVsqyE2F9D//mOU+Tfny4+/Na3ygOnF8J5t+voBwi8O2uBgARFRqXvm5TfMmF3AjvcWGzbsT+Sg1sXOW21aX3QqN0YvZ7vNN5L9dt/B7IgXsuVG69XP+YvWvWKyoYaaHbfcNN5qDK2YKGQEu22/pay0zFJmPR+C3dab/Mes4/fz1vsaB5XWoIXz4adfMOso1nXByceY9Xx4SnH/0BIKL2uonlpdeCgNWgj32mlb83rlw/OfP955ndVWNi3JTSFszj5rtjX51z//Nv+2ZL6555Izjjks3mpsyUUXNiE9BwWfcmO0P//me3n9nWyYRpfw044+pNm4ZDhwz51lztmzDUFoXc3EPe9wUPqOhx436zjQct5JR5sicE2hNf7WK85vVCitKRS0Qqs33rcYK77ycsvE5zTAeVede5oJpt0Bre23XHFes88KHsteO28Tb+k+yXc/Nuq2/+wrb5pCVLDckovJ3vo6F7LJBmvLNps19Gij5hh4ewhaGHNjLrbTHWWEkEKWX33p+irBGA+K8bRtQTEfVAn+Lg4rgPHFTcd49CW0rqGoVlMIfD99m63kBvsdvXvBKsmw9IqL1beMovturqBAW1C06ZcfskcBAQcNmv4Q5My74DDzw4KQjOrXhSAYr7vZGvFWA3xxzb9Qw48JQvpSKxUuXrFw3K0ZY4NTeWOTmlpv09Vl9jmzxT0KWXKFRTX4ZoP3d1/8aP6FVF1Kfv0x+5jnXWCY6UFQCJ5PFHDKyQVTjBf+9YeGgya7HbR9i62vGBO87ErNC0Dk5B/QQGgu9D4AvCY77L1lvNU1ODiEx10ICroNmiHbkj9tSkPhN0AV7FxX9h30c1qownrOsisv2S0VOYmI+tpdDzUMadn8P+s1q06cs8D889R3uUQRoPZAC+k7H34iL735nthW9jccY3yLyWVnnVTw4CbcF3cfxW/8xuutVTCY4bylFl843hJ5U8Nde6G1+98x48z6kostZFrUCxk+77D6StOo5PvTLw37NfnmmHUWWWKR5i3iKDSJVsCcDdZa1dzvpmYcMkRmnCHbrXnq1NbrUyAALrxAy0XXRuy7R/1tYBxprjgT3g85OFAwfN7CjxljUueea3azjgrHufCHSsx/xQch5p5zDlltxZZ7KaIlHs9rITg48VncPRxdxrffYmOzXgjqnqy7xsrxVtest+YqJugXsuZKDY0LqVTa9IjIye+mjIM0uW7uTaFA2GH/t1u8RYUw8PaQ/NbCmy6+S/bb8uiCy4HbHFc/1Qi6+OaPI8UHE9MAIUBcdOJ/5cBtj5MtV9xDNlt2Nzl8l1NMMaZGimh8Olo186fqyUFLJKZUyjn36MsLPi9YUJwpVyEY1ZbxfLTH+DETTBGsnBP2Pafg9WNBFeHc1aK7cSGoZtzSD2P+NEsIqvnTIOTDVECAx5B7vQtZeInWu3HNNPOMZpwp4P2CrryAAwkTx2Z/WHBwYMQuJxd8vFgwvjYn9/eYfqcuLiCC0LfoUm3cjxaqHUOu1RgWX6bhx7YQVEDuDugKX+iHHBDcc+E9aDJOe9Tf2cCPA1JojW4NnpdC72kiolKC36FPvmzonnzdnffKqpvtVHA58LjTTdEcmDCp+bCfv0f9K/c8+pS53Fpb7SrDll1LZltydVPM6dLrbq0vPtXe3+/egGrZw+bMhqqmcD9z4zaxjrHLhZ4XLCeec6m5HIwZ1/7imh9+2jBEC9PLrLPtHgWvf/UtdqlvIYVJU5vXeQF0723p9y/XWopeTrn1phDoc6Hey2tdLAStuC3tDwFaWHPPLYpQpdLZ1z/XSglvvv9hwceLZcOd/k++13ALOEgSRdn9pfwxzBivmuuy35JZZy4cDPGa5lrvUd0Y97c1Q4cUPmDfUXPOPmu81txMedOU4f7lt/B++EnDewVd1VszbI7C72nK4t5bDzFjd2N//vaPadVsacn9EOBNnj9eAa3Ex/3fmXKhht3nHnnVjLE084Lq5dE6NmSmxlPpFJOWpn/B48tNrQKYW7jQc4IFRYJyzw2qSeqGWW9LOuXV/x0Uuu7cgvmHc3Jl3puqaGVcRP5YVlRTbkl7g9LAQa3PW4bWcCvvxyY3fQ4OCOQqBKIScWvPK6Y6yskdYEEF6Nw6wmxrY3TBdgr/uGLqofypt2Yp0K06X64Fv6sqWhkLjB2BXCtDUzXV2Z0JtOJjTuZWYYeihZ0KIqJSgRCa34r059+jTJXeQgvGTOb2S/L/Bl575wNZd9s95dATzjItxh9//rVp0cv9/qLibVu/JX0BU8e09JuMkJW/L4Dpewo9L1jyu//mV5xuS651FzA+t9B155b8nnst7aPkT+fUFMaoAvYZW9qXsfV3raXA3NSgdsw/Xxn3hML7Bj3zsG+b38KP4liFHisWVGnGeFdA/ZTcrlyuuBcg2LV1f1sK5Zg6C0EcME9ta/sO0FLvwI5KuC3fTqEeBIA6KLnq5jBs9tYDbXftT5UrPjs9DC1HKBa0wz5btrmgGFauhRBFiY7c/TQzNRFaBFGIau/DdpLzrj9Z7nrhGnnpq4fllicuN5ftTvlBsZl2Bk5otRhRfD3oAoxxl4Wei6bLOhut1oEPc8P9RKtcoesrtCwbFxzrS209wwimudZrfOHniqfhSzn32s059+xm3HLTx1doWWqF7HheSwNh7gektRboHD/TuKW0nl5H/g9N/gGcQvIPfvSFwG+4f2099+axdOAzQERUjNDVNT8wbLvZhmYOz7aWg+MiVIDiQ5gqBZVnAQV/MPftQzdfJZ+88oRM/vkTef2xu+qLGHUH/Ma19g0cxq2BbUEhKo148VZjCB/5WQrVmAs9F02XXIGu9siv0bHM4osUvL5CywLzNa9FktW+UNa+S7WhjZ9AvEZT4qmv8FwmdV8Q77XcPNCACtyFHl/TBXML47WC/H2J/GlBW4IxuoXkt57mWo9bYxpb+oiP+9pon6P1Jx8BmVrGwNtDcgWO8OFHwapjzzmkzWUvDbQoTAToapsbz4tpiTCN0cEn7iMbbLGWqdyLy+W3IncFfvxyMBa4JeiO3HSesY7C0V7Mxwr4HB964t4Fn4umC8JZe48Uo/swAhxg7r0jzzig4HU2XdbdtPk43d6WP49zIWidzb1GmM4pd2ABVaTxwwLoTn74afsXfIxNl7U2zE7/hB+m3AEFzJHb0pHknJYKfOF68sdko0t+a1DZui/lxuxi/uJca29LMJ9vMY2TJyLqDISI/K6cu2yzuamY29aCca85qKCbK0SVq9qLKW5QFAnFdQYNHKjfl0GjgNFZud9+fP+2dn2oINxVqHQ7OB7PjKB2wB47F3wumi6odNxe+V1PMSb2qnNPLXidTZelF89Om9SXpte2PhYbUxFhjmIYWFVl5prFQfD8MeJrr7pSwcfXdLninFPqi57NPFPDgRPMadvW+yo7t25zmEs51+qN1vX8+Z4LyW9Z7m2oaJ5fN6Stwm+//dF6wbH+joG3h+QK6KA1DhWbOwLdVP/JqyaL+XRRKKipH75ufYLwfFErrXYzzNjwRTTyr9EthtqRf/3b4lGz9sKRzdy4TbTuvfVS6yXwOwMtnMlkNsSnalPyVZOpaIrZV/G8wS3Ba54bd5tfmApfirPHU1yhC/30aY2LM7VlxplmMN16Aa/LB6//z6wXggJXP35T+L2HHQRM5ZPz+Ydft9jKi9NferyhwFVfmGOe7I4Hul29/3pDUY1CfvrmV31uGHiJqPStv0b2YCe8/cH/WvyebsnHn39pDuijijBaiGfUINHUv2PHmzlP28NvZR8lV+wH3VFzrYdNoZvqe/9rPG9rZ627arZQER4fChzh3+60/hqrmd9K+OXPv+oDYin44pvvTQGtQvA8Ya7f3PM1+2yzyKyzZIc1LZE3zdRjz7/c4nW0BFMf5YwaPdaMHW/Jtz/+YrqiF4LwPe/c2fmJESBH63u0JWjdzU2n1RfwHsl/3K+/+2GLQR+f3wc5D2+rGHh7CIr15FrcHrvr2TZbssb+2/ChQ6jMb2Er9GWL0JFffKgQfLBzX6rV1TWmO2whCy++QLwm8tev/8iEsc2PaCG4v/bsO/VFpDoLLZK5aXHg1ivuNXOhtgZFmDpiyNDBsvzqDWXmH779qfqQWAieX4yNLgbvvPKRfPm/whPMT508zcwtjPuL7kHrbdYwpQ/Gn+ZeR8yte8vl97a6A4P3Aqp952A8+AKLzh9vidx/8+MtPifv6n3EXMot2WzH7FQNgLmC//mj8A8Twv27rzafZL03LbbUgvUt0nhuMW68kJH6GPKrTxMRlbL86YRefONd+fn31qc2nDxlmjkwmDN+YuF563MQFq697d5st8wW5LqrAlpnW9qZn3fYHOZfdNl86sXXzHpTL73xTocKR7UG08TknhtMHzRlWuGClmD2H/S56YjFFh4uCy+Q/b399odf5JW33jfrLZmmQb8vu9bmQ+D9X5P5mHN++OU3ufvhhukNUQE59xqvs8YqZqwwYDosTP1UaN82B3MGo2JxDiovzzNX9n0wasxYeeqFwu8DHBQ58dxL4q0C9D6svFy2+BMKgl1w9Y0F33e4byi6liug1Vcwv3HOq+98ID/+Uni+548++1KebuGzQVkMvD0E0/LMOke2ShyCwxkjLpY/fv7bFPVBaMSCllwE1wdueVyO2esMc1lAF46BeYUBrjjjJtOdEgEGPzg11bVy742PyTefNlTDLQTdXHPTIWFc5stPvmV+MFCcKL879JLLL1pfAAvB/Mn7XjBda/ElgKCLoHXqIRfKD1+1v0W5NRtuvY65bzBh7CS55ORrTeDHfcOXDB4nAv/E8ZPlhovulBMPOM9ctr3wQ3XIiftIMu4K8+Ebn8pd1zyU7ZJqiiBkKyVjKp+/fx+l13+u3N+04nUfQYv0ecdcoc/1z+a9gvuJFtdRf42Rw3c9xQQvGL7ofLLMig0HDnAgYd1NV6//kX7+0ddM6J1muuEG5jHj9URBK8xFe9IB58sHeS2aODiy835b14+z+fHrX+XWK+4zoRjPGe4H/vbDtz6TK868ybx3W4J5leeaJ/vDNGbkODnn6MvN64vHkXtt0ZPg8tNvMN3k+1L+9FnTJlfL2UddZj4D5r7qY8Zr8NO3v8nB2x8vkyaUzlF4IqLWrLHyCrosb9b/GjlK9jzseNPihYrM6OWV+65GsL36lrtkj8OOk+k1DcM+5hmWbSVDy+qjz7yo4WF6dp9BvzcnaVjB+N7X3/3AXKYlqJKbgxa7H37+zQQ7dDNtHHYWr/9tuubWu82ctCighdvDffzj73/k1AuvNEWOusP6a60uSyyandbmy29/kG32Pkz++Xe0eawYJoXnBvcPxZfOvuxaOe7si1oNb03h93bXbTc3ARCP9aDjTjdBfnpNrXn+cF14HhB03/v4M9lk1/1bbYnsTRMmTZb/O+Ik+V5fKzwHAd4n+ryMnzBJjjnjQvl3bLYBY/555pZ9d93BrMMiGvB33W7L+n2Uk867zFSrRrEvXAceM1p9MaUVwvDia20uv/zRcBAGwXmfXbYzzxle59Muukoef+5lqanFcxaY09Cb4Pwrr9f33Uf1t9MUTt18w/XM8CvA837sWReb9yy6zGN/CUH4prsflHMuv67N2h49De+T3LRVGC//f0edbLpr4znH48ZrgOmbDjvp7EaFwag5Bt4eMsOMg+X0K4+VobNkxx389uOfcsRup8oZh18iV551k1xx1o1y1pGXyv5bHS3XX3hnowCBkIrwkoP5Vo/a83S5/LTr5dJTr9PrOUUe1JC8+LKtT6OCls6F4vlf4fqL7pBzjrxMzj/+KrnpkrviU/VN4Niy9S6bmC9hfOnce8OjcrTeHoLoRSddI4ftdJK899rHMmzeORqN9+2smWebSc697sT6qsbo8o1Acbbet6vOulkD/o1y+mEXyQFbHWNaGjsDXcr3OXxn81zix+mBW56Qg/Q2Ljjharn6nFvk0tOu09B3nhy83XGNgl9fQ3fsMaPGy3H/d5acMeISvZ/Xy7kagA/f9eT61keM3z7w2D3NGN5862yyumy7+2b1X/R47o7U9xymtDKP+ZTr5IT9zpb/2/xI+eS95t3sMc/sjvtubapX4n3w9AMvyiHbnyAXHH+1eb5O3P8cOfnA88wPBQ6StAS3v+9Ru9ZPn4SuwAdsfYwJk5fp4znjsItlvy2OMgXZNs9rDe4Lc+l7esQp+9aPE8Ln9Kg9TjMhHZ+1M/XzeszeZ8iUydNksaUXMoXWiIjKwZnHHV5fVArVcVfbbCfZ/ZBj5ajTz5ejTjtf9hxxvKyxxS5y4rmXNQqgsOcOW0tlZbb40mPPviSb7LK/CbkjTjlbNtX1ex55UobPO7cMGthyVV+MX811L8W4zL0OP9GEv50OOFIefOo5czqsv+aqMl8csBEIdz34GNn1oKPlML29PTSor7rpTjJy9FhZfunC8+B3FKYtOuXIg+rHDn/46Rey1pa7yd4jTpCjT79Ajjj1PNn1kGNklU13lAv/e1OnigUhDK6wbHZOfIQXPNdb7XWwHH7KOXL0GReYaZ4wRQ+md/rlt9Zb33sTptfBc7321ruZ5+BwfQ3wvKy48fbyxnvZHluzzzqL3HrleWYMar7Lzz5JVowfMypVb7zLvrLdviP0MZ+rj/lC2e+oU8zjxWtanXdwJWefXbY3UzABDgjsqbe71V6HyKEa9vY/9lRZb7s95epb7pYF55+34LzEOVttvJ5suv468ZbIzfc8JJvsvJ8cdPwZcsiJZ5rX4YRzLjX7xKut0PJ8v70B+1Nn6ed0QFW2kQgHYFbffGfZa8SJGnLPMZ+FFTfcTn745XfZa6dtzGWoMAbeHrTMSkvIededZMIvTJ44Rd579WN54t7n5cl7X5B3Xv7QFP/BG3rZVRr66cOWO28sW+y0oTkchfCB0PD0gy/Lcw+/YlqcFlp8ATlMd9Rbgw/rMeccXF/5efq0GnnrpQ/k1affln9HNu4mvMsB28iCi2UnE8ftffflT6aVEN2m//z1HzPP6QHH7akBMvsD0FVrrL+yHHfuofVHbcePmShv6317/J7n5Kn7XzQhdNyYCea5WWmt5cxlOmqvw3aWHfdpOKL4928j5ZWn3jJdzJ996BX59P2vTAsozl8gfux9bb+jd5dV111Bpk6uNgcZnn3oZXnj+ffqp0+aYehgU8Bszf+sYrbzoQv9cecfah4zXnu0UP7y/e+mKy4eM6a2+uKjb03RKxRVm3/hxhO/43lAkF5rI4wvyp6G1/6Vp98yz9fnH35jWvxxIGGVtRsmSi9k8x03lH2P3K3+uUfr6FsvfiDP6Hv4/df/Zwqy4f39f0fsas7vS5tst74cddZB9QXA8F5884X35Vn9rL2rn1e0/G645TrmtcntAHXX54CIqK+gWu5Td98ggwdli2yilevZV940rVs3aQhA61duztLh881txuvm/Ged1WXHLTcxvxVo9fzky2/M+M3b739Mvvj2e1lo+Pxy02Xn1u+oF4KDpyeOOMB8r2K/49sff5b7HntGXn7zPamJi3bCPMPmlPtvvEIGDsheF1qyXnj9bblDb+/pl14z3ViPPmgfWWOl1n+X4p+1NuF3a5dttjCFuHL3Hy2XT7zwqtx41wNyy70Py/OvviWj9TTc9wWHz4s/Mpdrr7nnmkPeeuJeWX3l5c3toaUarbm33f+o3HDnA3K/Pg/oPoznZZ5hc8iAysJz/Pc2FDjD+watz3gOcH/xvOC5ALTE3nTZObJe3hjxnFlnnknuv+FymXO2Wc1rgceMkHzbfY/oY77fdB//+vufTMslHjMun2/+eYbJU3fdoIE6e7AfLbLvfvSp3Png4/LgE8+Zsbvzzzu3PHnX9TKH3kZLMB3R43dcK5ttsI65H7i9L7/7Qe599GnTJfv9/31uhjo9ccd1ssHaq2X/qA/tvsNWcs6JR5j3CYybMFGefOEVuePBx+T5196Sav087LPzdnLSEQeb8wEzd+SKt1KWNak609ct9l3y4P33yohD9jfr6EL81Ed3m/WehPGPj9/9nEyZlB23cdDxe5mWxJZgjCpCC0LrJA29XtozLUXoSjlsvjll1XVWkKVXWrx+ZzoHRw1ff/Zd+fidz2SC7oSj28dMswyVpZZfVDbWnXSExVxXXASYPQ/ZseDUPbjd5x591YylDLzAtBCuvfGqGjg2ii+RNW3KdHnpyTfk60++N+EcUMxouVWWkq123cRU733xsddNF9e55pvDtCbme/OF9+q7Pf9ny7Vl0aWzXYJa88+f/8obz70rP3/3mwl5uG60DKJlfN4F5pbV11upzZbstnzz2Q/mQMMfv/wt06trJNLnsVJ/OGedfSbTAr7mhqua1ut8GPP79AMvmfGws+jldtp36/ovm3y//fSnvPzEm2Ydr+U2u29q1pv67IOv5eO3PzM/iutvtoY+pkXic0S+/Phb+eCNbCszprCae/455dVn3pFP3v1SJk+YLJiIYcaZZpSFlxguG2yxdn1BtJagS87nH3yl75vPTZdtdIHHdaAo1WxzzCKLLLWgrLHByjLHsMKT0OM1ePvlD03L+5iRY837cNDggeZ21954NfN++PS9L+uLsS236lLm+gr5+tPvTXj867d/pE53YCp152GOYbOagxioEI2uw/dc/4i5LJ6/LXbeqP4gCD5n6F4/afwUMzfwDntv0Wi6K1w3XlfA9Epo4S5ksobtZx562TwPc8w9m2y/1xbxOQ3QCwBDBN5++QPTpRmXxfM165yzyJobrKLXvZq5rbOOuNT8SG+qn78zrjou/uueh9cDt43nC1567W1ZZdXCj5eIisclF54nl1yUHZaDlsMPX3xUFh7e8wdYESDQ9XHI4MFmvC5a3VqC7rqouvzZ19+arqnoLozWOcxXu+iCw00L61qrrthsHwXdcR/RkIIupCNHjzHhDC3Ga66youy987amHgkCMFrrFtHr2W+3hi6uObitx557SV5+410ZM36COLYjc84xqxy5/16NCvbANz/8LA888awZAzq1ulrvY6UJQZtssLZsudH68urb78s7H2Z/SzdZf21zv3Pq6lImqI4eN948FyP23aO+zkprfvr1d71/r+ht/yQTJk6SjP4+4rmZbZaZZfFFFpT/rL26rLTc0nq/Oxcu8Nw8+/IbJrihWze606In3QwaytBCvvpKy8lG665p5jTO98kX38jjz79s1ldcdknZaavG+2M5CKXvfvypee122mpTWW6p5q3gOICAgxUIrQm97fNOPjo+J+ulN9+Vt97P/tbieV1l+WXk/sefMc81nk90M0bV75WWXVp2337L+lb7luB98/BTL5iAj/G46Jac0KCMCsp4PddadSXZYsN1zWmFIPDd//izpkv0hEnZseSzaTheUW9/hy03Nl2Ab9cg/ssff5kDFugKPV+B+4TnGt2nUbQN71+0tM+kzzNe1x233Ezff0uY9xSKRcHeO21b39Ud8N495/Jr461sj4kBcQMT5I9pxmuI90ohtfrePPeK68w6nsdjDv4/Uy28qY8++0oe188Krhf3HcXc8LhwvVtuvL589e2PstbWu5nLbrjOGvL8/beYxo/egJ4hjz77kllfaeVV5eHHn5ahQxsfsOhrDLy9CEEiN54S4QlHkHLjCFqT+zvR0IIvrfyd/vZCNyBcD24boRi3WyjA6U2YriK5uV7RvdXVL51CF+0uuE+4b7mxKzgyhcfZ2kGEjsL1osIugk32NvC4nGY/4MUEY1LyX4eOvu4YJ44dDjxmwNE+PKctTbjfFG4bR1BxPXjP4G878+WJ288998X+vGPsmq/PGd6L5r7qZzRX1Orxe5+Xq868ybx//u/IXU1reG9h4CUqTX0VeDsDYyiz+yhh9vcC+yhN5uwtBL9Vnq/fTbr/gO9LtPK19TdN4bfK09vGnyHw4XYLQWtyxoxfxHe0ZUJRbpqZnmTqnwTZ/TcEPNxHPD8dfZwtQSsjwjR+J3GV+P3B89iZ39zekn2/YNw09tmy97cjzwf+Fvub+N3Fn5n9WxePuX3XkX1NsuO2XSc7529n4H7gucdri/tQodfTXa9rd8P7A48bDWB4b2BfPvf+/++td8vxZ2cLdu290zZy+9UXmfXeUAqBt3g/SWUIgQHT8qDlCP+2J+xC7u8qqyo7FXYBX0ZoOcX14EuhxQ+znoz7lb09vY/msvF5PQT3BbeD28NzU1FZYR5zd8JtoFW94TaSRRu6cpq+Dh1l6Y8GCnfhfYMl+5jb/5HHjgteC8ybjOvp7A8v/g63XQrPO35o8Vjr72scduGTd76IfxBtM1yBiKicILCghQotR/i3vQEGv1VoSRswoMp0e+5MWEBwxW2i1balsAsIm2j9QvdmXLY3wi5gvyn73Ojt6r94zJ15nC3B7yJajnH9eC7xGIs57EL2/YL7q7+XnXjdcdAAr2HuMeM62ht2IfuaZP+2s2EXcD9yr22l/v535+va3fCewNj57Ptf95Xj939NbZ3c++gzZh3WWGXFeI1yGHiJqF9DV7e2vPzUW2aKJUAF6vkWmNusExEREfWUVLrt2Sww/vn7n7JDChGGt9m0bwuCFiMGXiLq1/bd/Cj57zm3mDHBKA6GqaHQRQ9F3jAGGuPkzz/uyvruxGtttKrMNmfL4+GIiIiIusNhJ50lx59ziXzwyRdmrHFtXZ0Zb4zCYT/99ofcdPdDcoKej+7h6B1xwogDZZaZhsZ/TTkMvETUryHIPnLnM3L8vmebKYiO2ftMMy821o/V5ebL7jYVrwGFtvY5YpeCxeGIiIiIuhOC7X9vuVu23PMg2Xy3A2Xz3fMW3T7i1HPNZWDTDdaREfvubtapMe61EVG/hi7Kg2cYJLXT6+TPX/4xLb1ffPSNfP/lzzJ65DjUYZGZZplRtt97i+z80XpZIiIiop42+2yzyIxDZjDVtFGhGdMmoUL2x59/ZSp7Y9wzpmr6v123l/tuuMxclppjlWYi6tcwBdVvP/whP3z9i4wZNV4mjZ9sph6qqMhOj7XIkgvosqAMX2TePiu4xSrNRKWplKo0E1HxwRRc3/7wi3z+zXfy59+jZOz4CWbu3UEDB8ics88qyy65mCyny5KLLtxnhc44LVEvYOAlonLHwEtUmhh4iajccVoiIiIiIiIioj7CwEtERERERERliYGXiIiIiIiIyhIDLxEREREREZUlBl4iIiIiIiIqSwy8REREREREVJYYeImIiIiIiKgsMfASERERERFRWWLgJSIiIiIiorLEwEtERERERERliYGXiIiIiIiIyhIDLxEREREREZUlBl4iIiIiIiIqS9ak6kwUr5ekB++/V0Ycsr9ZHzrzELnlySvMOhFRufjwrU/lmvNuE9/zzfZLr70tq6y6ulknouJ1yYXnySUXnWfWBw0cII/dfq0Mn3dus01EVA4OO+lsef3dD836SiuvKg8//rQMHTqT2S4WZRV4LcuSITPNYNaJiMpFJu1J7fTaeIuBl6hU5Ade7KPMOGQGcR3HbBMRlYMp06rF8zyzzsDbQ/IDLxFRf/DCK2/KaquvGW8RUbHKD7xEROVuxZVWMYF3pplmjk8pDhzDS0RUYtBSRERERFRMsH9SjPsoJd/C+/lnn8jzzz4TbxH1jnfeflM++/R/ssaaa8uqq60Rn0rUOw446FCZc6654i0iKlZvvPaKvP/eu/EWUc+Lokgefug+Gf3vv7Lr7nvKnHMOi88h6nnzzDuv7Lb7XlJRWRmfUhxKPvAS9bbx48bKDttuId9+87UsvMii8s4Hn0pFRUV8LhEREVHf+PSTj2WrzTeSdColu+2xl1xz/S3icNw49XPs0kzUQe++87b8/NOPZv2Xn3+S226+wRxRJSIiIuor6XRazj3rdBN24fXXXpXvv/vWrBP1Zwy8RB0QhqHcfON1kslk4lNE7rjtZhk1cmS8RURERNT7Pvrwffnqyy/iLZEJ48fJk48/Gm8R9V8MvEQd8NQTj8kn//so3sr6+++/5LVXX4q3iIiIiHrfIw/dL9XV0+Kt7EH6W2++QaZOnRKfQtQ/MfAStdOECePl4gvPjbcaBEEgt996U6NWXyIiIqLegq7Lzzz1ZLzVoKZmupx60nFmX4Wov2LgJWqn1155Wf768494qzH80Nx1x63xFhEREVHvQB2RY448zITbQl547ln55uuv4i2i/oeBl6gd8GNy/713ied58SmN4fwrLrtY/h01Kj6FiIiIqOe9/ebr8vVXDWN3m5o2bao88fgj8RZR/8PAS9QOL734vCkG0ZqJE8bL008+Fm8RERER9Sx0VX74oftNheaW4KD8g/fdI7W1NfEpRP0L5+ElaoeJEydIXW2dWf/i80/l8EMPrC8Mccvt98jqa6wllmVJ1YAqGTp0JnM6ERERUU9CmB03dox4nm+2L7rgbHnw/nvN+jzzzit33vOgzD77nGYfZeZZZpGKigpzHlF/whZeonaYeeZZZO555jHLrLPN1mgS91n0B2TY3HPLXMOGMewSERFRr0GQnX2OOev3UQYPniE+R8R1XJljjrnq91EYdqm/YuAlIiIiIiKissTAS9RF6E5ERERERETFh4GXqIPQfYiIiIio2DTdR+FBeSIGXiIiIiIiIipTDLxEXcSjp0RERERExYmBl4iIiIioDHDYFVFzDLxERERERERUlhh4ibqIXZqJiIio2HD/hCiLgZeIiIiIqAywSzNRcwy8REREREREVJYYeIk6iHPcERERUSngPgoRAy8RERERERGVKQZeIiIiIiIiKksMvESdwKIQREREVHS4f0LUDAMvERERERERlSUGXqIuYkEIIiIiIqLixMBL1EHszkxERETFiPsoRM0x8BIREREREVFZYuAl6qJI/yMiIiIqNhx2RcTAS0RERERUFtilmag5Bl4iIiIiIiIqSwy8RF3E7kJERERUDPJbeLl/QpTFwEtERERERERliYGXiIiIiIiIyhIDL1EHNS0IwR5DREREVAws/Y+IGmPgJSIiIiIiorLEwEvURSwKQURERMUo0v+I+jsGXqJO4Dx3RERERETFj4GXiIiIiIiIyhIDLxERERFRGWAPNKLmGHiJiIiIiIioLDHwEnURi1YRERERERUnBl4iIiIiojLALs1EzTHwEnUQf0yIiIiIiEoDAy9RF7FLMxERERUj7qMQMfASEREREZWF/F5oDLtEWQy8REREREREVJYYeIm6iEdQiYiIiIiKEwMvEREREVEZYGFNouYYeImIiIiIiKgsMfASdQKLQhARERERFT8GXqIOYnchIiIiKkbcRyFqjoGXiIiIiIiIyhIDL1FXsUszERERFSEOuyJi4CUiIiIiKgvs0kzUHAMvERERERERlSUGXqIuYnchIiIiIqLixMBLREREREREZYmBl4iIiIiozET6HxEx8BJ1mKX/ERERERUbFq0ias6aVJ0p6cM/H7z/rvz3qsvjLaKeN23qVPni808lk8mY7WWXW15mm30Os07Uk6ZXV8ugwYPlrHMukCWWXCo+lYiK1VNPPCYPPnBvvEXU837/9Rf57bdfzXplVZWstNIqUjVggNkm6klTJk+WOeacU84+7yIZPnyB+NTiUPKB98H775URh+wfbxERlb+XXntbVll19XiLiIrVJReeJ5dcdF68RURU3maYYYg899LrstTSy8SnFAd2aSYiIiIiIqKyVFYtvLZjy4KLzmfWiYjKRfXUGhn77/j6KbDYwktUGvJbeG3bloWGzytVlZVmm4ioHNTU1smvf/xl1ou1hbesAu9Ms8woD755s1knIioX7736sVx80jXieb7ZZuAlKg35gXfwoIHyyiN3ysLDeWCeiMrHNz/8JOtvv7dZZ+DtIfmBd9Y5ZpanPrrbrBMRlYu3X/5QzjriUvEyntlm4CUqDfmBd8jgQfLhi48y8BJRWUHgXWHD7cw6x/ASERERERER9SIGXiIiIiIiIipLDLxERERERERUlhh4iYiIiIiIqCwx8BIREREREVFZYuAlIiIiIiKissTAS0RERERERGWJgZeIiIiIiIjKEgMvERERERERlSUGXiIiIiIiIipLDLxERERERERUlhh4iYiIiIiIqCwx8BIREREREVFZYuAlIiIiIiKissTAS0RERERERGWJgZeogCiK4rWuw3WFYahLy9fpeb6k6lLm3/bIZDwZ++94GTd6gni6TkRERP1LN+6qGNhfCXR/pbV9IM/3pba2TtKZTHxK6/wgkJGjx8g/o0ZLXSoVn0rUuxh4iZrwNXQetvNJctuV90vN9Lr41M778uNvZc+NR8jph10Yn9LcI3c8Lf+3+ZFy/nFXxqe07pfvfpej9jxdjt/3bPnj57/jUzvur99GymcffhNvERERUal496NPZJNd95c7HnjMBMuuuuz622S5DbaWi665OT6lufsfe0ZW2mR72f2QY+NTWjdm7HjZco+D5D877iPvffxZfGrHffHN9/Lzb3/EW0Qdw8BL1MQ3n/8oX3/yvTx0+5OSSqXkh69/adeSqkvH19AYjoT+9es/Jly2ZOqkafLPH//K6H/Gxqe0Dq2640dPkAljJra7VbipwA/klsvvlSN3O0UuPfU6Dfe1MnHcpIKPrSNLXS2P4BIRUc9DK+Mt9z4kuxx4tFx+w21SPb0mPqd/eO9/n8kb734oDz31vPzy+5/y6Vfftrl888PPEgRhfA2NjR0/UX785XcZ+e+Y+JTmpkydprf1l/z+V8v7NPkQxEeNGScjR4/VfarC+0ltGaV/u5sG7FU23Umuvvku08r8/c+/Fnx87V2+/v6ndrdSU+mzJlVnurlDRO968P57ZcQh+5v1WeeYWf6/vbOAj+Lq2viTbDwhCQmEkBAI7lbcpVBqlFKhtKVQoP3wQqF4cXf3IoXiLgWKS7HiVqA4gUASosT1u+esZJNsBH0DnP+vtztz587s7Kbde585tun477wtCM/KvAlLsXTWGlSpXQHfdW6BXzuP0R3JmFlrxqJQsQKIeBLBos/ROQesrK1wZN8/6NNuOLyLemH57jk8NikxCbeu31X/zeaCo5MDZo9ZjOXz1qN0xeKYv3ESj8kIshr3+n4IrNX1Jyweyuc9DeRiPWPEb9iw7E/EK+Fb/4Na+HXSz1j/+1Z1Hxt0o56Nyb8PQ8nyxXR7wovg4F/HMKTbeIP7+s49B1G1Wg3eFgQh+zJu9AiMGzOCt51yOODYjrUoWrAA7wvPz6FjJ9G4RVue04gVcyfhy6Yf8PabTkxMLFp364MNf+7Czx2+x+OgYPyp5obMKJg/H3avWQwHezs+h747F2dnWFpaoNeQsZj+21L82KoFZo8bqjsDuHztOnK7usItlwsLzt7Dx6NMiWI4u3eTbkT63PF5gCpNPkdEZBRWz5uCpk0a6o5kjYDAILYmHzj6D+8P79Mdvbv8gDrNvlGi24f7ngWPPG7YsnQOvDzz6nqEZ+XilWt4p1Fz3nZ0dMK2nXtRpmw53s8uiIVXEIyIVRPIpdNXebt81TIsMMJCniAyPBIaC43JRpZRGpOgcydaOGU5mlVrg1UL058I4uLi8GunMfigfEvs2XZI15sSiqEJehwC33uP0rTH/kG62OAkBPgFmh6j+vWLAGPoye6axVu4kdj18HJHjyH/B1s7G75eRpCQp88aHvZ2PUUXBEEQsh9k6TOON42JMZ3Tgsb5PvJHSNgTXc/rT3hEJK5evwmNuTneKVcaT9RaJCg4hNcXFhpNmmamzqHjoaFh/J1RLpCGn7dG4aqNcOLMee1F06Ft9/7wLF8bsxYv1/WkJVCJ59v37qdpPr4PtWsR9Z5+jx+nM+aRWo+k9VaLiorGsIkzcfDYSWg05viq2Ufo99P/wUKtvdKzUhP0+cLU35o+L3nZCYJYeAXBiHu3HuDn7wYhJCgMI+f05wmCLKnFShdC//HdtYNSMbjrePjcfoAlO6ajaMlCmD58PlYv2oIOfVqjdecWJi285P78afU2eBIajpmrx+LYvpNpLLyxauKeNGg2/jl8lveNISFO92imbtDJxYmfzKamcAlvDJ7Siy3NemjS+WPOOn4vEq0FiuTDiJn9eCzh7xvAAjo9Fk9fhWP7TyGft4e6tun4nYLFCsDO3la3J7wIxMIrCK8nYuF9uURGRbHF8e9/zqBCmZLo3bk9cjo76Y5q2XXgCBatXId/r91gsfTNZ011R15vjp86x3GxxMWD29B3xERs2rEbQ37pio8bN+B+Y+743MeXP3RHEe/8OLFzHaytrDgW9/bd+9i5aiFqV6uUroXXs3wd+D8OxMbFs3Dj9l2TFt5BY6di+fotur1kyKWZXKVJhLrmdIatjbXuSDKeed2xdOZ4tj7reRwYjO6/jsSG7bv44XzD2tXx+4xxcHfLzcfPXbqSrktyeEQEevw6Gldv3MJ3XzZDh9YtdUeSsbK0RKniRfh7EJ4PsfAKwmvGzWt34PcwADldnVCkuFYEErZKwBUrXZhb7jyucMuby7BvbfP0P5bh4REsdok8Hrmhf+pErzQp6FtMdCwiI6LSNBLMaoQaoxXPpsZERUSnsNhSFui5439nl20Su2TR/XloR4PYJdzUvZSuWCLd5uziyOPsHWxNHqcmYlcQBEF4FdjZ2mJAj07YvmIBRg/omUbsEtv27Mf6bX/hyvWbz5zzIjuyUIn42Lg4VK1YDoUKeOl6gQL5PFj8Fy9SCB7ubijk7cX7JYoU1o14OsLDI9mtmChSsIBhvUIYr1eiY2I4hjp1i1DrEf2YSLUOMTWGBKreS44IDg1Dpz5DsGbLDrbkFi1UAH/MnmgQuwR9pmrvlDfZKpUvC3t7Ox7n5eFuckzFsqVE7L5FiOAVBCP2bD7I8bVkac3l7qLrTYZcblrU/xFtPuim63k2zh+/pNsCVsxbj9NHte5Ej3z8MG34Am4kTBs1rYs568anaT2Hd+L4XTsHO/QZ1cXkmAETuiOHkz1f1+9BAEb2moLVCzfzfr6CHhi/cAjHKZPwDniUvlVXEARBEITsA8Xekognenf9gV9Ts27rDpSo9T76jZio63k2jp46w2KVmLFwGbb8tZe3H/r5s0VY3yqVK40Dm/5I01bNn8LxwhYWFhjZv4fJMavnTzPE0h46fhLvt2yPTTv38H6d6pXx5/IFyO3qwom5op4x8ZXwdiOCV/ifoH/ap28pHhlmAA81Pu8ZMXV+oH8wDu46xtvvNa8PM/IXNkFkeBTCdNbZZ+XMsQu6LWDjH9tx7eIN3qaY3bWLt3CjhFIUi0OJsFI3D688fH8WGnN4Fshrcgz1azQavu61yzexf/sRLrlEFtghU37BOzXK8rHJQ+bix2Y9cf6fy7wvCIIgCIKJtcozkNVrZHUcQYmqyDKayzUnPny3nq43JRS3rLWeRup6no2/jyeXEpq/bLWhtFBgcAgLYH3zexyI0sWLpmlFC3nzWoTWLN75PE2OKVbYm62t9Ll37D2IMxe06xE6d91v09nVOTgkFN906oXan3yNm3eevRyj8HYiglfIEIoZXPXbJkxRomjxtJXplt4h/tq4n8dRu3j6iq43Gfohu3DqX8wZuwQ9vhuE1k264ttGndDx894Y8tN4bF29C9HplLTxf/gYqxduwsCOo9Du4+5o/X5XdPjsF4zrNwOHdx1P4Qqjh1yXlsxYZbgnKv3z4O5DLJi0jOvXdvqyL1Yu2IjEBG2RdRpL1l3CxsaGX18GJDqP7D3J29XrV0arjl+gVAVtVuNcbi68T+3rH5sjf6HkeJbnofa7VdV7VUKlmuU4Rlj/fqeOnOPvj+J2F0xelukkKwiCIAjZBcr82+PXUYZGAo+gzMD9R03ivgNHTnAfsWLDNsPYnoPHcGxpasg1d/WmP9GuR3/UatoSFd9thuoftsC3SmyR4COhZ4od+w4Zrk3xpSQ0l67ZhJb/1wNV3/8CFRo2Q/O2XbFAXYNK+xCJas6lhFH9Rk5Eoy+/R7n6TTmjMQk7ugdTiSfDnoRjnc66+7Jdcil2dsd+bWJNsrT+0rk96tesxvsktmlf3yqXL8P9zwOJ4h++bQFnxxxo+/XnOL59jcFNfe2WHbjy3w1cvvIf1mzezn2CkFVE8AoZQqJx95aDWPf7NuxUglafNMcUJ4+c53HUbv13V9erhX60qdRPz9aDOWHSqb/P8RiqTXvpzFXs2XoIq5T4NGU59fMNQPdvB2LGqIWcvOe/y7dw69pdXD57DVtW/YXB3cZhdO9pnHHQGKozSyJcf0/3ldglt97fZ67B8QOncVGJ7+uXb6oJJxEP7/vj6H6tCH3Z3LnhY0gM1W1gO3Tq9z0qVtNaW/N45uZ9ah16t04RX/s8mGvMMWRqb4yaMwAFi+XX9QJrFm3hzMsOjvboOrA9TzaP/YI4eZf/o8e6UYIgCIKQ/SBxSpmD9S0qWvvQ3C/gMRYuX8t9V/67yX3Evr+PGcbOWbICwaGhuiNaQsPC0eSrdkrsDsCytZtx8uxFXL52gy2Oa7fuRPeBI/Fpm84GYW0MjdVfmxI7UQxqx96DsWH7bhbAVDf2z9371bw/Er2HjeeyQjv2HMBnbbtg0pxFXGKJkiydv3wV69R7tft5IEZN1Sa6NObW3Xs4de6ibu/lcvf+A9z1ecDbfbr8gDEDe+GjRlqLsnvu3Lyvb7WqVuL+56Wwd34c2rwCM0YPgmMOB+6j7NpDJsxAjFrn5c/nga8/a8rrSsoA/d/N24YYY0FIDxG8wivhn0NnOTswiSsbW2u2Nn7946f4rvOXeK9ZPRQtVYhFWWoL45UL19Hu4x4swMj6SuM+a/0RWqnzqHYsZSCmbMYkytcs0sanpsemFTvYwuyUMwfH6FLmZWvOFmiGk4fPstB76aiPd/JvbdZld0835PXKw9um+KDiN2hc+guTrWebwWxtpwcE3b7ub3KMvl04qXUNcnR2QA4n7eRBEwWVJdKL/Maf1ENhXZKu6SMW4OuGHdh6LgiCIAivG44ODqj6TnnUqFIxRaKjIgXzcx+16pUrwtbImysoJBTfdu6FoyfPcjKofB7uaPXFJxjQvSPafNUc3l6enHH4+OlzaPFjd4SEpl/iaKISsCSQy5QshvbffMGZoSuULskPlckjbcXGrfhj3WZ07jcMj4NCOEMyZUb+/OMm/D5EbGwsRkyejWOnkis10Bpp1qIVJgX3y+DkuUtsRXfL5coJq9LDq2I95CxW2WSr0OAThCrBSiFaZLk2NUbf/jrwN1+vZLHCBus1WbTb/tSX45YpDrjfTx34O4qIisL33fqidN2P+IGBeKgJGSGCV3glbFy+nTMHUxxH664t2NLYdeAP6NinDX6d3BNTlg5H37HdUpTQofG/Tf4DIUHaJ7BNmjfAZDWu57CO6KTOGzrtF13ZHQe25q5dpK0rmx67Nx9E+SqlMXfdBExcNBSTfx+OH3p+y6WHyF2aXI1fNpQp+fQRbfxuyfJF+cc7PSKeRKjvINpko+zNBP3AazM5mx5HLcGES9Spv89jztjF/BDBPZ8bfw+WVpa6o4IgCILw+kIxoctnT8Tm32fjQ51Fkvjph9bcR23D4pksavWQxXfv4aO8XaVCWexfvxQLJo3EsD4/Yd6E4fhr9SK+LkFxrAePJbtKp+b0+UtoVLcGNi2Zjbnq3EVTx2DLsjmGeFvySOsxaDQe+QWgX9cfudzPrLFD8MesCWrcXOTJnYvH0Ry/4c/dBjF3TIltEsuvin3q+yDxT1mSc7nk1PWmhQQtuXCbaiRM9fdPFnlTY/SN1nKpWb5+qxLCR3i7bcvP0frLZrwtCE+DCF7hlUAWWsLa1gqlK5RgK68eEsE5czmjTMUSXCpHz40rd3D6qFYcFi9bhLMRu6hx9ISUIIFWqWZ5VK3zDu8/9g9iF+b0sM9hh58G/wCvQp5wzJmD39Mld052sSbXaocc9lwiKCP0DxD19/C0aCwtULFGWa4ZXa5yaWgstEmlUkOTw5I/p2PDsSXY/M+yTNv6I4swdHpvfniwePv0FMfoezUmMCAYi6atYMu4rb0Nhs/sC2eXtKUcMsL/YaAhm7Rx27F+ryEOWhAEQRD+F9C6wslRzfNOTlzRQA+VMaI+bXOExly7DCYX6MlzFvFDc3s7Wwzv2x3e+fMZHkrT9aj0z6Cfu3D9VhJuf+45yMdMYW9nhwmD+3JZIEKjMUfePG5o9+0XvE3QNai0Tud238JZ3QutK+j9ShYtjDEDk+vcU4Km6JhYrjk8cvJsFsvFixTUHU0fvch81vUKQVZwsqbSAwD6Pk1B73N02yrc/GcP7p05mKW2fPYktQ4Zw+cZ9zesk7K+PLl3j5g8i63DZJ3v06V9hoYCU+w+dBS9ho5N07bvTf/vJ7x5iOAVXglU15aIjozBiYPJGf8yYtuaXRwzTD/W7zdvABsjMazHytoSlWtV0O2BY3zTo0KV0ihSIuUkQVbdTcu3k1cz2nT7KkMXYyJOiUTCMh2hmhmWSvBSMqopS0eg0Sd1dL3J0MRx6cwVTBg4G1OGzkWCur9cbjkzbTShTx48F6N6TcH9274pjhlbbslqPLzHRI6bJnK750L+glr3qachODCEXchTt0Pq+zeVZEMQBEEQsisbt+9GmM5NmOra1q9ZlbdTU6FMCbjlduVtsuKmx8fvNWC33NRUKV9Wiezk9QONI3fh1LzfsK5B2IU+0boD3/Hx5XjkHA72bKnOjNhYrdfas65XiO+/+gzbls9HN/V+aYVzEgvSX4aNQ7ufByAsLFyJ+txZar2GjkG77v1x8tzFFP02Rg8nKO7583ZdDfG5Xh55DZbvp4Fiq6cvWJqm7Tuc/npRePMQwSu8Euq+VwPm5uYshsii2rVlPy7NExbyxPAUMjXHdPGlZuZmXCv2wI6jJpuvzyMeR9y94aPbSkutRtVgoQSnMSQGi5UpzGV83vu0vq43faJ19d8snyMzIn0PlDjKJZfWPYjKHEWEa8sG/HvuP3T4rDc2r9iBaxdvItD/6eOK0/s+KX566vAFOHXkfPKTX/7302NtY4V3apRL0woV936up8mCIAiC8KqhhFF6yBK7dfd+bNyxO007fOKU4aGu7yN/fjXFO2VL6bZSQpmNKV+JnnKlipucM8kSTcKWoFheSq6ZW53r7JQDVSsoQV7LtCA3JjpGt16xfPZwJXO1/ipeuCDy62rkUjwvuS8Tl65eR+X3PmPxePbiv7h97z73ZwXDKsX0coVFLllh79731fXoeIblRb687vx9pW6FvdOPSRbePETwCq+EJs3ro0aDyro94OzxS+jddhh6txuGZbPXsvA1hiy7wY+1sbtUNmjRtJUY2Gm0yUbZn/WEZZBEwrNAcqyOMe992gAffvGuQYBmBFlICXsHW359VkhwUrbphVOXo3+HkdizRZv2Xw/F1dZ8tyoO/HXMpCU1ddu0YieXdKLrHtt/KsUxymhN8dBkAd6zWevC87yi1LuIF2asHJ2m/dirVYrJXBAEQRCyMwlqjeFvlOV3xYataPFDd5Otc99hBqEbEZl+fVvPvKa9xSwtLFKUEjJOqGUMTdHkEUawJlT/cnXJiXfKlcaoAT/DzibzNUh4hG69Ym/Hr8/Dleu3MH7mAk7WNXfpKl2vlrzqM3zz2ceccGr6b0uz1CgRFXHg2D8p+k+dv8TZrJu37YLDx7UPIchI8Dy0btEMu9csSdM6ff+1boTwNiArU+EpSOdRXBbI6eqMcb8NQrdf28PVLSfHw5C1lFxr501YipYNOuDcP5cMlkdKxGRsqbS1t+UY3MyajW369XOpxq0p6jWpia/afcpPMjPD70EAv1L877NAn+nw7hP4/sNuaPvRT1g0dSVbXMN1QtrZ1QkjZvXDqn3z0LzVh1yqyVSsbOpGyb30ZZkojtb4GGWFHtZ9Arav28NjSEzXe78mjxUEQRCEtxnKmhwfn5y00k6tI6gcTmbNwV5rgTWFsdtyasyMzJQZibnUKxJzpYLnjB+GSlmsd/vQT7tecdXVsX0WDh8/hdqffI1y9T/GwDFTsEuJWsqWTFAc9G+TR+Hq0Z0Y3qc75ikh3GvI2Cy1qCht+ShyJTfuX7N5B1p17o0Tp88r0W+ODxvVRcPa1XmsIDwPIniFTNEbA+kpqLEITU1sjDZzcHqQVbFl++ZYsGky+ozpitqNqxmSN4QGh3GNXH1yKzslcEkUExYWGgye3BOLtk7NtM1aNYbPMY1pQUv3kFWrpM/dh/zqlvfp40j0nDl+gRNyETTZVaxWBqUrFOd9z/zuaPhRbXa1dnZxxLtN62rbx3WSt020Ou9VNzwNppJLxseo/FFosNbyTccofjivEr2CIAiC8LZDc6eNdXIiTcrKfGLH2kzb4S0rdGe8OihhVlagtdr9h9pwL33M8bNAMbonz2qTh5LgrvZOedSppvXWIys2lWsi92s7O1u0+OSDLDf9912+VPEU/UUKFcCT8HBeL36p9lfMmcxWcUF4XkTwChlCPzoWuh/YqIioDBMS6cVqhijNSZmQP27RGGPn/4pF26YZElo99PHDoV3aJAIkQD0LaGNG6Ic7MTEJ+bw9Mm0eSjC+TC6fucKv3kXz8+vTQt9nfm9Pjkt+96M6WHvoN8xQIr2CEr2pKVA4H4ZN783llyi5VONP6vK+qdZndFe2gtP1v2r/aYpjZM1tpM7Np77P4TP6In+hp09SJQiCIAhvIjRvFsjnodsD7vo84JqzmbXC3s+2DngVkMuwn/9jdp92z51x9YmM8PLMyzHATRrUwek9G3FIifymTRrqjiaT29UFf8yeyK1i2VJoWKe6Yd9Uc3LSZnxu+/UXKfrbtfycE4Y1qlcTv00eydmuBeFFIIJXyBCyfjrk0P7gkJXwznXTSaEoTvTmldu6vaxBk0yRkgXRputXBreeezeTkx7UbqRNykCW5ROHTvPrq4Zcl6vVq4RSFYojRueCTfft7pELl89eYzFeomwRttLSE86sUO+DGix0h8/qy+7FdL30oGO/z1zNdYIHdxmHAzuP8ntSf4qmG6/H+BjxwefvYvrK0fx+giAIgvC2QJZJPaFhYbqtlDSolew2u2nnvgwTUmVXKpUrrYRpbXi458FD/wAEBAXDwcGeXZAp+RO5atetXgVVKpYzeNBlRp3qlXFh/zZs+2MeypQoxt9leisWWm/MWbISA0ZPxk8DRmLRyvW8bjNej+ibHtoy7mePvl5dsOX3OSms7oLwvIjgFTKEshqTSyxBQmv6iN/SFAaneNslM1ZlaP09vOt4ihgZY+g96NoEuTLrISuwvi4v1dc99fc53jYFlcnZtfmAbu/FUbRUQYyeOwD/98t3uP7vbQQFhLD1ec74pRjUZSyuXLiOnsM6YsLioZmWNNJDybHy5svaWKJpyybI5e7K8bdTh87LmiU9FfYOdpnWGBYEQRCENw3jBE9HTp7RbaWk2QeN2EpJ+D7yw7QFv/O2KXgunr+Ea/dmJ3p2aos1C6ajXs2quPLfDRbt5B7cZ/h4fPJdR/Ys27x0DuZOGMbiNyu4ODuhUIF8ur3Madn8I65XHBsXh/6jJuKQLvHU0+Dl6fHUtXYFITNE8AoZQpbXqnUqah/DKa5duoHBXcfh+IHTbOE8duAURveZhv07jsAug8zFU5RQ+/m7wZw46cKpf3Hjym1cPncNO5WQXT53PQteKnVTvX5yJmd3JQrrf1CLt0lU/9J2KGaOXoiTSvj+d+kmriqxeXTfSe775t1OOHHQ9ET2PNDnt7G1hpWVJQ7+dZSzHZNwJMu3n28AhnWfiNs3fFiY663UngU8ULF62acStRlByba69m8LK2srPPYLwsCOo/FAF0ssCIIgCEL6lCqeXA938859mL9sNY6dOos1W3YgMDiE+21trDF6YE/YKiFID++nzluCrzv2VOP34vT5y1x2Z/+R45ii+is1bs6leCJ1iZeyCxTfS0I2MSEBsxav4GRc5Upq84NcuX4T3fqP4BJHFHPLFlUlgKtUKIu6NarAyVHrYvy8kECePW4ocrnkRHBIGDr1HsK1gwXhf40IXiFTqtevhFoNk2u+kVvtr53HoHe7oSy+9mw5iHKVSqFq3Xd0I9JCbi1Ud3dMn+no0344erYezGWJRvWagof3/XhMo0/qKaGYHMtKArhjn9bsTkzQJLRqwSYM6DAKPb8fgl7fD+X7WDl/Y5qyRi+a6//ewpaVf7EwJxfskbP6sdX0/h1ffgBAJYb0NG35HsYtGGQQ6y8Culb7Ht/w9oO7j+Cj3lcQBEEQhIz5sFE9g/WWRODPg0ajWZvO+LHnr1zvVc9XzT7CD99+yduJaq5ft3UnWnXuhabfdcDHrTrg83bd0HfEeFy9kTzfZzdojTJ+1kLOrkzid9X8KejfvSP3b997EJ+07oSgYG3JRxLI00cNwur5U1GqWPJDgeeFBPTwvt1528f3IdfrFYT/NSJ4hUwhyyIlmPrk6/c5OzFZO6MioxEZHgUHRwfUblQNgyb3hIeXO1s1qZEYNIZEMyWVsrW34XPJBZlK8Tg42qNwCW8lbNug98jOacoK5crjilmrx6LlD59ysiVyeY6OikHw4xA8CQvne8tfKB8aK7H8fbeWurO00BNMSvakvyd9FuOngSaJ60rM/vT1QISHRaBK7Qpo0rwBylQqiUFTeiKHkwNbWycNmo1Af+3ESfdEJZL07xcXoy0XZJZu5EvmkNt3q05f4HsltmevHYvq9Srpjmih74RijImslFdKDf1NAh4FciNrOhGr7lvfp2/0PkRcXEKaY/qmzwgtCIIgCC8TikX19vI0NFOxqS7OztiweCYqlCnJSZBI9FINXWenHCmyHpOVd+KQvpg5ZjAnXiJrJT2sJ1EcGKwtxZM/nyca1a2JBZNH8fsZk9PJ0XAfDkbhWakp4OVhGGdck9cYKsnj5ZGXx+R1czN4kGXGWiXSJ89dBAv1PQzq2QUF1P12/7E1funUjj/riTPn8cuwsYiMiuLxDvZ2yOFgb/jeyBX5eaH3/rFVC852vWHxLHz5yfu6I1qoJGV4uLaGsVkWP5cxQcEhePDIDw8fBSBGV44xPDyCXbipn4/5Bah1ivbYE3VM35+6RUVnLyu98PIwC3oSm36dmdeAlcuXoUvH9ryd290Vm46nH3chPB9x6oflwb1HLOyilPCxUcLOOZcT8hf0ZJEXHBjKopBwyeXMok8PTRr+DwPYJZdEU3xcPDQWGha87h65OTkUCdT04Enn0WMEPHzMbsXx8Qlcuofeg1x+SYinPp/EKtXNjVPvRXjkz5NpooYuX/XDuROXMH3FaFSqWQ6XzlzBqN7TOJkWZWaeuHiIwVWZPsO6JVsxY9RC3i9doRhGzhmQpmTRomkrsXDKchQtVQhLtk/X9aZk9pjFWD5vPZcNmr9xkq43LUmJSbh2+QZio+Pg5OLI7taUPXvx9FXYs/UQfwdT/xiByrUq6M4wzUx1zysXbORM0PM2TGR3cEqORfipv1PEk0h209Z/Vj3+6m9Af2P6e1PWZ1MULFYAw2f20e0JL4KDfx3DkG7j+f9BYueeg6harQZvC4KQfRk3egTGjRnB2045HHBsx1oULViA94Xnhzy/bt5JTqZZ2NvLpDik9cAj/wAeS2KPkiO55syJUsWKpHkYTmMp0dMdnwcIDXuCqJgYWCuxSGLZLZcL8nt6wFrNgakJCglFYJDWRdrDPXe6GYZv37vPaxjCy9PdZHImugcaR2sfEuIe7ilF733fRyhYpSGXBrpzaj+L+NmLV2DM9LlKoAejcb2aWD57EnLqavCSsOvSbxiWrd3MWZfbtPgUM0YPShErGxMbi2879WI37s5tv8G0kb/qjqSE3L17Dx/PSazO7t2k600LWckplpgsyrlcc8JBfR9RSuxS/POCP9bwmJVzJ+OLpikFcWoo/njHvkNoUKsaxyBTUqz9f5/gv/3dB76IjIyCq4sz3HPT2ku7DkxITOBs2/R+ZN13y2W6NFP/7h3wVbMPdXvCs3LxyjW806g5bzs6OmGb+m+oTNlyvJ9dEAuvkGVIYHoX8VJCsDxqv1sVlWtXQJESBVn8EFReyKugBzdjsUtQzCuJp7KVSrKVtEaDyhwbXKp8Mbjkzpmh2CXofEqeVbZyKc6aXEu9P51P9WspptbU+dRHWYn195TVrIQEieS1i7eg4+d9WOySJbfnsA4pBCBZXVv+2BzNW33I3w0lsrh/9yHaN+2B3u2HK6E8Ff3/byRWKCFLuOV99lp4eijmZs2izej0ZR98825HfFazLb5t3JnFLkEWcLJ4Py1PlIi9d+s+t5ioGF4MkLjS9+lbdGQ0H6MYodTH9O3BPYkvFgRBEF4+JAKLFipgaOlZQmk9kDePG2pXq4T36tdGw9o1UL50CZOeXzSWRBLFt5I1t2njBnxOrarvqPfwNil2CbII6+8jo3I6BfPnM4xLLxMx3QMlf6Ix+TzcM7TwksW024AR+GXYOCXUQ1CuVHEsmT7eIHYJWxsbjB/cB8ULF4RGXStECfmDR0+i0Rdt0OLH7uze/Wmbzuz2TOR2ff71CmV0Xr5+Kxp+3hrl6jdFoarvonTdDw1il2KJyer+tDx85I//bt7Gjdt3eZ1CdXrDwsJV3x3up3bz9j2tYUQdCwkNM/SnbvoYbuHNRyy8gmCE3sJLLtw7NuzDwZ1H2TLba3hHFtumIIvn4d0nULNhFdjYWuGjSt8iKiKlmww9FPhlZCd89GVjXU9KsmrhJdYu2crZmlPjmT8vug5sh7pNMrf8pbbwhoY84SRgLwJ6OFAtg3hu4ekRC68gvJ6IhVd4GRhbeE/v3oj3WrTFhX+vcbwyxeUa1xU25t4DXxz55ww+/6gJLly5hqatOrA12xhycSZLap1qyUlEjcmqhZdYuWEbWndL6/FFFusRfXugdYtPdT3pk9rCe+7SFfg8eDEP1iuWLc0PFYTn43Ww8IrgFQQjercbhoun/sXkpcPhkd9diYwJGDipB9zcU7opZ8QKJSTv337Asbv0P5ezqxPqNKqKclVK81NbU5DV9s+1ezieefCUXrpe0wQ9DsHZYxe4zFNCYhIsNObIV9CTz03vyXNqNi3fgX3b/2br+M9DO6QoByVkP0TwCsLriQhe4WVApZPKN2zG7tWnd2/AwaP/YP22XZg0rC+7LGeF4JBQTP9tGXz9/DnelSy/3vnzodUXzdIVzMQf67ZgyrzFKKL+O6aEVxlBFtS9h6ksZRy7Z2vfwxPlS1M8ddbWHb+OnYqTZy+wNZiSYaUX9yz87xDB+woQwSu8SOgHGUlJHF8sCNkFEbyC8Hoigld4GVCML61X6Bn604RrCcLLQGJ4BeE1g2KFRewKgiAIgpBdIW8xyqchYlcQsoYIXkEQBEF4A6EsqYIgCILwtiOCVxAEQRDeIMyRoNRuPOLjk0T0CoIgCG89IngFQRAE4Q0hKT6WS6RFx1CSmHgkmplx8jxBEARBeFsRwSsIgiAIrzNJiTBLjEN8XBzi4hMQF5eAhMRErpcdH58oglcQBEF4qxHBKwiCIAivIWZQYjZJiVslbKmsSGxsLOISlNDVHVdKGAnx8UhMVJJXVK8gCILwliKCVxAEQRBeM6gsCRITEK9EbnRMLGLik0xoWtWjxDAJ3iTTJcAFQRAE4Y1HBK8gCIIgvCaYmSXB3Cwe8dHRiIqOQ2x8sj3XNImcuEpyVwmCIAhvKyJ4BUEQBOE1IDFBCd2YGERFxSEuMREJaVSsBhZWlrC00KSY3MkaLHpXEARBeFsRwSsIgiAI2RhKSJUQH4f4+HjExicgPiFlIiozM3MldK1hZWkJKwsLWGjMYW7kwpxELs0UxysIgiAIbyEieAVBEAQhG5KURJmW45XYTdAmpFKvKXSrEroajQU0SuhaWlnCwlLD4pe0rlkKwat1a+YDgiAIgvCWIYJXEARBELIjSqQmxsUgOi610DVT/5hBY0FC1wrWlhYwV2P1IpeOGVt46Trk1pwoilcQBEF4CxHBKwiCIAjZEHOlWslym0K8qmnbzNwSNtY2LHQ1KQ8yJHxJ9Caj1DKLXt2uIAiCkM2gH24jWcY/5Lp9420ixe+78bYOcxqr7Y+Ko/J12h//4KgExMXH8zZdIzbJHBFxSQiLSUB4bCJi4hMRn2SGiJh4Q4tJNEN4tLbGO8w1SNJYQg2Hf0g47j0MeG3mFRG8giAIgpANSVILjyQzDSw1xhZbrXhN1Kjp28Q6hzBTix1zdTz5MMX8iuAVBEHIligxGxKTiH8uXUdAWDTv3/EPxYUbPniixGa8hR2OXbiG649C2eMn3twaPoHhfGpInBKokZG8TYI0MDIeZ/+9gbuPQxGbkICYuDj8d+sOH/YPDecSdtGxcQgKi8Cte77w8fXDhSvXce/BQ1y+cRcxUVEIDg7WtqBghETG4tr161zrPSQiGsdPncW9+77QqHkll3OOlNo7GyOCVxAEQRCyI7qn+hZkyVXbhnUFbSvxSs0kdFydZzzBs0uzKF5BEIRsB1WXu3rtKiqVKIiI8CeIS0ziGutlinjhSVgYJyu01yShgKs9/JQgDnvyBI8e+bFojYiMRnR0DF/nsdr3feCLvHnzwjwhHr5KFNtZauCe1wPXfPzh4pobV2/fx+PAIH6Qam9rDSsrSzjmyAELCws42VnB3t4WceZWCFNCO8nCEg52dsjpmAN2tjYwV4K6eNHC8CrgzZZgW3uHFAkUszMieAVBEAThlULxttq4Wr2rWUaYqYWIhppGo32l5FS0zEjnyTpdMY3g5UzNmdXsFQRBEF415GacyyWn+o03h1ceF7ae2lias8VVY2Ovfs+1P/ZWlhawVwI0LDwCVuYJiI5L+ZseGxsPCxtbxEaFIzA4GBpzc3Y/vnX7trpmEgIf+8PJwQ4eeXIjyVxdyyEH4mmmoPAZGzvYWVvxdegBa8kiBVlIG89QmqR4+Pg+wj3fh7jl44uLV67ioV8Aex1ld0TwCoIgCMIrRS0OkhIQx8moMlsomCEx0VyJXCtY29jARi1IrLnsUPp+ZElJ5pygisO4dLC4JtGr2xcEQRCyB1Q73cLCikNYfIMjlAjVIKezE8oU8UbYk3BEx8Rw6bn4JHX84UNYq3mA5gCyxkZERemuAtjZWME5hz3CIuNgrq4XHPAQkepcN7c8iImLRVxsHGxtrBEeFQPzpETcuvcA8VGRsFHXfuBzl+N4aa6IiYrAlav/ITEhTndlwgxmltaIUSLYy90NLs7OcMvjAffcrvSEVTcm+2IW9CT2tZ7/Vi5fhi4d2/O2o3MOTFoyjLcFQRDeFE7+fRYLp67g8jTEzj0HUbVaDd4WXjMSYtXfMZ6fupPWtbC2gWWqurkvBCWoE2KjEROvNrlDiWYLS1jbWoJSPmf/5cmbwbjRIzBuzAjetrezxYLJo+Dt5cn7giAIBM0F5J7s9zhQ/VInonghbzwICEJI6BNYW5ojj5sbx+FaK2HqZG8NV1dXBAYGwssjL/69eQ/53V2Rw8Gea7QHBIUhODQUttaW6rfGAzfu+cIphwMcHRwQFpMIO/M4BAaHokTJ0rhw5T+4Otqp+SiJxbKanNT1bbjmu4XGAjZ2drB2yoV/z56Eh2c+/Hvthrq3/MhboBAunz+jjtsjJjICj/z80KH3EP4sjo5O2LZzL8qULcf72YU3SvAKgiC8DYjgfc1QqxlzUPKQBCRSTVyui6s9ZKaxZDc1C0pC9SJRgjcpLgZRcXqrrhnM1QLGysZa3YsI3leFseAVBEH4X2FjY4Po6GjdHhllzdiaa25O9dw1SEhI4G0Su3roHOqnhFV6LC0tebzxtYzJroJXXJoFQRBeM2gCEl4jlLo0S1IiV/3d6Am8XuwSSYkJSFACOMG48wXAtXjVoiTZ04yuTzHD2j1BEATh7SG1QNXnj6AHsCRo6dVY7BJ0jrHYJWg/PbFLcPhMNpxoXnsL76oVf6Brpx90e4IgCG8+O3YfQJWq1XV7QvYnCZrEOETGxCPehLA1M7eAhaUVLC212ZdfBJQUyywxHlFRcUigBQj1mWugsbKBlUZta4cJLxmy7k4YO0q3JwiC8Gbj5OSMzX/uyn4uzUqFv9aCVxAEQRCyN2qajY9NV/CSsxW5G1N8rYWZUfmh54KesicgJjKGS1zwu5qZw8zCCg7WFq9DjhFBEARBeAEA/w9/1DrZRTLF9AAAAABJRU5ErkJggg==;" parent="1" vertex="1">
          <mxGeometry x="-490" y="720" width="346.56" height="296.17" as="geometry" />
        </mxCell>
        <mxCell id="1zJf-3JaiFk__ZrVRrUH-40" value="双塔模型" style="whiteSpace=wrap;html=1;" parent="1" vertex="1">
          <mxGeometry x="-132.5" y="890" width="120" height="60" as="geometry" />
        </mxCell>
        <mxCell id="1zJf-3JaiFk__ZrVRrUH-41" value="两个独立网络可以离线产出embedding，召回时只需要计算两者相似度" style="text;html=1;align=center;verticalAlign=middle;resizable=0;points=[];autosize=1;strokeColor=none;fillColor=none;" parent="1" vertex="1">
          <mxGeometry x="-500" y="1040" width="390" height="30" as="geometry" />
        </mxCell>
        <mxCell id="1zJf-3JaiFk__ZrVRrUH-42" value="youtube用户视频召回" style="whiteSpace=wrap;html=1;" parent="1" vertex="1">
          <mxGeometry x="-132.5" y="1130" width="120" height="60" as="geometry" />
        </mxCell>
        <mxCell id="1zJf-3JaiFk__ZrVRrUH-44" value="" style="shape=curlyBracket;whiteSpace=wrap;html=1;rounded=1;flipH=1;labelPosition=right;verticalLabelPosition=middle;align=left;verticalAlign=middle;" parent="1" vertex="1">
          <mxGeometry x="7.5" y="920" width="20" height="250" as="geometry" />
        </mxCell>
        <mxCell id="1zJf-3JaiFk__ZrVRrUH-45" value="&lt;font style=&quot;font-size: 22px;&quot;&gt;&lt;b&gt;ID-Based推荐系统&lt;/b&gt;&lt;/font&gt;" style="text;html=1;align=center;verticalAlign=middle;resizable=0;points=[];autosize=1;strokeColor=none;fillColor=none;" parent="1" vertex="1">
          <mxGeometry x="-421.72" y="70" width="210" height="40" as="geometry" />
        </mxCell>
        <mxCell id="1zJf-3JaiFk__ZrVRrUH-46" value="基于矩阵分解，使用ID-embedding来建模物品是推荐系统的主流范式" style="text;html=1;align=center;verticalAlign=middle;resizable=0;points=[];autosize=1;strokeColor=none;fillColor=none;" parent="1" vertex="1">
          <mxGeometry x="-421.72" y="120" width="390" height="30" as="geometry" />
        </mxCell>
      </root>
    </mxGraphModel>
  </diagram>
</mxfile>
